<?xml version="1.0" encoding="UTF-8"?>
<svg width="158px" height="158px" viewBox="0 0 158 158" version="1.1" xmlns="http://www.w3.org/2000/svg" xmlns:xlink="http://www.w3.org/1999/xlink">
    <!-- Generator: Sketch 60.1 (88133) - https://sketch.com -->
    <title>Aboutus_Bridgingloans_icon</title>
    <desc>Created with Sketch.</desc>
    <g id="About-Us" stroke="none" stroke-width="1" fill="none" fill-rule="evenodd">
        <g id="About-Us---History" transform="translate(-399.000000, -1996.000000)">
            <g id="Aboutus_Bridgingloans_icon" transform="translate(399.000000, 1996.000000)">
                <path d="M131.729266,124.4622 C131.280463,124.4622 130.917065,124.826057 130.917065,125.27472 L130.917065,132.042474 C130.917065,132.491709 131.280463,132.854994 131.729266,132.854994 L145.270734,132.854994 C145.719537,132.854994 146.082935,132.491709 146.082935,132.042474 L146.082935,125.27472 C146.082935,124.826057 145.719537,124.4622 145.270734,124.4622 L131.729266,124.4622 Z M121.573022,138 C120.154392,138 119,136.845969 119,135.427784 C119,134.009025 120.154392,132.854994 121.573022,132.854994 L124.958246,132.854994 C125.407622,132.854994 125.770447,132.491709 125.770447,132.043047 L125.770447,107.103606 L130.917065,106.880708 L130.917065,118.505247 C130.917065,118.954482 131.280463,119.317767 131.729266,119.317767 L145.270734,119.317767 C145.719537,119.317767 146.082935,118.954482 146.082935,118.505247 L146.082935,106.223472 L151.229553,106 L151.229553,132.042474 C151.229553,132.491709 151.592378,132.854994 152.041754,132.854994 L155.426978,132.854994 C156.845608,132.854994 158,134.009025 158,135.427784 C158,136.845969 156.845608,138 155.426978,138 L121.573022,138 Z" id="Fill-1" fill="#747474"></path>
                <path d="M26.4557676,18.3478101 C26.1882784,18.3478101 25.9394512,18.4800597 25.7901549,18.7006634 C25.6419896,18.9212671 25.6131483,19.2015238 25.7138102,19.4474519 C31.3401324,33.1462647 37.5902191,44.3542819 44.2915879,52.759732 C44.4465394,52.9544485 44.6800977,53.0619366 44.9193111,53.0619366 C45.0080972,53.0619366 45.0968832,53.0473047 45.1834072,53.0174782 C45.5057516,52.9060508 45.7206478,52.6038463 45.7206478,52.2644993 L45.7206478,19.1452473 C45.7206478,18.7051655 45.3626759,18.3478101 44.9193111,18.3478101 L26.4557676,18.3478101 Z M131.761134,51.5863681 C131.318334,51.5863681 130.959797,51.9431608 130.959797,52.3838054 L130.959797,68.8300343 C130.959797,69.1479962 131.148679,69.4350061 131.441617,69.5616281 C131.543975,69.6060865 131.65312,69.6280343 131.761134,69.6280343 C131.95963,69.6280343 132.15643,69.5537494 132.307988,69.4136211 C136.852477,65.1973896 141.281036,59.6074501 145.470947,52.8002511 C145.622505,52.554323 145.62816,52.2459281 145.486216,51.9938096 C145.344836,51.7422539 145.077347,51.5863681 144.787237,51.5863681 L131.761134,51.5863681 Z M19,2.52681248 C19,1.13340765 20.1389499,0 21.5380374,0 C22.9376904,0 24.0766403,1.13340765 24.0766403,2.52681248 L24.0766403,12.4978734 C24.0766403,12.938518 24.4351777,13.2958734 24.877977,13.2958734 L44.9181801,13.2958734 C45.3615449,13.2958734 45.7195167,12.938518 45.7195167,12.4978734 L45.7195167,2.52681248 C45.7195167,1.13340765 46.8584667,0 48.2586852,0 C49.6583382,0 50.7978536,1.13340765 50.7978536,2.52681248 L50.7978536,15.38992 C50.7978536,15.4793996 50.812557,15.5683164 50.8425294,15.652731 C64.0433777,53.2403329 85.0019793,77.8843519 105.540402,79.9671432 C106.422042,80.0509951 107.312165,80.0932025 108.188715,80.0932025 C114.009575,80.0932025 119.838352,78.2563392 125.513309,74.6332615 C125.742909,74.48638 125.88146,74.2336988 125.88146,73.9618835 L125.88146,64.1303882 C125.88146,63.803422 125.681833,63.509659 125.376454,63.3892274 C125.280316,63.3509594 125.179654,63.3323882 125.080123,63.3323882 C124.864662,63.3323882 124.652593,63.4196167 124.497642,63.5822556 C119.491125,68.8576098 113.398252,71.160442 103.467219,71.5296155 L103.370516,71.5290527 C101.996311,71.5290527 100.883375,70.4631768 100.838134,69.1024123 C100.786672,67.7090075 101.883774,66.5317042 103.282295,66.4759905 C113.637465,66.0933107 120.294158,63.7910412 125.798329,52.7377842 C125.85375,52.6280452 125.88146,52.506488 125.88146,52.3838054 L125.88146,42.4121817 C125.88146,41.0193396 127.02041,39.885932 128.420628,39.885932 C129.820281,39.885932 130.959797,41.0193396 130.959797,42.4121817 L130.959797,45.7364314 C130.959797,46.177076 131.318334,46.5338687 131.761134,46.5338687 L145.121457,46.5338687 C145.564257,46.5338687 145.922794,46.177076 145.922794,45.7364314 L145.922794,42.4121817 C145.922794,41.0193396 147.061744,39.885932 148.461397,39.885932 C149.861616,39.885932 151,41.0193396 151,42.4121817 L151,98.2119674 L145.922794,98.4348221 L145.922794,63.8248071 C145.922794,63.480958 145.701677,63.1759397 145.373678,63.0673261 C145.291112,63.0403134 145.205719,63.0268071 145.121457,63.0268071 C144.873196,63.0268071 144.633417,63.1421738 144.479031,63.3475828 C140.299865,68.9206394 135.8583,73.4897241 131.278183,76.9282151 C131.077424,77.0790359 130.959797,77.3148343 130.959797,77.5652644 L130.959797,99.0904427 L125.882591,99.3132975 L125.882591,81.7730544 C125.882591,81.494486 125.737819,81.2367399 125.498605,81.0921094 C125.370799,81.0144479 125.226027,80.9756171 125.081254,80.9756171 C124.95571,80.9756171 124.8296,81.0048809 124.713669,81.0645339 C119.417043,83.7843746 113.937755,85.1637103 108.427929,85.1637103 C107.335351,85.1637103 106.221849,85.1079967 105.02352,84.9943182 C85.5341302,83.0257681 66.3269327,64.0887436 52.3309684,33.0382139 C52.1997687,32.7472646 51.9107898,32.56718 51.6003213,32.56718 C51.5443352,32.56718 51.4883491,32.5728077 51.4317974,32.5851885 C51.0625153,32.6634127 50.7984191,32.9886906 50.7984191,33.36518 L50.7984191,59.5162823 C50.7984191,59.7363232 50.8894673,59.9467971 51.0506394,60.097618 C56.5276653,65.2215885 62.2591736,68.5565308 68.0851231,70.0090259 C68.7450807,70.1733531 69.3004177,70.5830456 69.6487758,71.1643813 C69.9948718,71.7417777 70.0944027,72.4176578 69.9281409,73.0665253 C69.6431206,74.202184 68.6302808,74.9923053 67.4653171,74.9923053 C67.2577726,74.9923053 67.0536212,74.9669809 66.8398561,74.9152065 C61.858788,73.6714971 56.8929889,71.1868919 52.0860999,67.5311739 C51.9435897,67.4231231 51.7728038,67.3674094 51.5997558,67.3674094 C51.4787353,67.3674094 51.3571493,67.3944221 51.2446115,67.4501358 C50.9714671,67.5846365 50.7984191,67.8615167 50.7984191,68.1648467 L50.7984191,102.60547 L45.7206478,102.828324 L45.7206478,62.2158635 C45.7206478,62.0082034 45.6397789,61.8089848 45.4944412,61.6598522 C38.3236939,54.3123992 31.6308078,44.2186556 25.6024034,31.6583154 C25.467245,31.3769332 25.1827903,31.2047272 24.879108,31.2047272 C24.8202943,31.2047272 24.7614806,31.2109176 24.7015359,31.224424 C24.3367778,31.3065876 24.0777714,31.6296144 24.0777714,32.0021645 L24.0777714,103.777145 L19,104 L19,2.52681248 Z" id="Fill-3" fill="#747474"></path>
                <path d="M25.5148396,138.076961 C25.0735968,138.076961 24.7163198,138.433954 24.7163198,138.87359 L24.7163198,152.155429 C24.7163198,152.595627 25.0735968,152.95262 25.5148396,152.95262 L45.4851604,152.95262 C45.9264032,152.95262 46.2831167,152.595627 46.2831167,152.155429 L46.2831167,138.87359 C46.2831167,138.433954 45.9264032,138.076961 45.4851604,138.076961 L25.5148396,138.076961 Z M15.5296792,158 C14.1349463,158 13,156.868303 13,155.47631 C13,154.084879 14.1349463,152.95262 15.5296792,152.95262 L18.8578781,152.95262 C19.2996844,152.95262 19.6563979,152.595627 19.6563979,152.155991 L19.6563979,112.370067 L24.7163198,112.151374 L24.7163198,132.23239 C24.7163198,132.67315 25.0735968,133.029581 25.5148396,133.029581 L45.4851604,133.029581 C45.9264032,133.029581 46.2831167,132.67315 46.2831167,132.23239 L46.2831167,111.219256 L51.3430385,111 L51.3430385,152.155991 C51.3430385,152.595627 51.7003156,152.95262 52.1415583,152.95262 L55.4697573,152.95262 C56.8650537,152.95262 58,154.084879 58,155.47631 C58,156.868303 56.8650537,158 55.4697573,158 L15.5296792,158 Z" id="Fill-5" fill="#747474"></path>
                <path d="M2.53023272,111 C1.17801944,111 0.0673130199,109.998509 0.00201046322,108.720325 C-0.0531589381,107.417805 1.03390345,106.306801 2.4249605,106.249663 L19.1891401,105.562428 L25.8393048,105.286793 L45.7886729,104.474702 C45.8421534,104.472586 45.8933822,104.465179 45.943485,104.454069 L52.2609444,104.192718 C52.3093583,104.201712 52.3583353,104.206474 52.4078751,104.206474 C52.4174453,104.206474 125.586708,101.21893 125.586708,101.21893 C125.700425,101.214169 125.807386,101.187187 125.903651,101.142747 L131.913738,100.894094 C132.004936,100.927424 132.102327,100.944883 132.20197,100.944883 C132.213229,100.944883 145.536076,100.400491 145.536076,100.400491 C145.656548,100.3952 145.769139,100.365573 145.869908,100.316372 L151.833269,100.069835 C151.932912,100.110042 152.040999,100.131733 152.151338,100.131733 C152.16316,100.131733 155.371992,100 155.371992,100 C156.817656,100.000529 157.936807,100.958109 157.997606,102.27703 C158.057842,103.583782 156.974157,104.694257 155.581411,104.750866 L152.116435,104.894767 C152.044377,104.897942 151.975134,104.909581 151.909268,104.929155 L145.672311,105.183628 C145.61489,105.169873 145.55578,105.162995 145.49667,105.162995 C145.486537,105.162995 132.167067,105.707387 132.167067,105.707387 C132.093883,105.710562 132.023514,105.722201 131.957648,105.742305 L125.700425,105.997307 C125.650322,105.987255 125.599093,105.982493 125.547865,105.982493 C125.537731,105.982493 52.3690314,108.969508 52.3690314,108.969508 C52.3149879,108.972153 52.2620703,108.979559 52.2108416,108.991199 L45.8511607,109.249904 C45.8185094,109.24673 45.7852952,109.244084 45.751518,109.244084 C45.7413848,109.244084 25.7694986,110.057234 25.7694986,110.057234 C25.7227735,110.05935 25.6771743,110.06464 25.632701,110.074163 L19.2645758,110.333397 C19.2274209,110.328107 19.1897031,110.325991 19.1519852,110.325991 C19.1412891,110.325991 2.65914898,111 2.65914898,111 L2.53023272,111 Z" id="Fill-7" fill="#B49464"></path>
            </g>
        </g>
    </g>
</svg>