<?xml version="1.0" encoding="UTF-8"?>
<svg width="124px" height="115px" viewBox="0 0 124 115" version="1.1" xmlns="http://www.w3.org/2000/svg" xmlns:xlink="http://www.w3.org/1999/xlink">
    <!-- Generator: Sketch 60.1 (88133) - https://sketch.com -->
    <title>Aboutus_PropertyPro_Icon</title>
    <desc>Created with Sketch.</desc>
    <defs>
        <polygon id="path-1" points="7.97427653e-05 0.331857143 123.980064 0.331857143 123.980064 115 7.97427653e-05 115"></polygon>
    </defs>
    <g id="About-Us" stroke="none" stroke-width="1" fill="none" fill-rule="evenodd">
        <g id="Meet-the-team" transform="translate(-492.000000, -3711.000000)">
            <g id="Apply-now" transform="translate(-221.000000, 3360.000000)">
                <g id="Aboutus_PropertyPro_Icon" transform="translate(713.000000, 351.000000)">
                    <g id="Group-3">
                        <mask id="mask-2" fill="white">
                            <use xlink:href="#path-1"></use>
                        </mask>
                        <g id="Clip-2"></g>
                        <path d="M99.3595653,3.33708362 C111.286691,3.33708362 120.98979,13.0884425 120.98979,25.0748885 C120.98979,37.0613345 111.286691,46.8126934 99.3595653,46.8126934 C87.4320412,46.8126934 77.7293402,37.0613345 77.7293402,25.0748885 C77.7293402,13.0884425 87.4320412,3.33708362 99.3595653,3.33708362 L99.3595653,3.33708362 Z M99.3595653,49.8179199 C112.935771,49.8179199 123.980144,38.7190174 123.980144,25.0748885 C123.980144,11.4323624 112.935771,0.331857143 99.3595653,0.331857143 C85.7829608,0.331857143 74.7389865,11.4307596 74.7389865,25.0748885 C74.7389865,38.7190174 85.7845556,49.8179199 99.3595653,49.8179199 L99.3595653,49.8179199 Z M35.7922212,95.7101324 L54.3962084,95.7101324 L54.3962084,86.5081289 L35.7922212,86.5081289 L35.7922212,95.7101324 Z M14.1982791,95.7101324 L32.8022662,95.7101324 L32.8022662,86.5081289 L14.1982791,86.5081289 L14.1982791,95.7101324 Z M14.1982791,83.5029024 L32.8022662,83.5029024 L32.8022662,74.3012997 L14.1982791,74.3012997 L14.1982791,83.5029024 Z M35.7922212,83.5029024 L54.3962084,83.5029024 L54.3962084,74.2996969 L35.7922212,74.2996969 L35.7922212,83.5029024 Z M55.8913852,71.2960732 L12.7031023,71.2960732 C11.8773659,71.2960732 11.2079254,71.9672404 11.2079254,72.7986864 L11.2079254,97.2127456 C11.2079254,98.0425889 11.8773659,98.7153589 12.7031023,98.7153589 L55.8913852,98.7153589 C56.7171215,98.7153589 57.3865621,98.0425889 57.3865621,97.2127456 L57.3865621,72.7986864 C57.3865621,71.9672404 56.7171215,71.2960732 55.8913852,71.2960732 L55.8913852,71.2960732 Z M107.040787,111.994854 L107.040787,89.5385993 C107.040787,81.2646098 100.343591,74.5345052 92.1109479,74.5345052 L83.4309479,74.5345052 C75.1979061,74.5345052 68.50071,81.2646098 68.50071,89.5385993 L68.50071,111.994854 L2.99043344,111.994854 L2.99043344,62.6137735 L47.4518096,62.6137735 L47.4673595,62.6137735 C47.4829093,62.6137735 47.4968643,62.6121707 47.5124141,62.6121707 C47.5235781,62.6121707 47.5355395,62.6105679 47.5467035,62.6105679 C47.5578675,62.6105679 47.5698289,62.6089652 47.5809929,62.6073624 C47.5965428,62.6073624 47.6104977,62.6041568 47.6264463,62.6041568 C47.632427,62.602554 47.6404013,62.602554 47.6479768,62.6009512 C47.6667164,62.5981463 47.6838611,62.5965436 47.7010058,62.593338 C47.7057904,62.5917352 47.7101762,62.5917352 47.7149608,62.5901324 C47.7348965,62.5869268 47.7556296,62.5821185 47.775964,62.5793136 C47.7771601,62.5793136 47.7771601,62.5777108 47.778755,62.5777108 C47.8489286,62.5620836 47.9159125,62.5416481 47.9828965,62.5164042 C48.0048257,62.5071882 48.0263563,62.4991742 48.0482855,62.4899582 C48.0498804,62.4883554 48.0526714,62.4883554 48.0562598,62.4867526 C48.0734045,62.4775366 48.0921441,62.4695226 48.1104849,62.4603066 C48.1180605,62.457101 48.1248386,62.4538955 48.1308193,62.4506899 C48.1447743,62.4430767 48.1587293,62.4366655 48.173083,62.4290523 C48.1834495,62.4226411 48.1930186,62.41623 48.2041826,62.4102195 C48.2133531,62.4054111 48.2229222,62.399 48.2320926,62.3945923 C48.2460476,62.3849756 48.2615974,62.3757596 48.2755524,62.3661429 C48.280337,62.363338 48.2847228,62.3601324 48.2899061,62.355324 C48.3070508,62.3445052 48.3241955,62.3332857 48.3397453,62.3208641 C48.3425363,62.3192613 48.3441312,62.3160557 48.3473209,62.3148537 C48.3644656,62.3020314 48.3800154,62.2896098 48.3955653,62.2771882 C48.398755,62.2739826 48.4019447,62.2723798 48.4051344,62.2691742 C48.4190894,62.2567526 48.4342405,62.244331 48.4485942,62.2315087 C48.4533788,62.2287038 48.4565685,62.2254983 48.4593595,62.2222927 C48.4721183,62.2098711 48.4860733,62.1974495 48.4984334,62.1846272 C48.503218,62.1802195 48.5076039,62.1754111 48.5123884,62.1706028 C48.5235524,62.159784 48.533919,62.1485645 48.545083,62.1361429 C48.5514624,62.1301324 48.5590379,62.1221185 48.5650186,62.1145052 C48.5733916,62.1048885 48.5809672,62.0972753 48.5889415,62.0860557 C48.5981119,62.0768397 48.6072823,62.0656202 48.6148579,62.0531986 C48.621636,62.0471882 48.6260219,62.040777 48.6308064,62.0343659 C48.6431666,62.0187387 48.6543305,62.0047143 48.6646971,61.9890871 C48.666292,61.9858815 48.6698804,61.9810732 48.6730701,61.9782683 C48.6854302,61.9594355 48.6989865,61.9406028 48.7101505,61.9201672 C48.7117453,61.9201672 48.7117453,61.9201672 48.7117453,61.9185645 L48.7161312,61.912554 C48.7213145,61.9045401 48.7257003,61.8981289 48.72889,61.8905157 L60.5762727,43.1687561 L72.421263,61.8889129 C72.4260476,61.895324 72.4292373,61.9029373 72.435218,61.9109512 L72.4396039,61.9169617 L72.4396039,61.9201672 C72.4539576,61.9422056 72.4679125,61.9626411 72.4834624,61.982676 C72.4878482,61.9890871 72.4914367,61.9954983 72.4962212,62.0015087 C72.5022019,62.0095226 72.5065878,62.0171359 72.5133659,62.0251498 C72.5209415,62.0359686 72.5301119,62.0471882 72.5392823,62.058007 C72.5428707,62.0628153 72.5460605,62.0656202 72.5504463,62.0704286 C72.5644013,62.0876585 72.578755,62.1048885 72.5943048,62.1205157 L72.5943048,62.1221185 C72.6923884,62.2303066 72.8028322,62.3224669 72.922845,62.3945923 C72.9244399,62.3961951 72.9260347,62.3977979 72.9276296,62.3977979 C72.9459704,62.4086167 72.96471,62.4194355 72.9834495,62.4306551 C72.9850444,62.4306551 72.9862405,62.4318571 72.9898289,62.4334599 C73.0069736,62.4430767 73.0241183,62.4522927 73.0428579,62.4603066 C73.0504334,62.4647143 73.0568129,62.4679199 73.0643884,62.4711254 C73.0771473,62.4775366 73.0895074,62.483547 73.1018675,62.4883554 L73.1409415,62.5039826 C73.1501119,62.5087909 73.159681,62.5119965 73.1688514,62.5152021 C73.1796167,62.5196098 73.1907807,62.5244181 73.201546,62.5276237 C73.2063305,62.5292265 73.2123113,62.5320314 73.2170958,62.5336341 C73.2390251,62.5400453 73.2593595,62.5480592 73.28089,62.5540697 C73.2868707,62.5556725 73.2936489,62.5572753 73.3012244,62.5604808 C73.3195653,62.5648885 73.3387035,62.5696969 73.3574431,62.5745052 C73.3666135,62.576108 73.3745878,62.5793136 73.3837582,62.5809164 C73.3945235,62.5821185 73.4036939,62.5837213 73.4148579,62.5869268 C73.4304077,62.5885296 73.4459576,62.5917352 73.4631023,62.5949408 C73.469083,62.5965436 73.4742662,62.5965436 73.4802469,62.5981463 C73.4989865,62.6009512 73.5189222,62.602554 73.5396553,62.6057596 C73.5440412,62.6057596 73.5472309,62.6057596 73.5504206,62.6073624 C73.6002598,62.6121707 73.650099,62.6153763 73.6999383,62.6153763 L118.161314,62.6153763 L118.161314,111.994854 L107.040787,111.994854 Z M89.3478611,111.994854 C89.4288,109.634348 89.4100605,104.827589 89.3713852,94.6550976 C89.3446714,87.5900105 89.2980219,80.5449582 89.2760926,77.5381289 L92.1109479,77.5381289 C98.6945106,77.5381289 104.050433,82.9206899 104.050433,89.5385993 L104.050433,111.994854 L89.3478611,111.994854 Z M86.2873338,77.5397317 C86.3762469,90.0018049 86.4539961,107.166056 86.3575074,111.994854 L71.4910637,111.994854 L71.4910637,89.5385993 C71.4910637,82.9222927 76.8477839,77.5397317 83.4309479,77.5397317 L86.2873338,77.5397317 Z M25.1019061,26.5775017 L57.8538547,26.5775017 L36.9540733,59.608547 L4.2176746,59.608547 L25.1019061,26.5775017 Z M74.5224849,59.608547 L61.8382019,39.5624843 C61.5642855,39.1289303 61.0890186,38.8660732 60.5762727,38.8660732 C60.065919,38.8660732 59.5890572,39.1289303 59.3167357,39.5624843 L46.6324527,59.608547 L40.4978418,59.608547 L60.5762727,27.8749582 L80.655501,59.608547 L74.5224849,59.608547 Z M121.151668,61.0466481 C121.149675,61.0390348 121.149675,61.0310209 121.149675,61.0250105 C121.14808,61.0045749 121.146884,60.9857422 121.145289,60.9653066 C121.143694,60.9544878 121.143694,60.9452718 121.142099,60.9356551 C121.140504,60.9248362 121.139308,60.9152195 121.137713,60.9044007 C121.136118,60.8919791 121.134523,60.8791568 121.13253,60.868338 C121.130935,60.8635296 121.130935,60.8607247 121.130935,60.8559164 C121.126549,60.8278676 121.120568,60.8010209 121.114189,60.7729721 C121.112594,60.7713693 121.112594,60.7681638 121.112594,60.7649582 C121.07671,60.6179024 121.02089,60.4772578 120.945932,60.3502369 L120.945932,60.3486341 C120.938356,60.3362125 120.930382,60.3237909 120.922806,60.3113693 C120.921212,60.3097666 120.921212,60.3081638 120.919617,60.306561 L114.742742,50.5363693 C114.30017,49.8367526 113.374755,49.6283902 112.678999,50.0747666 C111.98125,50.5191394 111.775514,51.4471533 112.218086,52.1483728 L116.935668,59.6101498 L84.1988707,59.6101498 L63.2990894,26.5775017 L69.9958868,26.5775017 C70.8216232,26.5775017 71.4910637,25.904331 71.4910637,25.0748885 C71.4910637,24.245446 70.8216232,23.5722753 69.9958868,23.5722753 L24.2813531,23.5722753 C23.7690058,23.5722753 23.2937389,23.8351324 23.0198225,24.2686864 L0.233726045,60.306561 C0.23213119,60.3081638 0.23213119,60.3097666 0.230536334,60.3113693 C0.222562058,60.3237909 0.214986495,60.3362125 0.207410932,60.3486341 L0.207410932,60.3502369 C0.132452733,60.4772578 0.0766327974,60.6179024 0.0403498392,60.7649582 C0.0403498392,60.7681638 0.0387549839,60.7713693 0.0387549839,60.7729721 C0.0327742765,60.7994181 0.0267935691,60.8278676 0.0216102894,60.8559164 C0.0216102894,60.8607247 0.0204141479,60.8635296 0.0204141479,60.868338 C0.0188192926,60.8791568 0.0172244373,60.8919791 0.0140347267,60.9044007 C0.0140347267,60.9152195 0.0112437299,60.926439 0.0112437299,60.9356551 C0.0096488746,60.9452718 0.00765530547,60.9560906 0.00606045016,60.9653066 C0.00486430868,60.9857422 0.00326945338,61.0045749 0.00326945338,61.0250105 C0.00167459807,61.0310209 0.00167459807,61.0390348 0.00167459807,61.0466481 C0.00167459807,61.0654808 7.97427653e-05,61.0859164 7.97427653e-05,61.1047491 L7.97427653e-05,113.497467 C7.97427653e-05,114.326909 0.669520257,115.00008 1.49525659,115.00008 L119.656491,115.00008 C120.483025,115.00008 121.151668,114.326909 121.151668,113.497467 L121.151668,61.1111603 L121.151668,61.1047491 L121.151668,61.0466481 Z" id="Fill-1" fill="#ABABAB" mask="url(#mask-2)"></path>
                    </g>
                    <path d="M91,36 L91,34.0331873 C93.5837654,32.6963632 95.3963775,30.1003421 95.3963775,27.1493429 C95.3963775,26.2061153 95.3569978,25.4197023 95.2033023,24.3961171 L91.2320725,24.3961171 L91.2320725,21.9190722 L94.8171521,21.9190722 C94.624077,20.7386725 94.3935339,19.204465 94.3935339,17.6706475 C94.3935339,13.0282362 97.5167626,10 101.795383,10 C103.799924,10 105.188535,10.4723939 105.997156,10.9830163 L105.226385,13.5790374 C104.532844,13.1866111 103.415303,12.7926244 101.795383,12.7926244 C98.7879997,12.7926244 97.554613,14.9178119 97.554613,17.708876 C97.554613,19.4014583 97.7866855,20.6602653 98.0172286,21.9190722 L103.568998,21.9190722 L103.568998,24.3961171 L98.3250018,24.3961171 C98.4412292,25.8901458 98.5180769,27.3861249 98.1713064,28.8017464 C97.7473058,30.4927684 96.8216923,31.9083898 95.5110755,33.050171 L95.5110755,33.1285783 L107,33.1285783 L107,36 L91,36 Z" id="Fill-4" fill="#B49464"></path>
                </g>
            </g>
        </g>
    </g>
</svg>