<?xml version="1.0" encoding="UTF-8"?>
<svg width="41px" height="42px" viewBox="0 0 41 42" version="1.1" xmlns="http://www.w3.org/2000/svg" xmlns:xlink="http://www.w3.org/1999/xlink">
    <!-- Generator: Sketch 60.1 (88133) - https://sketch.com -->
    <title>Bio_linkedin_icon</title>
    <desc>Created with Sketch.</desc>
    <g id="Home" stroke="none" stroke-width="1" fill="none" fill-rule="evenodd">
        <g id="Home-gold" transform="translate(-177.000000, -3961.000000)">
            <g id="Bio2" transform="translate(174.000000, 3214.000000)">
                <g id="SOCIAL-and-Read" transform="translate(4.000000, 748.000000)">
                    <g id="Bio_linkedin_icon">
                        <path d="M19.5,0 C8.73211523,0 0,8.95601563 0,20 C0,31.0439844 8.73211523,40 19.5,40 C30.2678848,40 39,31.0439844 39,20 C39,8.95601563 30.2678848,0 19.5,0 L19.5,0 Z" id="Fill-1" stroke="#326598" stroke-width="2"></path>
                        <path d="M30.9579258,30.234375 L26.2093711,30.234375 L26.2093711,22.3946875 C26.2093711,20.4245313 25.5217676,19.0807813 23.8034063,19.0807813 C22.4915742,19.0807813 21.7102031,19.9871875 21.3668203,20.8621094 C21.2412129,21.1752344 21.2105918,21.6128906 21.2105918,22.0507813 L21.2105918,30.234375 L16.4617324,30.234375 C16.4617324,30.234375 16.5239648,16.9549219 16.4617324,15.5801563 L21.2105918,15.5801563 L21.2105918,17.655 C21.8416758,16.6564844 22.9709238,15.2361719 25.4905371,15.2361719 C28.6150312,15.2361719 30.9579258,17.330625 30.9579258,21.8316406 L30.9579258,30.234375 Z" id="Path" fill="#326598"></path>
                        <path d="M11.4591445,13.5791406 L11.4281426,13.5791406 C9.83455078,13.5791406 8.80379297,12.4539063 8.80379297,11.0476563 C8.80379297,9.6096875 9.86608594,8.515625 11.4906797,8.515625 C13.1152734,8.515625 14.1150293,9.6096875 14.1459551,11.0476563 C14.1459551,12.4539063 13.1152734,13.5791406 11.4591445,13.5791406 L11.4591445,13.5791406 Z" id="Path" fill="#326598"></path>
                        <polygon id="Path" fill="#326598" points="9.08441016 30.234375 13.8335742 30.234375 13.8335742 15.5801563 9.08441016 15.5801563"></polygon>
                    </g>
                </g>
            </g>
        </g>
    </g>
</svg>