<?xml version="1.0" encoding="UTF-8"?>
<svg width="41px" height="42px" viewBox="0 0 41 42" version="1.1" xmlns="http://www.w3.org/2000/svg" xmlns:xlink="http://www.w3.org/1999/xlink">
    <!-- Generator: Sketch 60.1 (88133) - https://sketch.com -->
    <title>Bio_email_icon</title>
    <desc>Created with Sketch.</desc>
    <defs>
        <polygon id="path-1" points="0 0 24 0 24 18 0 18"></polygon>
    </defs>
    <g id="Home" stroke="none" stroke-width="1" fill="none" fill-rule="evenodd">
        <g id="Home-gold" transform="translate(-228.000000, -3963.000000)">
            <g id="Bio2" transform="translate(174.000000, 3214.000000)">
                <g id="SOCIAL-and-Read" transform="translate(4.000000, 748.000000)">
                    <g id="Bio_email_icon" transform="translate(51.000000, 2.000000)">
                        <path d="M19.5,0 C8.73211523,0 0,8.95601562 0,20 C0,31.0439844 8.73211523,40 19.5,40 C30.2678848,40 39,31.0439844 39,20 C39,8.95601562 30.2678848,0 19.5,0 L19.5,0 Z" id="Path" stroke="#326598" stroke-width="2"></path>
                        <g id="Group-3-Copy-15" transform="translate(8.000000, 11.000000)">
                            <mask id="mask-2" fill="white">
                                <use xlink:href="#path-1"></use>
                            </mask>
                            <g id="Clip-2"></g>
                            <path d="M22.5000156,15.1450348 L22.5000156,2.80765275 C20.1032534,5.00060273 17.6144056,7.27425595 15.7683639,8.95434517 C17.6087503,10.5583319 20.0618223,12.8313062 22.5000156,15.1450322 Z M21.0220519,16.5000156 C18.5430727,14.1493437 16.0744063,11.865435 14.2773181,10.3085695 C14.0611491,10.5043838 13.8805949,10.6676048 13.7300448,10.8032652 C13.2290324,11.2555513 12.6284656,11.5000156 12,11.5000156 C11.3714294,11.5000156 10.7708854,11.2554778 10.2697845,10.8031075 C10.1183821,10.6666848 9.93679424,10.502536 9.72269409,10.308595 C7.9259987,11.8652918 5.45947052,14.147211 2.97803502,16.5000156 L21.0220519,16.5000156 Z M1.49998417,15.1451539 C3.94260928,12.8274013 6.39192832,10.5578799 8.23170786,8.95430884 C6.38293842,7.27169089 3.87600409,4.98159755 1.49998437,2.80771944 L1.49998438,15.1451537 Z M3.03310769,1.49998437 C4.29321995,2.65267924 5.52339783,3.77717684 6.76590658,4.91160775 C9.01987516,6.96951811 10.7120026,8.50969746 11.608588,9.31745895 C11.737221,9.43332424 11.8732626,9.49998438 12.0000469,9.49998438 C12.1267971,9.49998438 12.2628423,9.43335253 12.3909402,9.31797276 C13.8569568,7.99711101 17.2250667,4.92317968 20.9666653,1.49998438 L3.03310769,1.49998438 Z M21.9999844,-0.5 C23.3791892,-0.5 24.5,0.62081075 24.5,2.00001563 L24.5,15.9999844 C24.5,17.3791802 23.3791983,18.5 22.0000312,18.5 L2.00001563,18.5 C0.620819818,18.5 -0.5,17.3791983 -0.5,16.0000312 L-0.5,2.00001563 C-0.5,0.62081075 0.62081075,-0.5 2.00001563,-0.5 L21.9999844,-0.5 Z" id="Fill-1" stroke="#326598" fill="#326598" mask="url(#mask-2)"></path>
                        </g>
                    </g>
                </g>
            </g>
        </g>
    </g>
</svg>