<?xml version="1.0" encoding="UTF-8"?>
<svg width="136px" height="133px" viewBox="0 0 136 133" version="1.1" xmlns="http://www.w3.org/2000/svg" xmlns:xlink="http://www.w3.org/1999/xlink">
    <!-- Generator: Sketch 60.1 (88133) - https://sketch.com -->
    <title>Broker_Icon2</title>
    <desc>Created with Sketch.</desc>
    <defs>
        <polygon id="path-1" points="0 0 136 0 136 133 0 133"></polygon>
    </defs>
    <g id="What-we-do" stroke="none" stroke-width="1" fill="none" fill-rule="evenodd">
        <g id="What-we-do---Broker" transform="translate(-331.000000, -2101.000000)">
            <g id="Broker_Icon2" transform="translate(331.000000, 2101.000000)">
                <mask id="mask-2" fill="white">
                    <use xlink:href="#path-1"></use>
                </mask>
                <g id="Clip-2"></g>
                <path d="M41.1693285,22.5651761 L133.108893,22.5651761 L133.108893,2.91276884 L41.1693285,2.91276884 L41.1693285,22.5651761 Z M133.108893,25.4771975 L41.1685864,25.4771975 L41.1685864,30.6995521 C42.522865,30.4304741 43.8934692,30.212222 45.2952404,30.0462906 C47.2691479,29.8115949 49.2668016,29.6957418 51.2830071,29.6957418 C58.4031734,29.6957418 65.1938605,31.164459 71.3626924,33.8141294 C77.5849534,36.4839806 83.1668076,40.3489865 87.8292365,45.1296048 L133.108893,45.1296048 L133.108893,25.4771975 Z M133.108893,48.0423736 L90.4702653,48.0423736 C92.6282063,50.6105732 94.5338433,53.3977723 96.1686246,56.3606195 C98.1195279,59.9102062 99.668229,63.7042053 100.744973,67.6880539 L133.108893,67.6880539 L133.108893,48.0423736 Z M133.108893,70.6068023 L101.449198,70.6068023 C101.756415,72.0568334 101.995362,73.5315301 102.177911,75.021923 C102.43541,77.096813 102.566014,79.2120647 102.566014,81.3497395 C102.566014,83.1338758 102.476224,84.9217493 102.286996,86.7118652 C102.162328,87.9025351 101.995362,89.0842358 101.797229,90.2554723 L133.108893,90.2554723 L133.108893,70.6068023 Z M133.108893,93.1674937 L101.204315,93.1674937 C100.294537,97.0870626 98.9454524,100.836215 97.2082654,104.34544 C95.7248665,107.344912 93.9661594,110.18219 91.9499539,112.813921 L133.108893,112.813921 L133.108893,93.1674937 Z M87.7557715,113.375995 L87.760966,113.364036 L87.7728391,113.352077 L87.7780336,113.347593 L87.7951012,113.329654 L87.8077164,113.317695 L87.8181054,113.307231 L87.8181054,113.295272 L87.8633717,113.248183 L87.9041856,113.203337 L87.9442574,113.157743 L87.9880396,113.105423 L88.0281114,113.060576 L88.0622466,113.013488 L88.0689253,113.013488 L88.108255,112.963409 L88.1490689,112.917068 C90.6810134,109.913859 92.8619585,106.604948 94.6206656,103.045644 C97.1986184,97.8330064 98.8215266,92.1988131 99.4114726,86.4121422 C99.5843751,84.7745039 99.668229,83.0815551 99.668229,81.3497395 C99.668229,79.3219382 99.5443032,77.3247818 99.3090669,75.3717243 C99.0656678,73.3999809 98.7124422,71.4626196 98.2441958,69.5753368 C98.2286123,69.5245109 98.2226757,69.4781697 98.2108026,69.4318285 C97.1808087,65.3037243 95.6321076,61.3878926 93.6403905,57.770289 C91.6204746,54.085416 89.1263757,50.685317 86.2530788,47.6581901 C86.2070704,47.6170809 86.16032,47.5729821 86.1224744,47.5266409 C81.6485314,42.8484217 76.2521948,39.0701187 70.2354873,36.4899602 C64.4183968,33.995757 58.0158126,32.6085107 51.2830071,32.6085107 C49.3588184,32.6085107 47.4635703,32.7243637 45.6239776,32.9426158 C43.7406027,33.1586256 41.8854265,33.4927307 40.058449,33.9337196 L40.0124406,33.9456786 C31.1788335,36.0669098 23.2780091,40.6300234 17.0631688,46.8853384 C8.30896323,55.7013785 2.89110661,67.8906098 2.89110661,81.3460023 C2.89110661,94.8058795 8.30896323,106.994363 17.0631688,115.811151 C25.8225688,124.628686 37.9183177,130.087979 51.2830071,130.087979 C64.64176,130.087979 76.7352827,124.628686 85.4961669,115.811151 C86.2753409,115.02634 87.0263162,114.213127 87.7557715,113.375995 L87.7557715,113.375995 Z M66.3485221,118.029549 C71.1816272,116.017444 75.5227395,113.07104 79.1433014,109.419802 C82.7757365,105.761089 85.7009783,101.387078 87.7045686,96.5264835 C89.6287574,91.8430322 90.6928865,86.7118652 90.6928865,81.3460023 C90.6928865,75.9786446 89.6287574,70.853457 87.7045686,66.1692583 C85.7009783,61.3071692 82.7757365,56.9346525 79.1433014,53.2819193 C75.5227395,49.623954 71.1816272,46.676803 66.3485221,44.6646978 C61.6979664,42.722852 56.6103311,41.6487825 51.2830071,41.6487825 C45.954199,41.6487825 40.859143,42.722852 36.2152659,44.6646978 C31.3843871,46.676803 27.0410485,49.623954 23.4152921,53.2819193 C19.7902778,56.9346525 16.8590994,61.3071692 14.8607035,66.1692583 C12.9365148,70.853457 11.8731278,75.9786446 11.8731278,81.3460023 C11.8731278,86.7118652 12.9365148,91.8430322 14.8607035,96.5264835 C16.8590994,101.387078 19.7902778,105.761089 23.4152921,109.419802 C27.0410485,113.07104 31.3843871,116.017444 36.2152659,118.029549 C40.859143,119.969153 45.954199,121.04098 51.2830071,121.04098 C56.6103311,121.04098 61.6979664,119.969153 66.3485221,118.029549 L66.3485221,118.029549 Z M51.2830071,118.122232 C56.2341014,118.122232 60.9588642,117.135612 65.2502578,115.341759 C69.7115856,113.485121 73.7313814,110.754728 77.1011235,107.355376 C80.4701235,103.955277 83.1846173,99.9086439 85.034599,95.4202741 C86.8111158,91.0903614 87.7951012,86.3396407 87.7951012,81.3460023 C87.7951012,76.3568486 86.8111158,71.6038856 85.034599,67.2762151 C83.1846173,62.7878454 80.4701235,58.734485 77.1011235,55.3411131 C73.7313814,51.9454988 69.7115856,49.2113678 65.2502578,47.348003 C60.9588642,45.5601295 56.2341014,44.5735103 51.2830071,44.5735103 C46.3311708,44.5735103 41.6123446,45.5601295 37.3098199,47.348003 C32.8514604,49.2113678 28.8338908,51.9454988 25.4582122,55.3411131 C22.0892122,58.734485 19.3806549,62.7878454 17.529189,67.2762151 C15.7489619,71.6038856 14.7686868,76.3568486 14.7686868,81.3460023 C14.7686868,86.3396407 15.7489619,91.0903614 17.529189,95.4202741 C19.3806549,99.9086439 22.0892122,103.955277 25.4582122,107.355376 C28.8338908,110.754728 32.8514604,113.485121 37.3098199,115.341759 C41.6123446,117.135612 46.3252342,118.122232 51.2830071,118.122232 L51.2830071,118.122232 Z M39.7274855,0 L134.554447,0 C135.349204,0 136,0.653261474 136,1.46199021 L136,24.0211868 L136,46.5856155 L136,69.144812 L136,91.711483 L136,114.275164 C136,115.078661 135.349204,115.731922 134.554447,115.731922 L89.5486138,115.731922 C88.9000442,116.466655 88.2329228,117.175974 87.5442814,117.870345 C78.2617217,127.219309 65.4372596,133 51.2830071,133 C37.1205919,133 24.298356,127.219309 15.0195066,117.870345 C5.73620486,108.526613 0,95.6146082 0,81.3460023 C0,67.0878606 5.73620486,54.1698765 15.0195066,44.8261446 C21.3545624,38.4392804 29.3399829,33.7266791 38.2774798,31.3707521 L38.2774798,24.0211868 L38.2774798,1.46199021 C38.2774798,0.653261474 38.9260494,0 39.7274855,0 L39.7274855,0 Z" id="Fill-1" fill="#747474" mask="url(#mask-2)"></path>
                <path d="M37,99 L37,95.9743561 C40.8752346,93.9176066 43.5950487,89.9238165 43.5950487,85.3831061 C43.5950487,83.9323831 43.5357047,82.7225745 43.3047636,81.1484017 L37.3481991,81.1484017 L37.3481991,77.3371678 L42.7263384,77.3371678 C42.4367683,75.5213325 42.0899991,73.1608215 42.0899991,70.8010587 C42.0899991,63.658923 46.775315,59 53.1930467,59 C56.200286,59 58.2837608,59.7264837 59.4956654,60.512822 L58.3402449,64.5058639 C57.2992225,63.90283 55.6232907,63.2968034 53.1930467,63.2968034 C48.6821879,63.2968034 46.8317991,66.5656061 46.8317991,70.860165 C46.8317991,73.4638348 47.1799982,75.4008754 47.5267674,77.3371678 L55.8535168,77.3371678 L55.8535168,81.1484017 L47.9879346,81.1484017 C48.1616766,83.4468137 48.2767897,85.7482184 47.7569935,87.9254251 C47.1213692,90.5275985 45.7321476,92.7048052 43.7666458,94.4622823 L43.7666458,94.5827395 L61,94.5827395 L61,99 L37,99 Z" id="Fill-3" fill="#B49464" mask="url(#mask-2)"></path>
            </g>
        </g>
    </g>
</svg>