<?xml version="1.0" encoding="UTF-8"?>
<svg width="134px" height="126px" viewBox="0 0 134 126" version="1.1" xmlns="http://www.w3.org/2000/svg" xmlns:xlink="http://www.w3.org/1999/xlink">
    <!-- Generator: Sketch 60.1 (88133) - https://sketch.com -->
    <title>Broker_icon4</title>
    <desc>Created with Sketch.</desc>
    <defs>
        <polygon id="path-1" points="6.80203046e-05 0.42372618 133.893888 0.42372618 133.893888 88.2190247 6.80203046e-05 88.2190247"></polygon>
    </defs>
    <g id="What-we-do" stroke="none" stroke-width="1" fill="none" fill-rule="evenodd">
        <g id="What-we-do---Broker" transform="translate(-1454.000000, -2107.000000)">
            <g id="Broker_icon4" transform="translate(1454.000000, 2107.000000)">
                <path d="M67.5003383,55.8139408 C53.2086062,55.8139408 41.5829138,44.188115 41.5829138,29.8968957 C41.5829138,15.606353 53.2086062,3.97985053 67.5003383,3.97985053 C81.7907171,3.97985053 93.4170862,15.606353 93.4170862,29.8968957 C93.4170862,44.188115 81.7907171,55.8139408 67.5003383,55.8139408 M67.5003383,0.396895671 C51.2327595,0.396895671 38,13.6298069 38,29.8968957 C38,46.1639844 51.2347895,59.3968957 67.5003383,59.3968957 C83.7665638,59.3968957 97,46.1639844 97,29.8968957 C97,13.6318369 83.7665638,0.396895671 67.5003383,0.396895671" id="Fill-1" fill="#747474"></path>
                <g id="Group-5" transform="translate(0.000000, 37.396896)">
                    <mask id="mask-2" fill="white">
                        <use xlink:href="#path-1"></use>
                    </mask>
                    <g id="Clip-4"></g>
                    <path d="M130.879977,76.3340388 L94.3585147,48.575734 L130.879977,20.8181131 L130.879977,76.3340388 Z M129.111449,83.4155181 C128.021083,84.5117626 126.517835,85.1894783 124.86222,85.1894783 L9.03384467,85.1894783 C7.36938782,85.1894783 5.86613909,84.5179174 4.78393604,83.4155181 L4.77169239,83.4155181 C3.89627107,82.5299058 3.28680914,81.3686936 3.08410863,80.0707073 L42.0284538,50.4741586 L66.0396213,68.7232437 C66.594667,69.1445079 67.3469716,69.1198886 67.8686873,68.710934 L91.8655706,50.4741586 L130.809236,80.0707073 C130.609256,81.3686936 129.999114,82.5299058 129.111449,83.4155181 L129.111449,83.4155181 Z M3.01336751,20.8181131 L39.5375503,48.575734 L3.01336751,76.3340388 L3.01336751,20.8181131 Z M131.241164,3.09629221 L131.235043,3.0894535 C129.602555,1.44816423 127.34088,0.42372618 124.86222,0.42372618 L98.2683218,0.42372618 C97.9833168,1.4536352 97.6520579,2.46439584 97.2752254,3.45258875 L124.86222,3.45258875 C126.517835,3.45258875 128.021083,4.13098832 129.111449,5.22654891 L129.122332,5.23338761 C130.205895,6.32689659 130.879977,7.84508916 130.879977,9.51236551 L130.879977,17.0281026 L90.9901492,47.350238 L90.9486569,47.3796444 L66.9436112,65.625994 L42.9535299,47.3851154 L42.8991137,47.3433993 L3.01336751,17.0281026 L3.01336751,9.51236551 C3.01336751,7.84508916 3.68812893,6.32689659 4.78393604,5.23338761 C5.87294112,4.13714315 7.37618985,3.45258875 9.03384467,3.45258875 L36.4725553,3.45258875 C36.0950426,2.46439584 35.764464,1.4536352 35.4801391,0.42372618 L9.03384467,0.42372618 C6.54634213,0.42372618 4.28738782,1.44816423 2.6521797,3.0894535 C1.01289036,4.73758148 6.80203046e-05,7.00529615 6.80203046e-05,9.51236551 L6.80203046e-05,79.1365402 C6.80203046e-05,81.6312999 1.01289036,83.9044855 2.6521797,85.5526135 L2.65830152,85.5526135 L2.67122538,85.5697103 C4.31051472,87.2007415 6.56538782,88.2190247 9.03384467,88.2190247 L124.86222,88.2190247 C127.347682,88.2190247 129.608677,87.2007415 131.241164,85.5526135 C132.877053,83.9113242 133.893956,81.6367709 133.893956,79.1365402 L133.893956,9.51236551 C133.893956,7.01145099 132.877053,4.73758148 131.241164,3.09629221 L131.241164,3.09629221 Z" id="Fill-3" fill="#747474" mask="url(#mask-2)"></path>
                </g>
                <path d="M56,43.3968957 L56,41.0525082 C59.0677013,39.4581596 61.2205331,36.3630451 61.2205331,32.8440556 C61.2205331,31.7189973 61.1741851,30.7817928 60.9914799,29.5617755 L56.276073,29.5617755 L56.276073,26.6084115 L60.5327017,26.6084115 C60.3036484,25.2005404 60.0295906,23.3715466 60.0295906,21.5425528 C60.0295906,16.0074038 63.7387754,12.3968957 68.8195927,12.3968957 C71.1994626,12.3968957 72.8491833,12.9597689 73.8090575,13.5687454 L72.8935162,16.6638598 C72.0699993,16.1966337 70.7426996,15.7266553 68.8195927,15.7266553 C65.2487803,15.7266553 63.78378,18.2602727 63.78378,21.5886561 C63.78378,23.6061918 64.0591812,25.1069576 64.3332391,26.6084115 L70.9260765,26.6084115 L70.9260765,29.5617755 L64.6986495,29.5617755 C64.8363501,31.3432898 64.9277028,33.1268684 64.5159443,34.8141117 C64.0128332,36.8309593 62.9132433,38.5188907 61.3568903,39.8799704 L61.3568903,39.9735532 L75,39.9735532 L75,43.3968957 L56,43.3968957 Z" id="Fill-6" fill="#B49464"></path>
            </g>
        </g>
    </g>
</svg>