<?xml version="1.0" encoding="UTF-8"?>
<svg width="133px" height="125px" viewBox="0 0 133 125" version="1.1" xmlns="http://www.w3.org/2000/svg" xmlns:xlink="http://www.w3.org/1999/xlink">
    <!-- Generator: Sketch 60.1 (88133) - https://sketch.com -->
    <title>Broker_Icon1</title>
    <desc>Created with Sketch.</desc>
    <defs>
        <polygon id="path-1" points="8.94618834e-05 0.247165254 132.860439 0.247165254 132.860439 69.7567203 8.94618834e-05 69.7567203"></polygon>
    </defs>
    <g id="What-we-do" stroke="none" stroke-width="1" fill="none" fill-rule="evenodd">
        <g id="What-we-do---Broker" transform="translate(-172.000000, -856.000000)">
            <g id="Broker_Icon1" transform="translate(172.000000, 856.000000)">
                <g id="Group-3" transform="translate(0.000000, 23.000000)">
                    <mask id="mask-2" fill="white">
                        <use xlink:href="#path-1"></use>
                    </mask>
                    <g id="Clip-2"></g>
                    <path d="M116.286224,48.0507881 L84.7977285,16.7311271 L98.2402711,3.3605339 L129.728767,34.6807881 L116.286224,48.0507881 Z M104.198134,52.8570593 C104.123583,52.9306186 104.057977,53.0118898 104.000722,53.0996864 L95.6479639,65.9262966 L67.6553406,38.0835 C67.3753249,37.8052797 66.9969011,37.6492627 66.6008832,37.6492627 C66.2048652,37.6492627 65.8261433,37.8052797 65.5464258,38.0835 L53.332493,50.2320593 C52.5833989,50.9765508 51.5504123,51.3461271 50.4947621,51.2435 C49.4253944,51.1408729 48.4961836,50.5820593 47.8791948,49.6714661 C46.95565,48.3064661 47.1730424,46.4318898 48.3977756,45.2140085 L62.0806724,31.6049407 C62.8005424,30.8889237 63.7577845,30.4944322 64.7764572,30.4944322 L75.7826545,30.4944322 C76.178076,30.4944322 76.5570962,30.3384153 76.8371119,30.0601949 L85.4087531,21.5344322 L110.548735,46.5398559 L104.198134,52.8570593 Z M3.13125538,36.4812119 L34.6194527,5.16095763 L48.0619953,18.5315508 L16.573798,49.8518051 L3.13125538,36.4812119 Z M132.091157,32.8364661 L100.09422,1.01019492 C99.0716702,-0.0071779661 97.4076791,-0.0071779661 96.3857262,1.01019492 L82.4347419,14.8862119 C81.9391231,15.379178 81.6659661,16.0340932 81.6659661,16.7311271 C81.6659661,17.4275678 81.9385267,18.0824831 82.4341455,18.5754492 L83.3004348,19.4368051 L75.1650693,27.5283305 L64.7770536,27.5283305 C62.9615738,27.5283305 61.2552374,28.2312966 59.9720558,29.5079068 L59.904363,29.5755339 L55.0254101,27.6659576 L49.0606881,21.7319746 L50.4249818,20.3752797 C50.9206007,19.8829068 51.1931612,19.2273983 51.1931612,18.5309576 C51.1931612,17.8339237 50.9200043,17.1790085 50.4249818,16.6866356 L36.4734011,2.81061864 C35.4514482,1.79324576 33.7874572,1.79324576 32.7652061,2.81061864 L0.768268834,34.6368898 C0.27265,35.1292627 8.94618834e-05,35.7847712 8.94618834e-05,36.4812119 C8.94618834e-05,37.1776525 0.273246413,37.833161 0.768268834,38.3255339 L14.7192531,52.2021441 C15.2142756,52.6951102 15.8733114,52.9662119 16.573798,52.9662119 C17.2739863,52.9662119 17.9330222,52.6945169 18.4280446,52.2021441 L19.7646052,50.8727373 L27.633076,58.6996864 L29.6250939,62.2364661 C29.8982509,62.7217203 30.4052016,62.9946017 30.927659,62.9946017 C31.1745738,62.9946017 31.4244706,62.9335 31.6549841,62.8053644 C32.3736612,62.4049407 32.6298204,61.5008729 32.2272419,60.7866356 L30.1344303,57.0712966 C30.0676321,56.9526525 29.9847307,56.8440932 29.8872173,56.7479915 L21.8729235,48.7762966 L46.9526679,23.8307881 L53.1371679,29.9824831 C53.2823944,30.1266356 53.455354,30.2393475 53.6453114,30.3140932 L57.6051926,31.864178 L46.2897554,43.1187542 C44.0594706,45.3373983 43.6879056,48.7905339 45.4064684,51.3295169 C46.5134101,52.9650254 48.2641791,54.0108729 50.2084841,54.1977373 C52.1533854,54.382822 54.0613092,53.704178 55.4420043,52.3314661 L66.6014796,41.2317203 L94.8434034,69.3224831 C95.1243137,69.6024831 95.5042285,69.7567203 95.8978608,69.7567203 C95.9497487,69.7567203 96.0019348,69.7543475 96.0544191,69.7484153 C96.5017285,69.7009576 96.9046052,69.4553644 97.1491343,69.0798559 L106.418578,54.8461271 L112.658246,48.6392627 L114.432574,50.4040932 C114.927298,50.8970593 115.586334,51.168161 116.28682,51.168161 C116.987009,51.168161 117.646045,50.8964661 118.141067,50.4040932 L132.09235,36.5274831 C132.587968,36.0351102 132.860529,35.3796017 132.860529,34.683161 C132.860529,33.9867203 132.586776,33.328839 132.091157,32.8364661 L132.091157,32.8364661 Z" id="Fill-1" fill="#747474" mask="url(#mask-2)"></path>
                </g>
                <path d="M61.0032652,116.636773 L56.5794167,121.031548 C55.22858,122.373326 53.0291828,122.374215 51.6777495,121.031548 C50.326018,119.688881 50.326018,117.504826 51.6777495,116.162455 L56.1021946,111.76768 C56.7780603,111.097235 57.6659916,110.761272 58.5527299,110.761272 C59.4397664,110.761272 60.327996,111.096643 61.0032652,111.76768 C61.657656,112.418571 62.0185551,113.283069 62.0185551,114.202671 C62.0179586,115.122273 61.657656,115.986771 61.0032652,116.636773 M43.5285862,115.198117 C42.8741955,114.547226 42.5132963,113.682728 42.5132963,112.764015 C42.5132963,111.845005 42.8735989,110.979619 43.5285862,110.329912 L51.9608019,101.954539 C52.6154909,101.304536 53.4858246,100.946057 54.4110389,100.946057 C55.3362532,100.946057 56.2071834,101.303944 56.8615742,101.954539 C57.5162632,102.604541 57.8771624,103.469039 57.8771624,104.388641 C57.8771624,105.308243 57.5168598,106.172741 56.8615742,106.823336 L48.4296568,115.198709 C47.0791184,116.540191 44.8803177,116.539599 43.5285862,115.198117 M36.5175976,108.234143 C35.8632068,107.583252 35.5029041,106.718755 35.5029041,105.800041 C35.5029041,104.881031 35.8632068,104.015941 36.5175976,103.365939 L47.2255659,92.7300734 C47.9011334,92.05874 48.7887664,91.7233695 49.6763995,91.7233695 C50.5640325,91.7233695 51.4519638,92.05874 52.1269348,92.7300734 C53.4786663,94.0727403 53.4786663,96.256796 52.1269348,97.5988704 L41.4192647,108.234736 C40.7645757,108.884738 39.8942419,109.243217 38.9681329,109.243217 C38.0432169,109.242032 37.1728831,108.884146 36.5175976,108.234143 M29.983831,97.351194 C29.983831,96.4315916 30.3441336,95.5670942 30.9991209,94.9164992 L35.9813193,89.9677111 C36.657185,89.2963776 37.5451163,88.9607109 38.4318546,88.9607109 C39.3188911,88.9607109 40.2071207,89.2963776 40.8823899,89.9677111 C42.2335249,91.310378 42.2335249,93.4944337 40.8823899,94.836508 L35.9001915,99.7852962 C34.5487583,101.127371 32.3505541,101.127371 30.9985244,99.7852962 C30.3441336,99.1352937 29.983831,98.2707964 29.983831,97.351194 M59.7923142,107.919511 C60.4863741,106.880515 60.8598003,105.663167 60.8598003,104.388048 C60.8598003,102.67683 60.1887068,101.06871 58.9705975,99.8587696 C57.9699225,98.8651013 56.7190041,98.273759 55.418574,98.0705221 C56.6504034,95.6648612 56.2584848,92.6435644 54.2359581,90.6334155 C51.721296,88.1356166 47.6303099,88.1362091 45.1159461,90.6334155 L44.7210449,91.0259649 C44.4666259,89.8699441 43.8936611,88.7702133 42.9905184,87.873127 C40.4761546,85.3756243 36.385765,85.3756243 33.8714012,87.873127 L28.8892029,92.8219152 C27.6710935,94.0318559 27,95.6399751 27,97.351194 C27,99.0624129 27.6710935,100.670532 28.8892029,101.880473 C30.000832,102.984351 31.4196729,103.59821 32.8746036,103.726195 C32.1062761,105.965949 32.612728,108.545516 34.4076795,110.328727 C35.6257888,111.538668 37.2447647,112.205261 38.9675363,112.205261 C39.1673731,112.205261 39.3648237,112.194003 39.5610813,112.176524 C39.3928605,114.006544 40.0114596,115.895521 41.4186682,117.293293 C42.6755518,118.541748 44.3267401,119.166272 45.978525,119.166272 C46.5577533,119.166272 47.1357885,119.085096 47.6980158,118.931631 C47.7770557,120.458278 48.3956548,121.963001 49.5672349,123.127317 C50.8241186,124.375772 52.4753069,125 54.1270918,125 C55.7788766,125 57.4303633,124.375772 58.6869486,123.127317 L63.1113937,118.732542 C64.329503,117.522305 65,115.914482 65,114.203263 C65,112.492045 64.3289065,110.883333 63.1107971,109.673985 C62.1712662,108.738977 61.009827,108.154152 59.7923142,107.919511" id="Fill-4" fill="#747474"></path>
                <path d="M103.101879,95.4385394 C102.515086,94.8528204 101.563725,94.8540218 100.978133,95.4409423 C100.392542,96.0284635 100.393443,96.9794309 100.980536,97.5651499 C101.056212,97.6408428 101.13279,97.7243453 101.223782,97.8414891 C101.691054,98.4193985 101.963729,99.1342761 101.991958,99.8767875 C102.043009,100.84818 101.674237,101.803953 100.975731,102.50201 C100.322871,103.159818 99.447787,103.522062 98.5126421,103.522062 C97.5774972,103.522062 96.7021126,103.159818 96.045349,102.498406 L90.3729173,96.8250414 C89.7864246,96.2387216 88.8362645,96.2387216 88.2494716,96.8250414 C87.6632793,97.4113611 87.6632793,98.3623285 88.2494716,98.9492489 L92.3720373,103.07211 C92.3723376,103.072711 92.3729382,103.073912 92.3735388,103.074513 C93.0327048,103.733522 93.396072,104.609998 93.396072,105.541742 C93.396072,106.474086 93.0333055,107.349961 92.3774427,108.005967 C91.7104688,108.66858 90.8332824,109.033228 89.9071466,109.033228 C88.9894193,109.033228 88.1194402,108.678192 87.4842984,108.060634 C87.4797939,108.056428 82.5154777,103.083524 82.5154777,103.083524 C81.9310872,102.495402 80.9803265,102.492999 80.3923323,103.078117 C79.8043382,103.663236 79.8019358,104.614203 80.3866266,105.201724 L84.4596422,109.280731 L84.4608434,109.281933 C85.821218,110.643204 85.821218,112.857522 84.4608434,114.218192 C83.1004688,115.578262 80.8863315,115.579463 79.525056,114.217592 L75.2229089,109.917513 C74.6361159,109.331193 73.6859559,109.331794 73.0991629,109.918114 C72.5129706,110.505034 72.5135712,111.456002 73.0997635,112.042321 L73.6144836,112.557153 L73.6159851,112.558956 L76.0973925,115.040602 C77.4574668,116.401873 77.4574668,118.616191 76.0973925,119.976861 C74.7370179,121.337532 72.5231809,121.338132 71.1622057,119.976861 L69.5630899,118.378299 C68.9765973,117.791979 68.0264372,117.791979 67.4396442,118.378299 C66.8534519,118.96522 66.8534519,119.915586 67.4396442,120.502507 L69.0381595,122.101069 C70.3039385,123.366522 71.966118,124 73.6291985,124 C75.2925793,124 76.9550591,123.366522 78.2208381,122.101069 C79.3722015,120.949455 79.99413,119.468638 80.0977347,117.958384 C80.7148582,118.145213 81.3533034,118.24073 81.9923491,118.24073 C83.6548289,118.24073 85.3179094,117.607553 86.5833881,116.341799 C87.8176353,115.106383 88.4449692,113.493703 88.4759004,111.871712 C88.9413707,111.97624 89.4191535,112.035713 89.9059454,112.035713 C91.6308884,112.035713 93.2591336,111.361085 94.4963838,110.131976 C95.5759747,109.05185 96.2276332,107.65874 96.3684755,106.156897 C97.0483625,106.393587 97.7684901,106.524548 98.5114409,106.524548 C100.2526,106.524548 101.884449,105.847517 103.101879,104.621412 C104.397689,103.325621 105.085984,101.538427 104.991389,99.7398194 C104.939736,98.3755447 104.430422,97.0298928 103.583866,95.9846097 C103.446327,95.8043885 103.283563,95.6205628 103.101879,95.4385394" id="Fill-6" fill="#747474"></path>
                <path d="M67,2.93668507 C75.2596409,2.93668507 81.979359,9.46963468 81.979359,17.4997063 C81.979359,25.529778 75.2596409,32.0633149 67,32.0633149 C58.7403591,32.0633149 52.020641,25.5303653 52.020641,17.5002937 C52.020641,9.47022201 58.7403591,2.93668507 67,2.93668507 M67,35 C76.9252224,35 85,27.1496535 85,17.5002937 C85,7.85093387 76.9252224,0 67,0 C57.0750797,0 49,7.85093387 49,17.5002937 C49,27.1496535 57.0750797,35 67,35" id="Fill-8" fill="#747474"></path>
                <path d="M59,26 L59,24.4873672 C61.0993094,23.4587409 62.5720567,21.4618016 62.5720567,19.1918022 C62.5720567,18.4662426 62.5400607,17.8613095 62.4151832,17.0742363 L59.1885589,17.0742363 L59.1885589,15.1685171 L62.1014361,15.1685171 C61.9445626,14.2605173 61.7572463,13.0806577 61.7572463,11.9004981 C61.7572463,8.32941247 64.2948697,6 67.771249,6 C69.3999379,6 70.5281847,6.36337994 71.1851896,6.75646642 L70.5589381,8.75310568 C69.995436,8.45153934 69.0874334,8.1481726 67.771249,8.1481726 C65.3277498,8.1481726 64.3256231,9.78293225 64.3256231,11.9299046 C64.3256231,13.2321911 64.5141819,14.200204 64.7014982,15.1685171 L69.2123109,15.1685171 L69.2123109,17.0742363 L64.951564,17.0742363 C65.0459987,18.2234892 65.1084375,19.3739423 64.8266864,20.4628818 C64.482186,21.763668 63.730125,22.8526076 62.6652489,23.7309008 L62.6652489,23.7915141 L72,23.7915141 L72,26 L59,26 Z" id="Fill-10" fill="#B49464"></path>
            </g>
        </g>
    </g>
</svg>