<?xml version="1.0" encoding="UTF-8"?>
<svg width="139px" height="126px" viewBox="0 0 139 126" version="1.1" xmlns="http://www.w3.org/2000/svg" xmlns:xlink="http://www.w3.org/1999/xlink">
    <!-- Generator: Sketch 60.1 (88133) - https://sketch.com -->
    <title>Broker_Icon3</title>
    <desc>Created with Sketch.</desc>
    <defs>
        <polygon id="path-1" points="0 0.369458128 138.697289 0.369458128 138.697289 124.999938 0 124.999938"></polygon>
    </defs>
    <g id="What-we-do" stroke="none" stroke-width="1" fill="none" fill-rule="evenodd">
        <g id="What-we-do---Broker" transform="translate(-891.000000, -2101.000000)">
            <g id="Broker_Icon3" transform="translate(891.000000, 2101.000000)">
                <g id="Group-3" transform="translate(0.000000, 0.396896)">
                    <mask id="mask-2" fill="white">
                        <use xlink:href="#path-1"></use>
                    </mask>
                    <g id="Clip-2"></g>
                    <path d="M8.64808578,99.1237069 L33.5019036,99.1237069 L33.545148,99.1237069 L33.5877747,99.1237069 L105.109761,99.1237069 L105.152388,99.1237069 L105.188837,99.1237069 L130.04945,99.1237069 L130.04945,14.8638547 L8.64808578,14.8638547 L8.64808578,99.1237069 Z M7.10302356,11.7844212 L131.594512,11.7844212 L135.601419,11.7844212 L135.601419,3.45560345 L3.08932133,3.45560345 L3.08932133,11.7844212 L7.10302356,11.7844212 Z M106.69745,123.453756 C106.69745,124.309052 106.008628,124.999938 105.152388,124.999938 C104.294295,124.999938 103.607944,124.309052 103.607944,123.453756 L103.607944,102.202525 L35.0895924,102.202525 L35.0895924,123.453756 C35.0895924,124.309052 34.3964458,124.999938 33.545148,124.999938 C32.6864369,124.999938 31.993908,124.309052 31.993908,123.453756 L31.993908,102.202525 L7.10302356,102.202525 L1.53808133,102.202525 C0.686165778,102.202525 -0.000185333333,101.512254 -0.000185333333,100.663116 C-0.000185333333,99.8145936 0.686165778,99.1237069 1.53808133,99.1237069 L5.55178356,99.1237069 L5.55178356,14.8638547 L1.53808133,14.8638547 C0.686165778,14.8638547 -0.000185333333,14.1711207 -0.000185333333,13.3244458 L-0.000185333333,1.90942118 C-0.000185333333,1.06089901 0.686165778,0.369396552 1.53808133,0.369396552 L137.152659,0.369396552 C138.002104,0.369396552 138.697721,1.06089901 138.697721,1.90942118 L138.697721,13.3244458 C138.697721,14.1711207 138.002104,14.8638547 137.152659,14.8638547 L133.138957,14.8638547 L133.138957,99.1237069 L137.152659,99.1237069 C138.002104,99.1237069 138.697721,99.8145936 138.697721,100.663116 C138.697721,101.512254 138.002104,102.202525 137.152659,102.202525 L131.594512,102.202525 L106.69745,102.202525 L106.69745,123.453756 Z" id="Fill-1" fill="#747474" mask="url(#mask-2)"></path>
                </g>
                <path d="M104.349143,30.8455364 L74.2435421,60.5534837 L59.1426657,45.6483855 C58.5328739,45.0508101 57.5508796,45.0508101 56.9448098,45.6483855 L29.4526913,72.7811256 C28.8491029,73.3787011 28.8491029,74.3546593 29.4526913,74.9454997 C30.0575204,75.547361 31.040135,75.547361 31.6524082,74.9454997 L58.0434276,48.8946405 L73.1517481,63.8064736 C73.7571975,64.3973141 74.7391918,64.3973141 75.3446412,63.8064736 L106.542656,33.0141964 C107.152448,32.4129473 107.152448,31.441275 106.542656,30.8455364 C105.937207,30.2473488 104.954592,30.2473488 104.349143,30.8455364" id="Fill-4" fill="#B49464"></path>
            </g>
        </g>
    </g>
</svg>