<?xml version="1.0" encoding="UTF-8"?>
<svg width="101px" height="69px" viewBox="0 0 101 69" version="1.1" xmlns="http://www.w3.org/2000/svg" xmlns:xlink="http://www.w3.org/1999/xlink">
    <!-- Generator: Sketch 60.1 (88133) - https://sketch.com -->
    <title>Combined Shape</title>
    <desc>Created with Sketch.</desc>
    <g id="Home" stroke="none" stroke-width="1" fill="none" fill-rule="evenodd">
        <g id="Home-gold" transform="translate(-1105.000000, -5256.000000)" fill="#B49464">
            <g id="Testimonial" transform="translate(0.000000, 5097.000000)">
                <g id="Combined-Shape">
                    <path d="M1145.5,159 C1147.98528,159 1150,161.014719 1150,163.5 L1150,210.774805 C1150,212.23597 1149.29056,213.606171 1148.09736,214.449543 L1130.09736,227.172234 C1128.06786,228.606718 1125.25975,228.124362 1123.82526,226.09486 C1123.28831,225.335187 1123,224.427773 1123,223.497496 L1123,208.486363 C1123,207.025199 1123.70944,205.654998 1124.90264,204.811625 L1128.722,202.111 L1109.5,202.111191 C1107.01472,202.111191 1105,200.096472 1105,197.611191 L1105,163.5 C1105,161.014719 1107.01472,159 1109.5,159 L1145.5,159 Z M1206,210.774805 C1206,212.23597 1205.29056,213.606171 1204.09736,214.449543 L1186.09736,227.172234 C1184.06786,228.606718 1181.25975,228.124362 1179.82526,226.09486 C1179.28831,225.335187 1179,224.427773 1179,223.497496 L1179,208.486363 C1179,207.025199 1179.70944,205.654998 1180.90264,204.811625 L1184.722,202.111 L1165.5,202.111191 C1163.01472,202.111191 1161,200.096472 1161,197.611191 L1161,163.5 C1161,161.014719 1163.01472,159 1165.5,159 L1201.5,159 C1203.98528,159 1206,161.014719 1206,163.5 L1206,210.774805 Z"></path>
                </g>
            </g>
        </g>
    </g>
</svg>