<?xml version="1.0" encoding="UTF-8"?>
<svg width="49px" height="49px" viewBox="0 0 49 49" version="1.1" xmlns="http://www.w3.org/2000/svg" xmlns:xlink="http://www.w3.org/1999/xlink">
    <title>Group 3</title>
    <defs>
        <polygon id="path-1" points="0.183673469 -0.115523466 48.1836735 -0.115523466 48.1836735 47.8844765 0.183673469 47.8844765"></polygon>
    </defs>
    <g id="Symbols" stroke="none" stroke-width="1" fill="none" fill-rule="evenodd">
        <g id="team-member-moj" transform="translate(-356.000000, -220.000000)">
            <g id="Group-3" transform="translate(356.816327, 220.115523)">
                <mask id="mask-2" fill="white">
                    <use xlink:href="#path-1"></use>
                </mask>
                <g id="Clip-2"></g>
                <path d="M38.5778332,13.8085374 C38.5778332,12.9448568 38.0021069,12.3691305 37.1384263,12.3691305 L11.2289206,12.3691305 C10.3651944,12.3691305 9.78946815,12.9448568 9.78946815,13.8085374 L9.78946815,33.9603701 C9.78946815,34.8240963 10.3651944,35.3997769 11.2289206,35.3997769 L37.1384263,35.3997769 C38.0021069,35.3997769 38.5778332,34.8240963 38.5778332,33.9603701 L38.5778332,13.8085374 Z M48.1836735,23.8844765 C48.1836735,37.1393206 37.4385176,47.8844765 24.1836735,47.8844765 C10.9288294,47.8844765 0.183673469,37.1393206 0.183673469,23.8844765 C0.183673469,10.6296324 10.9288294,-0.115523466 24.1836735,-0.115523466 C37.4385176,-0.115523466 48.1836735,10.6296324 48.1836735,23.8844765 L48.1836735,23.8844765 Z M32.9641602,15.2479442 L15.403278,15.2479442 L24.1837191,22.0132066 L32.9641602,15.2479442 Z M25.0473997,24.8920659 L35.6991107,16.6873967 L35.6991107,32.5209632 L12.6683275,32.5209632 L12.6683275,16.6873967 L23.3199929,24.8920659 C24.0397191,25.4677465 24.7594453,25.0360203 25.0473997,24.8920659 L25.0473997,24.8920659 Z" id="Fill-1" fill="#FFCC00" mask="url(#mask-2)"></path>
            </g>
        </g>
    </g>
</svg>