<?xml version="1.0" encoding="UTF-8"?>
<svg width="338px" height="65px" viewBox="0 0 338 65" version="1.1" xmlns="http://www.w3.org/2000/svg" xmlns:xlink="http://www.w3.org/1999/xlink">
    <!-- Generator: Sketch 60.1 (88133) - https://sketch.com -->
    <title>Footer_PMJLogo_White</title>
    <desc>Created with Sketch.</desc>
    <defs>
        <polygon id="path-1" points="0 65 338 65 338 0 0 0"></polygon>
    </defs>
    <g id="Home" stroke="none" stroke-width="1" fill="none" fill-rule="evenodd">
        <g id="Home-gold" transform="translate(-171.000000, -5986.000000)">
            <g id="Footer" transform="translate(-20.000000, 5862.000000)">
                <g id="Footer_PMJLogo_White" transform="translate(191.000000, 124.000000)">
                    <path d="M81.7607781,14.0001614 L81.7607781,30.5898943 L85.4294164,30.5898943 C87.8987032,30.5898943 89.2392219,29.4705462 89.2392219,25.9701831 L89.2392219,18.6204373 C89.2392219,15.1200742 87.8987032,14.0001614 85.4294164,14.0001614 L81.7607781,14.0001614 Z M97,19.1100815 L97,25.4799742 C97,33.319929 93.1901945,37.5906204 85.4294164,37.5906204 L81.7607781,37.5906204 L81.7607781,56 L74,56 L74,7 L85.4294164,7 C93.1901945,7 97,11.2701267 97,19.1100815 L97,19.1100815 Z" id="Fill-1" fill="#FFFFFF"></path>
                    <polygon id="Fill-3" fill="#FFFFFF" points="119.220579 41.7901525 124.740094 7 136 7 136 56 128.346541 56 128.346541 20.8596983 122.753401 56 115.099349 56 109.065051 21.350472 109.065051 56 102 56 102 7 113.259312 7"></polygon>
                    <path d="M138,48.8801301 C138.853439,48.9499603 139.848545,48.9499603 140.701411,48.9499603 C143.189462,48.9499603 145.180247,48.0427302 145.180247,44.273023 L145.180247,7 L153,7 L153,43.7149441 C153,53.4872372 147.668298,56 141.767637,56 C140.345811,56 139.279586,56 138,55.8603395 L138,48.8801301 Z" id="Fill-5" fill="#FFFFFF"></path>
                    <path d="M193,36.8392266 L193,43.4634913 C193,51.4411128 189.073226,56 181.500283,56 C173.926774,56 170,51.4411128 170,43.4634913 L170,17.5365087 C170,9.55831249 173.926774,5 181.500283,5 C189.073226,5 193,9.55831249 193,17.5365087 L193,22.3798594 L185.707096,22.3798594 L185.707096,17.0376918 C185.707096,13.4764384 184.1649,12.1225069 181.710737,12.1225069 C179.256008,12.1225069 177.713246,13.4764384 177.713246,17.0376918 L177.713246,43.9628828 C177.713246,47.5241363 179.256008,48.8056588 181.710737,48.8056588 C184.1649,48.8056588 185.707096,47.5241363 185.707096,43.9628828 L185.707096,36.8392266 L193,36.8392266 Z" id="Fill-7" fill="#FFFFFF"></path>
                    <path d="M204.397577,40.4595853 L211.83122,40.4595853 L208.114399,15.6797483 L204.397577,40.4595853 Z M222,56 L214.216119,56 L212.883065,47.1095974 L203.415893,47.1095974 L202.082839,56 L195,56 L202.854041,7 L214.145959,7 L222,56 Z" id="Fill-9" fill="#FFFFFF"></path>
                    <path d="M232.760778,14.0001614 L232.760778,30.5898943 L236.429416,30.5898943 C238.898703,30.5898943 240.239791,29.4705462 240.239791,25.9701831 L240.239791,18.6204373 C240.239791,15.1200742 238.898703,14.0001614 236.429416,14.0001614 L232.760778,14.0001614 Z M248,19.1100815 L248,25.4799742 C248,33.319929 244.190764,37.5906204 236.429416,37.5906204 L232.760778,37.5906204 L232.760778,56 L225,56 L225,7 L236.429416,7 C244.190764,7 248,11.2701267 248,19.1100815 L248,19.1100815 Z" id="Fill-11" fill="#FFFFFF"></path>
                    <mask id="mask-2" fill="white">
                        <use xlink:href="#path-1"></use>
                    </mask>
                    <g id="Clip-14"></g>
                    <polygon id="Fill-13" fill="#FFFFFF" mask="url(#mask-2)" points="253 56 261 56 261 7 253 7"></polygon>
                    <polygon id="Fill-15" fill="#FFFFFF" mask="url(#mask-2)" points="263 7 288 7 288 14.0001614 279.544266 14.0001614 279.544266 56 271.455734 56 271.455734 14.0001614 263 14.0001614"></polygon>
                    <path d="M295.397577,40.4595853 L302.83122,40.4595853 L299.114399,15.6797483 L295.397577,40.4595853 Z M313,56 L305.216119,56 L303.883065,47.1095974 L294.415893,47.1095974 L293.082839,56 L286,56 L293.854041,7 L305.145959,7 L313,56 Z" id="Fill-16" fill="#FFFFFF" mask="url(#mask-2)"></path>
                    <polygon id="Fill-17" fill="#FFFFFF" mask="url(#mask-2)" points="317 7 324.938172 7 324.938172 48.9998386 338 48.9998386 338 56 317 56"></polygon>
                    <path d="M22.5118526,20 C22.4832951,20 22.4543237,19.9920693 22.4257661,19.9752166 C22.3794119,19.9464678 22.3376102,19.8978923 22.3016029,19.8334554 C22.2569041,19.817594 22.2130331,19.7819059 22.1720593,19.7244084 C22.0048528,19.4854962 21.950221,18.9680184 22.0495515,18.5685097 C22.145985,18.1789144 22.2461433,17.7883277 22.3500266,17.3927844 C22.4423212,17.0438338 22.6269106,16.906038 22.7854256,17.0666346 C22.9443546,17.2282225 23.0308549,17.6416099 22.9898811,18.0431013 L22.8533015,19.3625705 C22.8127415,19.7452265 22.6695399,20 22.5118526,20" id="Fill-18" fill="#FFFFFF" mask="url(#mask-2)"></path>
                    <path d="M22.2568209,20.5140774 C22.2206209,20.5140774 22.1832896,20.5098646 22.1459582,20.5008373 C21.8874672,20.4352384 21.7268294,20.1596026 21.787917,19.8845687 C21.8987797,19.3868596 22.0152986,18.8879468 22.1346457,18.3866268 C22.1996927,18.1121947 22.4621432,17.9472947 22.7189374,18.0153009 C22.9768628,18.0845108 23.1329756,18.3631556 23.0679286,18.6369859 C22.9502784,19.1334914 22.8343251,19.6275895 22.7251592,20.1198822 C22.672556,20.3551957 22.4751526,20.5140774 22.2568209,20.5140774 L22.2568209,20.5140774 Z M21.6934575,23.5232013 C21.6697012,23.5232013 21.6459449,23.5213959 21.621623,23.5177849 C21.3586069,23.4756572 21.1776066,23.2150671 21.2172004,22.9352185 C21.2890349,22.4242693 21.3755757,21.9121164 21.4734289,21.3987599 C21.5260322,21.1219205 21.7794326,20.9419748 22.0407518,20.9985464 C22.3009398,21.0545161 22.4694963,21.3247354 22.4168931,21.6021766 C22.3224335,22.0980803 22.2381553,22.5933821 22.1685833,23.0868784 C22.1329488,23.3408484 21.9276266,23.5232013 21.6934575,23.5232013 L21.6934575,23.5232013 Z M21.4830446,26.5804713 C21.2211598,26.5804713 21.0067875,26.3571943 21.0022625,26.0773457 L21,25.8197647 C21.0005656,25.3912655 21.0169688,24.946517 21.0492095,24.4969538 C21.0690064,24.214698 21.3031755,24.0082721 21.5650604,24.0251232 C21.8303389,24.0467889 22.0288737,24.2923334 22.0085111,24.5745892 C21.9785329,24.9988757 21.9626954,25.4177458 21.9621298,25.8203665 L21.9643923,26.0598928 C21.9689173,26.3427505 21.7573732,26.5756567 21.491529,26.5804713 L21.4830446,26.5804713 Z M21.8523984,29.6160755 C21.6374605,29.6160755 21.4417539,29.4620083 21.3863225,29.2303058 C21.264713,28.721162 21.170819,28.1933617 21.1069033,27.6625522 C21.0735314,27.3821019 21.2596223,27.1257245 21.523204,27.0902168 C21.7896139,27.0510982 22.0277424,27.2527095 22.06168,27.5331599 C22.1205051,28.0230453 22.2070458,28.5087179 22.3190398,28.9775394 C22.3846524,29.2525733 22.2291053,29.5306164 21.9711798,29.600428 C21.931586,29.6112609 21.8914265,29.6160755 21.8523984,29.6160755 L21.8523984,29.6160755 Z M22.9016346,32.4663177 C22.7296843,32.4663177 22.5639558,32.368822 22.4774151,32.1967002 C22.2387209,31.7236659 22.0266112,31.2367896 21.8467421,30.7505152 C21.7500201,30.4875178 21.8716296,30.1902163 22.1188082,30.0867025 C22.3648555,29.9819849 22.645406,30.1125809 22.7426937,30.376782 C22.9084221,30.8257433 23.1046943,31.2753064 23.3252884,31.7122312 C23.4508574,31.9613867 23.3631854,32.2719282 23.1290162,32.4061352 C23.0566161,32.4470593 22.9785597,32.4663177 22.9016346,32.4663177 L22.9016346,32.4663177 Z M24.5193249,35 C24.3801809,35 24.2432994,34.9374102 24.1477086,34.814638 C23.8247362,34.3993789 23.5243888,33.9744906 23.2534539,33.5526114 C23.103563,33.3191034 23.1601256,33.0007381 23.3790229,32.8406527 C23.5990514,32.6817709 23.8982675,32.7419534 24.0481584,32.9754614 C24.3026901,33.3714621 24.5855031,33.770472 24.8898099,34.1622599 C25.0589321,34.3795186 25.0300851,34.7026986 24.8258941,34.8826442 C24.7359596,34.962085 24.6267938,35 24.5193249,35 L24.5193249,35 Z" id="Fill-19" fill="#FFFFFF" mask="url(#mask-2)"></path>
                    <path d="M25.6814463,38 C25.6009293,38 25.5215357,37.9205538 25.4608671,37.7675462 C25.3320399,37.4448571 25.2084556,37.1211872 25.0893653,36.7984981 C24.967279,36.4679625 24.9706495,35.9393016 25.0972298,35.619555 C25.1683843,35.4390845 25.2623833,35.366504 25.3545097,35.3900436 C25.4039434,35.1840719 25.4874564,35.0359684 25.5874473,35.0045822 C25.7619633,34.9575029 25.9203759,35.2782304 25.9409732,35.7352915 C25.9611961,36.1835253 25.9802955,36.6317591 25.9982714,37.079012 C26.0121278,37.4272024 25.9417222,37.7616613 25.8215084,37.9156497 C25.7769432,37.9725371 25.7290075,38 25.6814463,38" id="Fill-20" fill="#FFFFFF" mask="url(#mask-2)"></path>
                    <path d="M27.3686855,26.1475137 C27.1538315,26.1475137 26.9582012,25.99782 26.9027915,25.7726948 C26.8372044,25.5066376 26.9926909,25.2359026 27.2505158,25.1680726 C27.7582499,25.0341669 28.3129126,24.979786 28.8704024,25.0066841 C29.1355775,25.0189637 29.3413851,25.2516906 29.3295116,25.5265188 C29.3170727,25.8001776 29.0959991,26.0194554 28.8268661,26.000159 C28.3643645,25.9785236 27.9041245,26.0223792 27.4874207,26.1323105 C27.4478423,26.1428358 27.4076985,26.1475137 27.3686855,26.1475137 M31.703649,26.8129489 C31.6295809,26.8129489 31.5543819,26.794822 31.4837063,26.7579833 C31.078876,26.5422139 30.6310749,26.3603594 30.187797,26.2328859 C29.9316684,26.1586238 29.7824013,25.8843803 29.8542078,25.6194926 C29.9254489,25.3551897 30.1911894,25.2008181 30.4467527,25.2744955 C30.9584446,25.4224349 31.4560014,25.6235858 31.9241571,25.8726855 C32.1604966,25.9984048 32.253223,26.2989616 32.1316609,26.5433833 C32.0462847,26.7147124 31.8783592,26.8129489 31.703649,26.8129489 M25.0426076,27.9274652 C24.9657125,27.9274652 24.8882519,27.9087535 24.81588,27.8684063 C24.5818022,27.7391786 24.4935989,27.4374523 24.6191189,27.1953695 C24.8944714,26.6620858 25.2721622,26.2182674 25.7414487,25.8767787 C25.9591298,25.7177291 26.2593601,25.7726948 26.4114542,25.9966505 C26.564679,26.2211911 26.5126617,26.5316885 26.295546,26.6901533 C25.9449947,26.9451004 25.6741655,27.2637842 25.4672271,27.6649165 C25.3801547,27.8321524 25.2144909,27.9274652 25.0426076,27.9274652 M34.020115,28.7408399 C33.9115572,28.7408399 33.8024339,28.7028317 33.7125345,28.6250611 C33.1748339,28.1619463 32.8197593,27.826305 32.626956,27.598256 L32.5760695,27.5415362 C32.391182,27.3438937 32.396836,27.0293031 32.5873777,26.8380928 C32.7796155,26.648052 33.0832382,26.6533146 33.2681258,26.8503723 L33.3495442,26.9410072 C33.4586674,27.0702349 33.7159269,27.3327836 34.328261,27.8613895 C34.5323723,28.0368117 34.5600772,28.3508176 34.3898902,28.5619091 C34.294902,28.6794421 34.1580739,28.7408399 34.020115,28.7408399 M36.3608935,30.6628834 C36.2579897,30.6628834 36.1550859,30.6289684 36.0674481,30.5593842 C35.6637486,30.2377767 35.2628761,29.9149997 34.8840545,29.6056717 C34.6759853,29.4349274 34.6403648,29.122091 34.8048977,28.9069063 C34.9699961,28.6911369 35.272488,28.6548829 35.4805572,28.8244578 C35.8565518,29.1320315 36.2540319,29.4518849 36.6549043,29.7711534 C36.8652351,29.9389741 36.9042481,30.2518105 36.7419767,30.4693341 C36.647554,30.5956382 36.5050719,30.6628834 36.3608935,30.6628834 M24.4805946,30.9043814 C24.2148541,30.9043814 24,30.7026458 24,30.4278175 L24,30.3851314 C24,29.7951278 24.0361859,29.279971 24.1125157,28.8098393 C24.1566173,28.5385195 24.4036995,28.356665 24.6660476,28.4011054 C24.9283957,28.4461304 25.1053676,28.7022469 25.061266,28.972982 C24.9945481,29.3893176 24.9617546,29.8512629 24.9617546,30.3851314 C24.9617546,30.6599597 24.7463352,30.9043814 24.4805946,30.9043814 M44.6734841,31.1067018 C44.5790614,31.1067018 44.4840733,31.0786342 44.4003933,31.0184059 C44.1815814,30.86228 44.1278679,30.5517826 44.2788311,30.3260726 C44.5558798,29.9132455 44.8470636,29.4735203 45.1207198,29.0571847 C45.2705522,28.8297205 45.5690863,28.7706616 45.7895944,28.925618 C46.0089717,29.0799896 46.0660777,29.3893176 45.9168106,29.6167818 C45.6408928,30.0354563 45.3480128,30.4775205 45.0698333,30.8932713 C44.975976,31.0324397 44.8261436,31.1067018 44.6734841,31.1067018 M38.7367271,32.5369781 C38.6355195,32.5369781 38.5331811,32.5036479 38.4461087,32.4352332 L37.2559303,31.4996477 C37.0444687,31.3329965 37.0037595,31.0213296 37.1649,30.8026365 C37.3254751,30.5839433 37.6274016,30.5424267 37.8388633,30.7084932 L39.0284763,31.643494 C39.2399379,31.8101451 39.2806471,32.1223968 39.120072,32.3410899 C39.0256493,32.4697329 38.8820363,32.5369781 38.7367271,32.5369781 M42.725097,33.3988863 C42.5532137,33.3988863 42.3869845,33.3035735 42.3004775,33.1357529 C42.1755229,32.8930854 42.2642916,32.5919438 42.4983694,32.462716 C42.7703294,32.3130223 42.991403,32.1405238 43.1220116,31.9785505 C43.1989067,31.8838225 43.3012451,31.7446541 43.4233727,31.573325 C43.5811208,31.3517082 43.8830473,31.3055137 44.0956398,31.4686564 C44.3099284,31.6312144 44.3551608,31.9428813 44.1974127,32.1639134 C44.0605846,32.3557084 43.9458073,32.5106648 43.8615619,32.6147487 C43.6512311,32.8772974 43.3363003,33.1281512 42.9512592,33.3409969 C42.8794527,33.3801746 42.8014267,33.3988863 42.725097,33.3988863 M40.9898677,33.887145 C40.4826991,33.887145 40.0722147,33.7549935 39.7697228,33.4930296 C39.7284482,33.4567757 39.6815196,33.4181827 39.624979,33.3714035 C39.4169098,33.2012439 39.3812893,32.8884074 39.5458223,32.672638 C39.7103552,32.4568686 40.0122817,32.4206147 40.2214818,32.5907743 C40.2910266,32.6469094 40.3481326,32.6948582 40.3922342,32.7346206 C40.5460245,32.8679415 40.8869639,32.9217377 41.2567391,32.8761279 C41.5236105,32.8486451 41.7593845,33.0398554 41.7899164,33.3129294 C41.8204483,33.5860034 41.6310375,33.8327641 41.3675586,33.8637554 C41.2386461,33.8795434 41.1125607,33.887145 40.9898677,33.887145 M24.71128,34 C24.4709827,34 24.2634789,33.8140524 24.2346433,33.5614443 C24.1735795,33.0357622 24.1176043,32.5170969 24.0751989,32.011296 C24.0525827,31.7376372 24.2487784,31.4961392 24.5133881,31.4727496 C24.7774325,31.447021 25.0109449,31.6522651 25.0341265,31.9259238 C25.0748357,32.4211994 25.1302455,32.9287546 25.189613,33.4433266 C25.2212757,33.7158159 25.0329957,33.9637461 24.7689514,33.9964916 C24.7497276,33.9988305 24.7305038,34 24.71128,34" id="Fill-21" fill="#FFFFFF" mask="url(#mask-2)"></path>
                    <path d="M47.3452683,29 C47.2790487,29 47.2120166,28.9653254 47.1527033,28.893025 C46.9942638,28.7004701 46.9524195,28.3094582 47.0588584,28.0224702 L47.2575172,27.4839066 L47.1027339,26.8996019 C47.0202641,26.5867924 47.0925776,26.2127489 47.2648298,26.0629839 C47.4366758,25.9110057 47.6434597,26.0438022 47.7259295,26.3566118 L47.9660264,27.2640546 C48.0188395,27.4647248 48.0094957,27.699332 47.9420573,27.8837716 L47.6324908,28.7226029 C47.5658649,28.9026159 47.4565823,29 47.3452683,29" id="Fill-22" fill="#FFFFFF" mask="url(#mask-2)"></path>
                    <path d="M44.1431377,20.4073407 C43.9902862,20.4073407 43.8423477,20.3194217 43.7560958,20.1562339 C43.7489991,20.1429512 43.7348058,20.1125907 43.7288009,20.099308 C43.5748576,19.7887452 43.3259279,19.3099346 43.067718,18.8178413 C42.9345188,18.5642046 43.0038479,18.232769 43.2227531,18.0784364 C43.4422043,17.9241038 43.7277091,18.0044326 43.8609083,18.2587019 C44.1240313,18.7590179 44.377874,19.2479486 44.5471025,19.5907694 C44.673205,19.8456712 44.60333,20.1802693 44.3849707,20.3301744 C44.3085449,20.3820402 44.2250225,20.4073407 44.1431377,20.4073407 M45.3615827,23.1973452 C45.1896248,23.1973452 45.0247635,23.0866559 44.9439705,22.8962701 C44.7332538,22.3965867 44.5301796,21.9196737 44.351125,21.5009516 C44.2364863,21.2352971 44.3303808,20.9120842 44.560204,20.7798894 C44.7900272,20.6483272 45.0689812,20.755854 45.1825281,21.022141 C45.3632204,21.4427606 45.5662946,21.9209387 45.7786491,22.4231522 C45.8911041,22.6894392 45.7955719,23.0120196 45.5652028,23.1429493 C45.499695,23.1802674 45.42982,23.1973452 45.3615827,23.1973452 M46.53581,26 C46.3633062,26 46.1973531,25.8880456 46.117106,25.6957624 L45.531903,24.2947512 C45.4199939,24.0278317 45.5166179,23.7058838 45.7475329,23.5762191 C45.9784478,23.4478194 46.2563101,23.5578763 46.3682192,23.8254283 L46.9534222,25.2277045 C47.0653314,25.4952565 46.9687074,25.8172044 46.7372465,25.9462366 C46.6722846,25.9822897 46.6035014,26 46.53581,26" id="Fill-23" fill="#FFFFFF" mask="url(#mask-2)"></path>
                    <path d="M43.6489242,20 C43.5312227,20 43.4164122,19.8979719 43.3499212,19.7131799 L43.053396,18.8876801 C43.0030115,18.7492644 42.987318,18.5801689 43.0104453,18.4203488 C43.0108583,18.4167814 43.0604168,18.0664612 43.0959338,17.5370569 C43.1182351,17.2038604 43.2929289,16.9655571 43.4853811,17.0040851 C43.6778334,17.0418997 43.8161842,17.3429895 43.7938829,17.6761861 C43.7719945,18.0036747 43.7451503,18.2726578 43.724501,18.4545959 L43.9471013,19.0731857 C44.0495222,19.3585788 43.9987248,19.7324439 43.8335297,19.9093877 C43.7761244,19.9707472 43.7121113,20 43.6489242,20" id="Fill-24" fill="#FFFFFF" mask="url(#mask-2)"></path>
                    <path d="M35.8718351,7.59690875 C35.6712505,7.59690875 35.4824304,7.46903466 35.4053729,7.25984257 C35.1859652,6.66330371 35.0506735,6.098423 35.0024391,5.58071913 C34.9753807,5.29020905 35.1765536,5.03197787 35.4518427,5.00342346 C35.7212496,4.96990307 35.9712451,5.18654413 35.9983034,5.47767496 C36.0377144,5.90040437 36.15183,6.37093138 36.3382972,6.87808253 C36.4382954,7.14934942 36.3106507,7.4553782 36.0530083,7.56090537 C35.9935976,7.58511454 35.9324222,7.59690875 35.8718351,7.59690875 M37.6329797,10.1159043 C37.5223934,10.1159043 37.4106308,10.0767972 37.3176913,9.99734141 C36.518294,9.31203558 36.3159447,9.1003605 36.222417,8.94951872 C36.1994762,8.91351534 36.1612416,8.85144053 36.1141836,8.77012254 C35.9706568,8.52058183 36.0453614,8.19593061 36.2818277,8.04446809 C36.5194704,7.89362632 36.8259355,7.97246132 36.9694623,8.22076053 C37.0065204,8.28469758 37.0365199,8.33373667 37.0565195,8.36539482 C37.0900483,8.41008868 37.2600453,8.58700187 37.9488563,9.177954 C38.1635583,9.36169542 38.1959107,9.69441637 38.0217962,9.9209894 C37.9229744,10.0488635 37.7782712,10.1159043 37.6329797,10.1159043 M39.9923487,12.1103677 C39.8817625,12.1103677 39.7711763,12.0718813 39.678825,11.9930463 C39.307067,11.6770856 38.935309,11.3642286 38.581786,11.067511 L38.500611,10.998608 C38.2847326,10.8167288 38.2494391,10.4846286 38.4212007,10.2568141 C38.5935505,10.0283788 38.9082507,9.99051318 39.1247174,10.1730131 L39.2053042,10.2412954 C39.5605918,10.5398752 39.9335263,10.8539737 40.3064607,11.1711759 C40.5217509,11.3536759 40.5558679,11.6863968 40.3823417,11.9135906 C40.2835199,12.0427062 40.1382284,12.1103677 39.9923487,12.1103677 M42.3040716,14.164423 C42.1828973,14.164423 42.061723,14.1191084 41.9658424,14.0259962 C41.639966,13.7118977 41.2546788,13.3617958 40.8411569,12.9974167 C40.6288078,12.8105715 40.600573,12.4772298 40.7776286,12.2537605 C40.9552725,12.0296705 41.2705609,12.0004953 41.4823218,12.1867197 C41.9087846,12.5616515 42.3058363,12.9223062 42.6417125,13.2469574 C42.8452383,13.4437345 42.8593556,13.7776969 42.6734767,13.9930965 C42.5746549,14.1066934 42.4393633,14.164423 42.3040716,14.164423 M43.4993441,17 C43.2417017,17 43.0228821,16.7920494 43.0011178,16.5164373 C42.9599421,15.9943882 42.8593556,15.5269649 42.7028879,15.1278239 C42.5970075,14.8577985 42.71877,14.5492868 42.9740595,14.4381729 C43.2311136,14.3276797 43.5222848,14.4549331 43.627577,14.723717 C43.8240441,15.2246606 43.9481595,15.7982318 43.9981586,16.4282911 C44.0216875,16.7188011 43.8169854,16.9739286 43.5416962,16.9987585 C43.5275788,16.9993793 43.5134615,17 43.4993441,17" id="Fill-25" fill="#FFFFFF" mask="url(#mask-2)"></path>
                    <path d="M36.3866208,4 C36.3394129,4 36.2914843,3.98914778 36.246799,3.96599638 C36.1995911,3.94175975 36.1617527,3.90703264 36.1340046,3.86651769 C36.1084186,3.84879239 36.0853552,3.82708795 36.0651748,3.80140436 C35.9606688,3.66756031 35.9844529,3.47439078 36.1177881,3.36948598 L36.5033792,3.06634728 C36.6349126,2.96216596 36.8248252,2.98278518 36.9307727,3.11337357 C37.0367201,3.24323848 37.0190622,3.4345993 36.8914928,3.54275977 C36.792032,3.62740709 36.7163552,3.72218315 36.6594175,3.8328758 C36.6050023,3.93922756 36.4979737,4 36.3866208,4" id="Fill-26" fill="#FFFFFF" mask="url(#mask-2)"></path>
                    <path d="M32.0985376,6.90726231 C31.9572706,6.90726231 31.8171029,6.84165216 31.7253068,6.71608792 C31.5697481,6.50398615 31.6104242,6.20251884 31.8165532,6.04245271 C32.1974795,5.74607584 32.6031413,5.42764038 33.0186973,5.10015526 C33.2237269,4.9372611 33.5172545,4.97741904 33.6744622,5.1889552 C33.8316699,5.39936015 33.7931925,5.70139306 33.5881629,5.86315601 C33.1709579,6.19290356 32.7625477,6.51303582 32.3799723,6.8099783 C32.2958717,6.87558844 32.1969298,6.90726231 32.0985376,6.90726231 L32.0985376,6.90726231 Z M29.6563217,8.7437808 C29.4172121,8.7437808 29.2132818,8.55656564 29.1907451,8.30713397 C29.1693077,8.06618636 29.3243166,7.85012536 29.5463862,7.7946961 C29.7162365,7.66573822 30.0966131,7.3744518 30.6072633,6.98022532 C30.8144916,6.82015918 31.1069199,6.86371074 31.2624785,7.07637812 C31.4169378,7.28904549 31.3751624,7.5905128 31.1690334,7.75001333 C30.5715343,8.21098116 30.1515809,8.53167904 30.037248,8.61878216 L30.0361486,8.61708535 C29.9619422,8.68439231 29.8684971,8.72624706 29.7684558,8.73529673 L29.6997462,8.74208399 C29.6849049,8.7432152 29.6706133,8.7437808 29.6563217,8.7437808 L29.6563217,8.7437808 Z M26.6523356,9.24943141 C26.4368622,9.24943141 26.2428261,9.09502133 26.1955539,8.86934505 C26.1416855,8.60916688 26.3027409,8.35351355 26.5550428,8.29751869 C27.1256077,8.17138884 27.6351585,8.07410483 28.0683042,8.00001061 C28.3250034,7.95815586 28.564113,8.13236211 28.6069879,8.3948027 C28.649313,8.65724328 28.477264,8.90497814 28.2227635,8.94852971 C27.8017107,9.02092711 27.3059019,9.1159487 26.7512775,9.23868492 C26.7177472,9.24603779 26.6847666,9.24943141 26.6523356,9.24943141 L26.6523356,9.24943141 Z M23.7148605,10.0390156 C23.514778,10.0390156 23.3295368,9.90609848 23.267973,9.69908716 C23.1921175,9.44456504 23.3311858,9.1759028 23.5785406,9.09784935 C24.0930385,8.9355208 24.5871983,8.7918572 25.0571723,8.66516175 C25.3078251,8.60011721 25.5623257,8.75169927 25.628287,9.00961502 C25.6931489,9.26639955 25.5436367,9.52940575 25.2940832,9.59671271 C24.8362021,9.72001453 24.3535855,9.8602845 23.8522798,10.0180882 C23.8066566,10.0322283 23.7604837,10.0390156 23.7148605,10.0390156 L23.7148605,10.0390156 Z M20.858188,11.0887779 C20.6740461,11.0887779 20.4992488,10.975657 20.4250423,10.7890074 C20.3271998,10.543535 20.4420823,10.2624294 20.6811919,10.1617518 C21.1687556,9.95700291 21.6491735,9.76922214 22.1180482,9.59671271 C22.3621049,9.50904398 22.6286983,9.63856745 22.7155473,9.88856474 C22.8023963,10.1391276 22.6754209,10.4140115 22.4324636,10.5033771 C21.9756818,10.6702304 21.5090058,10.854052 21.0351841,11.0531448 C20.9769183,11.0774658 20.9170035,11.0887779 20.858188,11.0887779 L20.858188,11.0887779 Z M18.1120006,12.4083337 C17.944349,12.4083337 17.7821942,12.3155745 17.6980936,12.1521148 C17.5777143,11.9168232 17.6645633,11.6261024 17.8926794,11.5016694 C18.3362689,11.2595906 18.8001965,11.0226022 19.2712698,10.7963603 C19.5054323,10.6860674 19.783569,10.7878762 19.8924051,11.0293894 C20.0017909,11.270337 19.9006503,11.556533 19.6664878,11.6690884 C19.209706,11.8879774 18.7606197,12.1181785 18.3302224,12.3523389 C18.2609631,12.3902344 18.1856573,12.4083337 18.1120006,12.4083337 L18.1120006,12.4083337 Z M15.514226,14.0123887 C15.3647138,14.0123887 15.21795,13.9388601 15.1272532,13.8014181 C14.9815888,13.5819635 15.0371062,13.2827586 15.2509306,13.133439 C15.6642879,12.8438493 16.1012813,12.5565222 16.5503676,12.2793758 C16.7707881,12.1430651 17.058819,12.2171593 17.1918409,12.4445324 C17.3248628,12.6724711 17.2528551,12.9682824 17.0313351,13.1045931 C16.5976398,13.3726898 16.1754877,13.6498361 15.7769717,13.9286792 C15.6961692,13.9852397 15.6049227,14.0123887 15.514226,14.0123887 L15.514226,14.0123887 Z M13.1165339,15.9128205 C12.9862604,15.9128205 12.8565366,15.8573912 12.7641908,15.7487951 C12.5943406,15.5480055 12.6135793,15.2442757 12.808165,15.0695039 C13.1901907,14.7256162 13.5920047,14.386819 14.0009646,14.0621619 C14.2059942,13.9003989 14.4989722,13.9405569 14.6567295,14.1498306 C14.8144869,14.3608012 14.7765592,14.6628341 14.5715295,14.824597 C14.177411,15.1373764 13.7915376,15.4631648 13.4238035,15.7940435 C13.3353055,15.8737938 13.2259197,15.9128205 13.1165339,15.9128205 L13.1165339,15.9128205 Z M10.9760908,18.1130228 C10.8672547,18.1130228 10.7573193,18.0739961 10.6688212,17.9948114 C10.4742355,17.819474 10.4544471,17.5157443 10.6242974,17.3155202 C10.9612495,16.9184657 11.3168907,16.5281984 11.6802273,16.1548993 C11.8627202,15.9676842 12.1589962,15.9682498 12.341489,16.1554649 C12.5239819,16.3438113 12.5234322,16.6486722 12.3409394,16.836453 C11.992444,17.1939152 11.6521938,17.5683455 11.3284339,17.9484319 C11.2360881,18.0575936 11.106914,18.1130228 10.9760908,18.1130228 L10.9760908,18.1130228 Z M9.15281145,20.5937651 C9.06541277,20.5937651 8.97691474,20.5688785 8.89831089,20.5162772 C8.68173806,20.3714824 8.62072389,20.0728432 8.76089159,19.8505605 C9.04067729,19.4088232 9.3397017,18.9704796 9.64971966,18.5491041 C9.80527832,18.3370023 10.098806,18.2957132 10.3043852,18.4557793 C10.5105142,18.616411 10.5511903,18.9178783 10.395082,19.1299801 C10.098806,19.5332563 9.8129738,19.9518037 9.54528099,20.3754417 C9.4556836,20.5168429 9.30562172,20.5937651 9.15281145,20.5937651 L9.15281145,20.5937651 Z M7.69012035,23.3137581 C7.62470876,23.3137581 7.55764814,23.2990524 7.49388558,23.2690754 C7.25972308,23.1570856 7.15748311,22.8714553 7.26631921,22.6305077 C7.481243,22.1525717 7.71705453,21.6757669 7.96605832,21.2131022 C8.09083505,20.9812043 8.37611753,20.8969292 8.60148519,21.0253215 C8.82740253,21.1537138 8.90930444,21.446697 8.78397803,21.6791605 C8.54596779,22.122029 8.32060013,22.5779064 8.11502084,23.034915 C8.03586732,23.2102525 7.86656674,23.3137581 7.69012035,23.3137581 L7.69012035,23.3137581 Z M6.60835557,26.2158759 C6.56218268,26.2158759 6.51600979,26.2090887 6.4698369,26.1943829 C6.22303183,26.1157639 6.08506285,25.846536 6.1609183,25.5925795 C6.31317889,25.0857977 6.48247948,24.5807127 6.66442264,24.0925958 C6.75731809,23.8442954 7.02720961,23.7226903 7.26906759,23.8154495 C7.50982622,23.9104711 7.63020553,24.1893142 7.53785976,24.4370491 C7.36361207,24.9053698 7.20090762,25.390093 7.05469347,25.8765131 C6.99312962,26.0829588 6.8078884,26.2158759 6.60835557,26.2158759 L6.60835557,26.2158759 Z M5.89982162,29.2373363 C5.87288744,29.2373363 5.8448539,29.2356395 5.81737004,29.230549 C5.56341916,29.1841694 5.39356889,28.9336065 5.43864243,28.6722972 C5.52878949,28.1519408 5.63432752,27.6298877 5.75360748,27.1214091 C5.81407197,26.8634933 6.06802285,26.7017304 6.31757631,26.7662093 C6.5687788,26.8289914 6.72323811,27.088604 6.66277361,27.3470853 C6.54844075,27.8363334 6.44620078,28.339156 6.35990146,28.8402818 C6.31977502,29.0738765 6.1224409,29.2373363 5.89982162,29.2373363 L5.89982162,29.2373363 Z M5.53703465,32.3244068 C5.52604111,32.3244068 5.51559724,32.3244068 5.50515337,32.3238412 C5.24680507,32.3057418 5.05221934,32.0761063 5.06980901,31.8108377 C5.10498835,31.2791693 5.15281027,30.7491977 5.21272509,30.2373254 C5.24350701,29.9743192 5.47272241,29.7904977 5.73271974,29.8170811 C5.98941901,29.8493206 6.17191185,30.0880058 6.14112992,30.3521432 C6.08341381,30.8481785 6.03669125,31.3606164 6.00261126,31.8764479 C5.98612094,32.1304044 5.78109134,32.3244068 5.53703465,32.3244068 L5.53703465,32.3244068 Z M5.47931854,35.4374951 C5.22701669,35.4374951 5.0192387,35.2310494 5.0120929,34.96974 C5.00384774,34.6518702 5,34.3289099 5,34.002556 C5,33.7972415 5.00164903,33.5936238 5.0049471,33.3905717 C5.00934451,33.1253031 5.24790443,32.9058484 5.48096757,32.9182917 C5.73931587,32.9233822 5.94489515,33.1428368 5.94049773,33.4081054 C5.93664999,33.6049358 5.93500096,33.8028975 5.93500096,34.002556 C5.93500096,34.3204258 5.9388487,34.6337708 5.94709386,34.9431566 C5.95423967,35.2089908 5.75085909,35.4307079 5.4925108,35.4374951 L5.47931854,35.4374951 Z M5.69863976,38.5404026 C5.46557661,38.5404026 5.26384507,38.3611059 5.23471218,38.1173302 C5.17424768,37.5992363 5.12422705,37.0703959 5.08739868,36.5455147 C5.06870965,36.2808117 5.26274571,36.050045 5.51999466,36.0308145 C5.77834295,36.0059278 6.00151191,36.2112424 6.02020093,36.4759454 C6.05592995,36.9855552 6.10430155,37.4985587 6.16366669,38.0013813 C6.19499829,38.2649531 6.01195577,38.5047695 5.75580619,38.5370089 C5.73656748,38.5392713 5.71732878,38.5404026 5.69863976,38.5404026 L5.69863976,38.5404026 Z M6.22248215,41.6042833 C6.01030674,41.6042833 5.81791971,41.454398 5.76789909,41.232681 C5.65246687,40.7225055 5.54912755,40.2004524 5.46062952,39.6817929 C5.41555598,39.4199179 5.58595592,39.1704862 5.8399068,39.1246722 C6.09605639,39.0811207 6.33736469,39.2536301 6.38133887,39.5149395 C6.46708852,40.0171965 6.56712977,40.5217159 6.67871425,41.013792 C6.73698004,41.2728389 6.5808717,41.5313203 6.32911953,41.5912744 C6.29339051,41.600324 6.25766149,41.6042833 6.22248215,41.6042833 L6.22248215,41.6042833 Z M7.0854754,44.5838889 C6.89418772,44.5838889 6.71554262,44.4628495 6.64573362,44.2682815 C6.47148594,43.776771 6.30878148,43.2699891 6.16201766,42.7632073 C6.08891059,42.5081196 6.22962796,42.2405886 6.47753239,42.1647975 C6.72268843,42.0890065 6.98488447,42.2338013 7.05854121,42.488889 C7.19980826,42.9770059 7.35646627,43.4651228 7.5246675,43.9379683 C7.61316554,44.1874 7.48838881,44.4634151 7.24598115,44.555043 C7.19266246,44.5748392 7.13879409,44.5838889 7.0854754,44.5838889 L7.0854754,44.5838889 Z M8.3068582,47.428315 C8.13920664,47.428315 7.97650218,47.3349902 7.89240157,47.1709648 C7.65768939,46.7094314 7.43177205,46.2286674 7.2228947,45.7399849 C7.11845603,45.4967749 7.22564309,45.2128413 7.4620043,45.1053764 C7.69726615,44.9984771 7.97430347,45.1076388 8.07819247,45.3514145 C8.27937433,45.8197352 8.49539748,46.2812686 8.72076515,46.7235715 C8.84059478,46.9588631 8.75264643,47.2495839 8.5239807,47.3728857 C8.45472137,47.4102156 8.38051494,47.428315 8.3068582,47.428315 L8.3068582,47.428315 Z M9.88827958,50.0793043 C9.74261511,50.0793043 9.59859968,50.0091693 9.50735326,49.877949 C9.21052756,49.4492206 8.92359604,49.0035241 8.65480388,48.5527371 C8.51958328,48.3259296 8.58829294,48.0295528 8.8087135,47.890414 C9.02913407,47.7518409 9.31661526,47.8225415 9.45183586,48.0487833 C9.70963448,48.4809053 9.98447309,48.9085025 10.2692059,49.3185659 C10.4187181,49.5351925 10.3697968,49.8355286 10.1598201,49.9899387 C10.0773685,50.0504584 9.98282406,50.0793043 9.88827958,50.0793043 L9.88827958,50.0793043 Z M11.8072028,52.4853867 C11.6829757,52.4853867 11.5587487,52.4344823 11.4664029,52.3338046 C11.1140598,51.9480622 10.7705115,51.5464829 10.446202,51.1403787 C10.2823981,50.9350642 10.3109814,50.6319001 10.5110639,50.4633498 C10.7105967,50.294234 11.0052237,50.3242111 11.1690275,50.5295256 C11.4801448,50.9186616 11.8094015,51.3044041 12.1480027,51.6743095 C12.324449,51.8677463 12.3156542,52.1726073 12.1276646,52.3552976 C12.0375175,52.4424007 11.9220853,52.4853867 11.8072028,52.4853867 L11.8072028,52.4853867 Z M48.461879,53.224632 C48.3387513,53.224632 48.2156236,53.1748588 48.1232778,53.0753124 C47.9451824,52.8830068 47.9523282,52.5787115 48.1392184,52.3954555 C48.4915615,52.0493055 48.843355,51.6873184 49.194049,51.3094945 C49.3726941,51.1177545 49.6684205,51.1104016 49.8553107,51.2942232 C50.042201,51.4774791 50.0487971,51.78234 49.8707017,51.9746456 C49.5095638,52.3632161 49.1478761,52.7348184 48.7845395,53.0911493 C48.6943924,53.1805149 48.5778609,53.224632 48.461879,53.224632 L48.461879,53.224632 Z M14.0202033,54.6086668 C13.9157646,54.6086668 13.8107763,54.5730337 13.7239273,54.5000707 C13.3237622,54.1624047 12.9323921,53.8105985 12.5613599,53.4542676 C12.372271,53.2732741 12.3618271,52.9689787 12.5377238,52.7744107 C12.7141702,52.5792771 13.0098965,52.567965 13.1989855,52.7506553 C13.555726,53.0928461 13.9322549,53.4310778 14.3164793,53.7551693 C14.5165618,53.9237195 14.5456947,54.2268836 14.3824406,54.4321981 C14.2895451,54.5481471 14.1554239,54.6086668 14.0202033,54.6086668 L14.0202033,54.6086668 Z M46.174672,55.2630714 C46.0356037,55.2630714 45.8981844,55.1997237 45.8063883,55.0786843 C45.6469819,54.8694105 45.6832606,54.566812 45.8866412,54.4033523 C46.2763623,54.0894416 46.6633351,53.7613909 47.0365659,53.4276841 C47.2311517,53.2534779 47.526878,53.2749709 47.6961786,53.4757605 C47.8654792,53.6759846 47.8445914,53.9802799 47.649456,54.1544862 C47.264682,54.4989395 46.8650666,54.8371711 46.4627029,55.160697 C46.3775029,55.2302663 46.2758126,55.2630714 46.174672,55.2630714 L46.174672,55.2630714 Z M16.4750618,56.4333076 C16.3893121,56.4333076 16.3024631,56.4089866 16.2249586,56.3580821 C15.7885149,56.0724518 15.359217,55.7732469 14.9475088,55.4678203 C14.7380817,55.312279 14.6908095,55.0119429 14.8414211,54.7964475 C14.993132,54.5803865 15.2855603,54.5323101 15.4944376,54.6872858 C15.8913046,54.9814003 16.3063109,55.2704243 16.726814,55.5458738 C16.9444861,55.6884062 17.0087984,55.9859142 16.8702797,56.2104593 C16.781232,56.3546885 16.6295211,56.4333076 16.4750618,56.4333076 L16.4750618,56.4333076 Z M43.6967271,57.0503823 C43.5400691,57.0503823 43.3878085,56.970632 43.2987608,56.8241404 C43.1624408,56.5978985 43.2295014,56.3015217 43.4488227,56.1606861 C43.865478,55.8937207 44.2832327,55.6092215 44.6899938,55.3162383 C44.9016196,55.1629594 45.1923988,55.2161262 45.3413613,55.433884 C45.4897742,55.6516419 45.4386542,55.9514124 45.2270285,56.10356 C44.8065254,56.4078554 44.3744791,56.7014042 43.9429825,56.9779849 C43.8660277,57.0271925 43.7808277,57.0503823 43.6967271,57.0503823 L43.6967271,57.0503823 Z M19.1195589,57.9570467 C19.0502996,57.9570467 18.9793912,57.9412097 18.91343,57.907839 C18.4511514,57.6742443 17.9921709,57.4259438 17.5485814,57.1702905 C17.3232137,57.040767 17.2429609,56.7477838 17.368837,56.5158859 C17.4952627,56.2834223 17.7799955,56.1991472 18.0053632,56.3309331 C18.4346611,56.5775368 18.8788003,56.8179188 19.3262376,57.0441607 C19.5582013,57.1618064 19.6532955,57.4496992 19.5395123,57.6878188 C19.4581601,57.8586314 19.2921576,57.9570467 19.1195589,57.9570467 L19.1195589,57.9570467 Z M41.0412364,58.54471 C40.8658894,58.54471 40.6982378,58.4429011 40.6185346,58.2698261 C40.5074998,58.0294441 40.6069914,57.7426825 40.8406042,57.6289959 C41.2825447,57.4129349 41.7283329,57.1787746 42.1647767,56.9327365 C42.3912437,56.8054755 42.6754268,56.8908818 42.7991042,57.1233453 C42.9233312,57.3563745 42.84033,57.6493577 42.6138629,57.7766188 C42.1614786,58.0322721 41.6997497,58.2743509 41.2407692,58.4983304 C41.176457,58.5300042 41.108297,58.54471 41.0412364,58.54471 L41.0412364,58.54471 Z M21.9064225,59.1883681 C21.8520044,59.1883681 21.7970367,59.1787528 21.743718,59.1583911 C21.2654988,58.9757007 20.7839816,58.7777391 20.3134579,58.5701622 C20.0759973,58.4649597 19.9660619,58.1821573 20.0677521,57.9383817 C20.1699921,57.6934749 20.4453804,57.5814851 20.6817416,57.6849908 C21.1385234,57.8869117 21.6051993,58.0792173 22.0685772,58.2556859 C22.3109849,58.3484451 22.4341126,58.6250258 22.3445152,58.8744575 C22.2747062,59.0684599 22.0960611,59.1883681 21.9064225,59.1883681 L21.9064225,59.1883681 Z M38.2334851,59.7098557 C38.0383497,59.7098557 37.8558569,59.5837258 37.7904453,59.3818049 C37.7079937,59.1301108 37.8399162,58.8574894 38.0845226,58.7726487 C38.557245,58.6091889 39.0261197,58.431589 39.478504,58.242677 C39.7181633,58.1431306 39.9902535,58.2624732 40.0875464,58.5079456 C40.1842896,58.7545493 40.0688574,59.0350892 39.8291981,59.1352013 C39.3597738,59.3309005 38.8727597,59.5158532 38.3824477,59.6855347 C38.3329767,59.7025028 38.2829561,59.7098557 38.2334851,59.7098557 L38.2334851,59.7098557 Z M24.8004731,60.1317968 C24.7608963,60.1317968 24.7207699,60.1267063 24.6806434,60.1153942 C24.1837352,59.9807803 23.685178,59.8320263 23.2003627,59.673657 C22.9541073,59.5933411 22.8177873,59.322982 22.8958415,59.0701567 C22.973346,58.8167658 23.235542,58.674799 23.4828967,58.7568117 C23.9534205,58.9100906 24.4371364,59.0543198 24.9192033,59.1855401 C25.1693065,59.252847 25.318269,59.5164188 25.2523077,59.7732034 C25.1967903,59.9892644 25.0077014,60.1317968 24.8004731,60.1317968 L24.8004731,60.1317968 Z M35.3092023,60.5169736 C35.0915301,60.5169736 34.8963947,60.3597355 34.8513212,60.1317968 C34.8002012,59.8716186 34.964005,59.6170965 35.2168565,59.5644952 C35.6950757,59.4649488 36.1820897,59.3467374 36.663607,59.2138203 C36.9137101,59.1465134 37.16931,59.2975298 37.235821,59.55488 C37.3028816,59.8116645 37.1544687,60.0752363 36.9049153,60.1442401 C36.4052587,60.281682 35.9001053,60.4038526 35.4026474,60.5079239 C35.3713158,60.5141456 35.3399842,60.5169736 35.3092023,60.5169736 L35.3092023,60.5169736 Z M27.7813727,60.753962 C27.7632333,60.753962 27.745094,60.7528307 27.7264049,60.7505683 C27.6225159,60.738125 27.0596465,60.6662932 26.1840106,60.4796437 C25.9311591,60.4259112 25.7684547,60.1713891 25.820674,59.9106453 C25.8728933,59.6504672 26.1207978,59.4830482 26.3730996,59.5373462 C27.2113574,59.7155117 27.7384978,59.7828187 27.8357907,59.795262 C28.0919403,59.8263702 28.2755325,60.0650554 28.2458499,60.3291928 C28.2172667,60.5740997 28.0155352,60.753962 27.7813727,60.753962 L27.7813727,60.753962 Z M32.3101633,60.9406115 C32.0666563,60.9406115 31.8616267,60.7471747 31.844037,60.4937838 C31.825348,60.2285152 32.0193841,59.9983141 32.2771827,59.9796491 C32.7652961,59.944016 33.2622043,59.8902836 33.7530661,59.8207142 C34.011964,59.7828187 34.2455768,59.968337 34.2802065,60.2313432 C34.3159355,60.494915 34.1367408,60.7375594 33.8811408,60.7737581 C33.369941,60.8461555 32.8526948,60.9021504 32.3436936,60.9394803 C32.3327001,60.9406115 32.3211569,60.9406115 32.3101633,60.9406115 L32.3101633,60.9406115 Z M30.7969019,61 L30.7298413,61 C30.2230389,61 29.7250313,60.981335 29.2490109,60.9457019 C28.9912122,60.9264714 28.7982755,60.6957047 28.8169646,60.4304361 C28.8356536,60.1651674 29.0560741,59.9734275 29.3177205,59.9858708 C29.7712042,60.019807 30.2461253,60.0379064 30.7298413,60.0379064 L30.7969019,60.0379064 C31.0552502,60.0379064 31.2641276,60.2528362 31.2641276,60.5186704 C31.2641276,60.7845046 31.0552502,61 30.7969019,61 L30.7969019,61 Z" id="Fill-27" fill="#FFFFFF" mask="url(#mask-2)"></path>
                    <path d="M52.2176445,51 C52.013967,51 51.809266,50.9378424 51.6434582,50.8099239 C51.282161,50.5306653 51.2463383,50.0460164 51.5636248,49.7280218 C51.6199176,49.6712692 51.6762104,49.6154175 51.7325031,49.5577641 L51.49505,49.4577715 C51.0610839,49.2749021 50.8778765,48.8172782 51.085648,48.4353244 C51.294443,48.0533706 51.81336,47.8930221 52.2473261,48.0749906 L53.5103313,48.6100863 C53.7518784,48.7136822 53.9248508,48.9091633 53.9811435,49.1397769 C54.0364128,49.3703905 53.9688615,49.6118142 53.7958891,49.791981 C53.4888377,50.1144798 53.1807627,50.4297718 52.8726877,50.7396589 C52.7007388,50.9117182 52.4591917,51 52.2176445,51" id="Fill-28" fill="#FFFFFF" mask="url(#mask-2)"></path>
                    <path d="M20.980721,20.3932836 C20.9139692,20.3932836 20.846637,20.3805533 20.782207,20.3516208 C20.5326133,20.2416773 20.418845,19.9511951 20.5291306,19.7029542 C20.7386732,19.2284613 20.9720142,18.74471 21.2227688,18.2650092 C21.3487265,18.0237122 21.6476584,17.9299709 21.8885453,18.0561166 C22.1305931,18.1822622 22.2246261,18.4791097 22.0986684,18.7204067 C21.8577815,19.181012 21.6337276,19.6450893 21.4328918,20.0993294 C21.3516288,20.2839188 21.1705283,20.3932836 20.980721,20.3932836 M19.9475194,23.339769 C19.9074683,23.339769 19.8662563,23.3351398 19.8250443,23.3241455 C19.5609394,23.2570221 19.4013156,22.9891072 19.4692283,22.7258215 C19.5980882,22.2200814 19.7559707,21.7039257 19.9370712,21.1895059 C20.0270411,20.933164 20.3097204,20.7954453 20.5668599,20.8880293 C20.8239994,20.9788773 20.9592443,21.2595225 20.8692745,21.5158645 C20.6968808,22.0030877 20.547705,22.4920469 20.4258104,22.9688544 C20.3689263,23.1916347 20.1680905,23.339769 19.9475194,23.339769 M19.4941876,26.4268664 L19.4785155,26.4268664 C19.2057038,26.417608 18.9920981,26.1907772 19.0002244,25.9188118 C19.0176379,25.3905044 19.0669762,24.8477307 19.1482392,24.3072717 C19.1877098,24.0376208 19.4384644,23.8553461 19.7095347,23.8923797 C19.9788637,23.9323066 20.1651882,24.182862 20.1245567,24.4519342 C20.0496786,24.9559383 20.0032426,25.4599424 19.9881509,25.9506375 C19.9788637,26.2162378 19.7600339,26.4268664 19.4941876,26.4268664 M19.7942805,29.5255367 C19.5702266,29.5255367 19.367069,29.3727732 19.3136676,29.1453637 C19.1911925,28.6216856 19.1029641,28.0818052 19.0507236,27.5419248 C19.0251837,27.2711166 19.2242782,27.0303983 19.4953485,27.0049377 C19.7716429,26.9777411 20.0084666,27.1773753 20.0345869,27.4476049 C20.0816034,27.9446651 20.1628664,28.4399895 20.2760543,28.9214262 C20.3381624,29.1858692 20.1727341,29.4508909 19.9068878,29.5128064 C19.8691586,29.5214862 19.8320097,29.5255367 19.7942805,29.5255367 M20.9052624,32.4355672 C20.729386,32.4355672 20.559314,32.3412473 20.4699247,32.1763321 C20.2104634,31.6966313 19.9823464,31.199571 19.7913782,30.6996174 C19.6938626,30.4455901 19.8215616,30.1608944 20.0769598,30.0642598 C20.3306166,29.9676253 20.6167786,30.0943496 20.7142943,30.3489556 C20.8901707,30.8095609 21.1008742,31.267273 21.3394393,31.7099402 C21.4688797,31.9495013 21.3789099,32.247506 21.1386035,32.3765449 C21.0643058,32.4164718 20.9842037,32.4355672 20.9052624,32.4355672 M22.6976931,34.9908853 C22.5601264,34.9908853 22.4237206,34.9335989 22.3256245,34.8224982 C21.9651648,34.4110781 21.6285036,33.9840344 21.324928,33.5540975 C21.1682065,33.3313173 21.2221883,33.0246328 21.4450813,32.8683974 C21.6685547,32.7110046 21.9756129,32.7653977 22.1329149,32.9881779 C22.4161747,33.3897609 22.7313593,33.7884507 23.0697618,34.1744102 C23.249121,34.3792523 23.2282248,34.6899873 23.0227453,34.8693688 C22.9287124,34.9503798 22.8132028,34.9908853 22.6976931,34.9908853 M24.9660931,37.143463 C24.8575489,37.143463 24.7478438,37.1081654 24.6567131,37.0352555 C24.2347257,36.6973239 23.8272495,36.3426115 23.4453132,35.9821126 C23.2467992,35.7952087 23.2386729,35.4833164 23.4261583,35.2859968 C23.6136438,35.0886771 23.9259261,35.080576 24.1244401,35.2669013 C24.4872216,35.6094621 24.874382,35.9462363 25.2754732,36.2679657 C25.4884984,36.4380888 25.5221646,36.7482451 25.3509317,36.960031 C25.253416,37.0809688 25.1106253,37.143463 24.9660931,37.143463 M27.5403904,38.9262834 C27.4539033,38.9262834 27.3662553,38.9037161 27.2861532,38.8556881 C26.8235343,38.5785148 26.3713634,38.2874539 25.9418302,37.9906065 C25.7177763,37.836107 25.6620531,37.5288439 25.8176138,37.3060636 C25.972594,37.0827048 26.2808132,37.0265757 26.5042866,37.1816539 C26.9169868,37.4663497 27.3511636,37.7452589 27.7957886,38.0125952 C28.0297101,38.1526285 28.1045882,38.4552624 27.9641192,38.6878797 C27.8718276,38.8418005 27.7081406,38.9262834 27.5403904,38.9262834 M30.3149431,40.3879532 C30.2452891,40.3879532 30.1750546,40.3734869 30.1077224,40.3428185 C29.621305,40.1183023 29.1401116,39.8816345 28.6774927,39.6380228 C28.4366058,39.5112985 28.3443142,39.2132938 28.4714328,38.9725754 C28.5991319,38.7330144 28.8992247,38.641009 29.1383703,38.7677334 C29.585317,39.0026652 30.0508382,39.2318106 30.5221639,39.4488043 C30.7694358,39.5627984 30.8773995,39.8550166 30.7636313,40.1021001 C30.6800464,40.2820602 30.5012677,40.3879532 30.3149431,40.3879532 M33.227643,41.5539328 C33.174822,41.5539328 33.1208402,41.5458317 33.0680192,41.5273149 C32.572895,41.3589277 32.0690641,41.1720238 31.5716182,40.9718109 C31.3185418,40.8705472 31.1960668,40.5841155 31.298226,40.3312455 C31.3998048,40.0795327 31.6877082,39.956859 31.9407846,40.0587013 C32.4219779,40.2519704 32.9089758,40.4330878 33.3878473,40.5962671 C33.6455673,40.6836433 33.783134,40.9642885 33.6949056,41.221209 C33.6246711,41.4260511 33.4331224,41.5539328 33.227643,41.5539328 M36.1792331,42.6192273 C36.1182858,42.6192273 36.0573385,42.6088116 35.9975521,42.5850869 C35.4826926,42.3819808 34.9951143,42.1968128 34.5429435,42.0324762 C34.2869649,41.9393136 34.1546222,41.6569324 34.2480747,41.4017478 C34.3415272,41.1459846 34.624787,41.0169456 34.8813461,41.107215 C35.3410628,41.2744448 35.8367674,41.4630847 36.3603336,41.6696627 C36.6139904,41.7691905 36.7382068,42.0556222 36.6383693,42.3079136 C36.5617499,42.5017613 36.3754253,42.6192273 36.1792331,42.6192273 M39.0803239,43.8129821 C39.0153135,43.8129821 38.9497226,43.8002518 38.887034,43.7730552 C38.3948121,43.5647412 37.9124578,43.3622138 37.4446148,43.168366 C37.1926994,43.0642091 37.0731266,42.7760414 37.1776077,42.5249073 C37.2820887,42.2737733 37.5717335,42.15515 37.8230685,42.2587284 C38.2943942,42.4537334 38.7796507,42.6574182 39.2741944,42.8680467 C39.5249489,42.9739397 39.6416194,43.2632646 39.5348166,43.5138201 C39.4547144,43.700724 39.2718726,43.8129821 39.0803239,43.8129821 M41.9564554,45.0651805 C41.8891232,45.0651805 41.8212105,45.0512929 41.7556196,45.0223604 C41.2767481,44.8099959 40.7978765,44.5993673 40.3236486,44.3933679 C40.0734745,44.2840031 39.9591258,43.9940995 40.0682504,43.7447014 C40.1773751,43.4953033 40.4687612,43.3824665 40.7183548,43.4900954 C41.195485,43.6972521 41.6760979,43.9096166 42.1572913,44.1231384 C42.4068849,44.2336606 42.5183314,44.5247215 42.4080458,44.7729623 C42.3256219,44.9563943 42.1451018,45.0651805 41.9564554,45.0651805 M44.8163343,46.3526766 C44.7478412,46.3526766 44.6781872,46.338789 44.6114354,46.3081205 C44.1430119,46.0945987 43.6670426,45.8787623 43.1864297,45.6635045 C42.9374165,45.5518251 42.8265505,45.2601855 42.9385774,45.0125234 C43.0500239,44.7642825 43.3425709,44.6537604 43.5915841,44.7648612 C44.0739383,44.9812763 44.5522294,45.19827 45.0223942,45.4129491 C45.2702465,45.5263645 45.3793712,45.8180041 45.2656029,46.0656662 C45.1825985,46.2467837 45.0038198,46.3526766 44.8163343,46.3526766 M47.6657651,47.6662119 C47.5955306,47.6662119 47.5247157,47.651167 47.456803,47.6199199 C47.0011495,47.4081341 46.5257606,47.1876684 46.0358605,46.961995 C45.7880082,46.8485796 45.6800445,46.5557827 45.7943932,46.3086992 C45.9081615,46.0616157 46.2024498,45.9534081 46.4491412,46.0679808 C46.9407826,46.2936543 47.4173324,46.5152772 47.8747273,46.7282204 C48.1219991,46.8427931 48.228802,47.1361686 48.1132924,47.3826735 C48.0297075,47.5608976 47.8515092,47.6662119 47.6657651,47.6662119 M50.5059087,49 C50.4345133,49 50.3625375,48.9843765 50.2940443,48.9519721 L48.8760041,48.2830527 C48.6293127,48.1673228 48.5242512,47.8733686 48.6403413,47.6274424 C48.7570118,47.3820948 49.0513001,47.2767805 49.2974111,47.3925105 L50.7177731,48.0625871 C50.9644645,48.1800531 51.0689456,48.4728499 50.952275,48.7187761 C50.8675293,48.8964217 50.6904919,49 50.5059087,49" id="Fill-29" fill="#FFFFFF" mask="url(#mask-2)"></path>
                    <path d="M39.8023667,18 C39.659457,18 39.5155618,17.9663159 39.3834935,17.8933336 C38.9823609,17.6725156 38.8453647,17.186903 39.0769769,16.8060854 C39.0976742,16.7724013 39.1164003,16.7368458 39.1341408,16.6984834 C38.9587068,16.6610566 38.7744026,16.6133374 38.5802426,16.5534546 C38.1396866,16.4177825 37.8982185,15.968661 38.0411282,15.5504166 C38.1830523,15.1331079 38.6561326,14.9038688 39.0976742,15.0386053 C39.6466444,15.2079615 39.9354205,15.2088972 40.0566474,15.1939264 C40.3079713,15.161178 40.5602808,15.2425813 40.7435994,15.4100661 C40.9259324,15.577551 41.0185773,15.8142755 40.9968945,16.0538069 C40.938745,16.6657349 40.7820372,17.1878387 40.5297277,17.6023404 C40.3740054,17.8577782 40.0921284,18 39.8023667,18" id="Fill-30" fill="#FFFFFF" mask="url(#mask-2)"></path>
                    <path d="M39.2417411,18 C39.1162493,18 38.9889775,17.9670831 38.8714959,17.8984279 C38.3401584,17.5833662 37.7714404,17.0510531 37.1813621,16.3193576 C36.9099082,15.9826649 36.9472888,15.4776257 37.2659133,15.191719 C37.5836477,14.9039313 38.0615845,14.9453126 38.3330383,15.2810649 C38.9240066,16.0137008 39.3547727,16.3494531 39.6128763,16.5018112 C39.9777814,16.7190627 40.1077233,17.2062327 39.9030204,17.5908901 C39.7641784,17.8532847 39.5069648,18 39.2417411,18" id="Fill-31" fill="#FFFFFF" mask="url(#mask-2)"></path>
                    <path d="M39.5553991,15 C39.4576746,15 39.3617142,14.9528372 39.3038557,14.8654988 C39.2191847,14.7376353 39.1320441,14.5989418 39.0420812,14.449069 C38.9694053,14.3278432 38.9926898,14.1730795 39.0978229,14.0777059 C39.2029561,13.983031 39.3610086,13.9735985 39.47602,14.0563953 C39.4791952,14.0584914 39.6333669,14.1685379 39.8616258,14.312821 C40.001333,14.4012075 40.0419045,14.585317 39.9526471,14.7233118 C39.9205427,14.7736187 39.8753849,14.8106502 39.8245823,14.8337076 C39.8016505,14.8801716 39.766371,14.921046 39.7194491,14.9514398 C39.6686465,14.9842791 39.6118464,15 39.5553991,15" id="Fill-32" fill="#FFFFFF" mask="url(#mask-2)"></path>
                    <path d="M33.6749614,0.996867417 L33.6571807,0.996867417 C33.2728877,0.983101699 32.886874,0.975645268 32.4997132,0.975645268 L32.1136995,0.977939554 L32.1073902,0.977939554 C31.8406795,0.977939554 31.6227223,0.763997353 31.6198544,0.496139422 C31.6158394,0.226560777 31.8315023,0.00516214428 32.101081,0.00229428634 L32.4997132,0 C32.898919,0 33.2964041,0.00688285903 33.6921685,0.0212221487 C33.9617472,0.0309728657 34.172248,0.256960071 34.1624972,0.526538716 C34.1527465,0.789808074 33.93651,0.996867417 33.6749614,0.996867417 L33.6749614,0.996867417 Z M28.9785572,1.16721818 C28.7330686,1.16721818 28.5219943,0.982528127 28.4944628,0.732450916 C28.4652107,0.464019413 28.6585043,0.223119347 28.9263622,0.194440768 C29.4523274,0.136510038 29.985749,0.0917714538 30.5117141,0.059651445 C30.7749835,0.0424442974 31.0118685,0.248356497 31.0279285,0.517935142 C31.0445621,0.786940216 30.8392235,1.01808957 30.5702184,1.03414957 C30.0603133,1.06454886 29.5429517,1.1081403 29.032473,1.16435032 C29.0146923,1.16664461 28.996338,1.16721818 28.9785572,1.16721818 L28.9785572,1.16721818 Z M36.7974851,1.26071035 C36.776263,1.26071035 36.7544672,1.2595632 36.7326715,1.25669535 C36.2244871,1.1890139 35.7128612,1.13280388 35.197794,1.08921244 C34.9293625,1.06684315 34.7297595,0.830531657 34.7527024,0.562100154 C34.7756453,0.293095081 35.010236,0.0963600265 35.2798147,0.117008604 C35.8103684,0.161747187 36.3380543,0.220251489 36.8611516,0.289080079 C37.1284359,0.324641518 37.3159938,0.569556585 37.2804324,0.836840944 C37.2483124,1.08232958 37.0383852,1.26071035 36.7974851,1.26071035 L36.7974851,1.26071035 Z M25.8841385,1.65991617 C25.6581513,1.65991617 25.455107,1.50275756 25.406927,1.27218178 C25.3518641,1.00891242 25.5204942,0.749658063 25.7843371,0.694595191 C26.2988308,0.586763733 26.8253695,0.489256563 27.3490404,0.406662255 C27.6151776,0.35790867 27.8652548,0.545466578 27.9076991,0.811603794 C27.9501434,1.07774101 27.7688948,1.32781822 27.5027576,1.36968895 C26.9945731,1.45113611 26.4835208,1.54520185 25.9850871,1.65016545 C25.9512464,1.65647474 25.9174057,1.65991617 25.8841385,1.65991617 L25.8841385,1.65991617 Z M39.8787117,1.83026693 C39.8420031,1.83026693 39.8047209,1.82625193 39.7668652,1.81764836 C39.2678579,1.70006618 38.7642621,1.59395544 38.2560777,1.50046327 C37.9910876,1.45113611 37.8161482,1.1970439 37.8649018,0.932053827 C37.914229,0.667063755 38.1700419,0.490977278 38.4333113,0.540304434 C38.9512464,0.636090889 39.4749173,0.746216634 39.9905581,0.867240238 C40.2526803,0.92918597 40.4155747,1.19188176 40.3536289,1.45457754 C40.3008604,1.67884403 40.1006839,1.83026693 39.8787117,1.83026693 L39.8787117,1.83026693 Z M22.8539598,2.45488639 C22.6463269,2.45488639 22.4541805,2.32239135 22.3882197,2.11361129 C22.3073461,1.85665122 22.4501655,1.58248401 22.706552,1.50161041 C23.2118685,1.34273108 23.7263622,1.19417604 24.2362674,1.05996029 C24.4972424,0.992278844 24.7633797,1.14829032 24.8322083,1.40869182 C24.8998897,1.66966689 24.7438782,1.93637767 24.4834767,2.00463269 C23.989058,2.1336863 23.4900507,2.27765277 23.0007942,2.4325171 C22.9520406,2.44742996 22.9021399,2.45488639 22.8539598,2.45488639 L22.8539598,2.45488639 Z M42.8888154,2.69922788 C42.8366203,2.69922788 42.7832782,2.69062431 42.7310832,2.67284359 C42.241253,2.50536069 41.7456872,2.34877565 41.2592985,2.20882418 C41.0000441,2.13425987 40.8509155,1.86410765 40.9254798,1.60542687 C41.0000441,1.34559894 41.2719171,1.19933819 41.5294507,1.27160821 C42.0313258,1.41557467 42.5418045,1.57674829 43.0471211,1.74939334 C43.3017869,1.83657622 43.4377234,2.11418487 43.3511141,2.36942422 C43.2817119,2.57189499 43.0918597,2.69922788 42.8888154,2.69922788 L42.8888154,2.69922788 Z M19.918994,3.54237812 C19.7297154,3.54237812 19.5496139,3.4316788 19.4698875,3.24641518 C19.3643503,2.99863225 19.4790646,2.71184646 19.7268476,2.60630929 C20.2132363,2.3981028 20.7093757,2.20079418 21.2015001,2.01782484 C21.4550188,1.92605339 21.7354953,2.05395985 21.8289874,2.30575778 C21.9224796,2.55927642 21.793426,2.83975292 21.5404809,2.93324509 C21.0632694,3.11047871 20.5820428,3.30205162 20.110567,3.50337525 C20.0480477,3.53033311 19.9826605,3.54237812 19.918994,3.54237812 L19.918994,3.54237812 Z M45.8054269,3.8635782 C45.7377454,3.8635782 45.6689168,3.84981249 45.6029561,3.81941319 C45.1354953,3.60547099 44.6571366,3.40070593 44.1810721,3.21085374 C43.9309949,3.11162585 43.8088242,2.82713435 43.9091992,2.57705714 C44.0090007,2.32640635 44.2917715,2.20480918 44.5429958,2.30461063 C45.0339731,2.50019854 45.5272447,2.71127289 46.0090448,2.93209795 C46.2539598,3.04394441 46.3617913,3.33359806 46.2493713,3.57851313 C46.1679241,3.75804103 45.9906905,3.8635782 45.8054269,3.8635782 L45.8054269,3.8635782 Z M17.1073461,4.91264064 C16.9347011,4.91264064 16.7677917,4.82144275 16.6788882,4.66026914 C16.549261,4.42395764 16.6352967,4.12684756 16.8716082,3.99722038 C17.339069,3.74026031 17.8139863,3.4941981 18.2831679,3.26649018 C18.5252151,3.14890801 18.817163,3.24985661 18.9353188,3.49190382 C19.0529009,3.73395103 18.9519523,4.02589896 18.7099051,4.14348114 C18.2550629,4.36487977 17.7944849,4.60348555 17.3413633,4.85241562 C17.2673726,4.89371277 17.186499,4.91264064 17.1073461,4.91264064 L17.1073461,4.91264064 Z M48.5912641,5.30840503 C48.5080962,5.30840503 48.4237812,5.28660931 48.3469226,5.24187073 C47.901831,4.98318994 47.4504302,4.73540702 46.9921465,4.49737481 C46.7529671,4.37348334 46.659475,4.07866755 46.78394,3.8394882 C46.9078315,3.59973527 47.2020737,3.50624311 47.4418266,3.63128171 C47.9127289,3.87562321 48.3819104,4.13373042 48.8373263,4.39872049 C49.0701963,4.53408339 49.1493492,4.83234061 49.0139863,5.06578425 C48.9227884,5.22122215 48.7593205,5.30840503 48.5912641,5.30840503 L48.5912641,5.30840503 Z M14.4413854,6.55305537 C14.2853739,6.55305537 14.1328039,6.47906464 14.0381646,6.34026031 C13.8861681,6.11828811 13.9429517,5.81429517 14.1649239,5.6622987 C14.6060004,5.36002647 15.055107,5.06922568 15.4990514,4.7962056 C15.7290536,4.65510699 16.0296051,4.72737701 16.1701302,4.95680565 C16.3112288,5.18680785 16.2395323,5.48735936 16.0095301,5.62845797 C15.5793514,5.8923009 15.1440106,6.17449812 14.7161262,6.46759321 C14.6318112,6.52552394 14.5360247,6.55305537 14.4413854,6.55305537 L14.4413854,6.55305537 Z M51.2210898,7.01822193 C51.1218619,7.01822193 51.0220604,6.98839621 50.9354511,6.9258769 C50.5190382,6.62532539 50.0905802,6.33165674 49.6621222,6.05290095 C49.436135,5.90606662 49.371895,5.6037944 49.5187293,5.37780719 C49.6655636,5.15239356 49.9678359,5.08872711 50.1932495,5.2344143 C50.6354732,5.52177366 51.0771233,5.82461946 51.5067284,6.13492169 C51.7252592,6.2920803 51.7745864,6.59779396 51.6168542,6.81632473 C51.5216413,6.94824619 51.3725127,7.01822193 51.2210898,7.01822193 L51.2210898,7.01822193 Z M11.9457754,8.44526803 C11.8069711,8.44526803 11.6681668,8.38619016 11.5718068,8.27147584 C11.3985881,8.0644165 11.425546,7.75698213 11.6320318,7.58376351 C12.0398412,7.24191485 12.4585484,6.90809618 12.875535,6.59148467 C13.0906243,6.42916391 13.396338,6.47160821 13.5592323,6.68612398 C13.7221266,6.90121332 13.6796823,7.20692698 13.4651666,7.36982131 C13.0607986,7.67610854 12.6547099,7.99960291 12.2595191,8.33112729 C12.1677476,8.40798588 12.0564747,8.44526803 11.9457754,8.44526803 L11.9457754,8.44526803 Z M53.6702405,8.97582175 C53.5560997,8.97582175 53.4408118,8.93567174 53.3478932,8.853651 C52.9618795,8.51352305 52.5678359,8.18257225 52.1651886,7.86137216 C51.9546878,7.69274211 51.9208471,7.38588131 52.0889036,7.17480697 C52.2569601,6.9643062 52.564968,6.93103905 52.7748952,7.09852195 C53.1878668,7.42832561 53.5973969,7.77246856 53.9937348,8.12234723 C54.195632,8.30015442 54.2151335,8.60873594 54.0367527,8.81063313 C53.9403927,8.92018531 53.8056034,8.97582175 53.6702405,8.97582175 L53.6702405,8.97582175 Z M9.64460622,10.5737922 C9.5218619,10.5737922 9.39797044,10.5273329 9.30333113,10.4344143 C9.11061107,10.2457092 9.10774322,9.93712773 9.29644827,9.74440768 C9.66640194,9.36757114 10.0506949,8.99417604 10.4378557,8.6356938 C10.6363115,8.45329804 10.944893,8.46534304 11.1278623,8.66322524 C11.3108317,8.86110743 11.2982131,9.16968895 11.1009045,9.35265828 C10.7246415,9.70024266 10.35182,10.0621663 9.99333775,10.4275314 C9.89755129,10.5250386 9.77136554,10.5737922 9.64460622,10.5737922 L9.64460622,10.5737922 Z M55.9174939,11.1617031 C55.7867196,11.1617031 55.6570924,11.1095081 55.5607324,11.0068387 C55.209133,10.6305758 54.8495036,10.2623428 54.4801235,9.90386058 C54.2874035,9.7157291 54.2828149,9.40714758 54.4709464,9.21385396 C54.6585043,9.01941319 54.9676594,9.01597176 55.160953,9.20410324 C55.5343481,9.56717406 55.9088904,9.94917273 56.2736819,10.3403486 C56.4577984,10.5376572 56.4474741,10.8462387 56.2501655,11.0303552 C56.1560997,11.1181116 56.0367968,11.1617031 55.9174939,11.1617031 L55.9174939,11.1617031 Z M7.56139422,12.915685 C7.45356276,12.915685 7.3457313,12.8806971 7.25510699,12.8078535 C7.04517979,12.6386499 7.01248621,12.3317891 7.18168983,12.1218619 C7.51149349,11.7129054 7.85735716,11.3039488 8.21067726,10.9070373 C8.38963159,10.7057137 8.6982131,10.6873594 8.89953673,10.8668873 C9.10086036,11.0464152 9.11864108,11.3549967 8.93968674,11.5557467 C8.59783808,11.9406133 8.26459298,12.3335098 7.94167218,12.7344364 C7.84473858,12.8537392 7.70363997,12.915685 7.56139422,12.915685 L7.56139422,12.915685 Z M57.9399073,13.5540702 C57.7936466,13.5540702 57.648533,13.4881094 57.552173,13.3630708 C57.2395764,12.9546878 56.9166556,12.5531877 56.5851313,12.1602912 C56.4113391,11.954379 56.4371498,11.6463711 56.643062,11.4725789 C56.8489742,11.2993602 57.1564086,11.325171 57.3307743,11.5305096 C57.672623,11.9348776 58.0047209,12.3484227 58.3270682,12.7688507 C58.4911096,12.9827929 58.4503861,13.2896537 58.2364439,13.4536951 C58.1481138,13.5213766 58.0437238,13.5540702 57.9399073,13.5540702 L57.9399073,13.5540702 Z M5.71449371,15.4502978 C5.62272226,15.4502978 5.53037723,15.4244871 5.44778293,15.3705714 C5.22236929,15.2225899 5.15927642,14.9197441 5.30725789,14.694904 C5.59920582,14.2492389 5.90434591,13.8087359 6.21350099,13.3854401 C6.37295389,13.1674829 6.67866755,13.12045 6.89547761,13.2781822 C7.11286124,13.4370615 7.16104125,13.7427752 7.00216192,13.9601588 C6.70218398,14.3708361 6.40679462,14.7981469 6.12345025,15.2300463 C6.02938451,15.3728657 5.87394661,15.4502978 5.71449371,15.4502978 L5.71449371,15.4502978 Z M59.7197,16.1299801 C59.5562321,16.1299801 59.3967792,16.0479594 59.3044341,15.8994044 C59.0331348,15.4629164 58.7509376,15.0321641 58.4589896,14.6094419 C58.305846,14.3880432 58.362056,14.0840503 58.5834547,13.9309067 C58.8054269,13.7777631 59.1094198,13.8339731 59.2625634,14.0553717 C59.5613942,14.4878447 59.8544893,14.9352305 60.1332451,15.3843371 C60.2754908,15.6131921 60.2055151,15.9143172 59.9760865,16.056563 C59.89636,16.1064637 59.8074564,16.1299801 59.7197,16.1299801 L59.7197,16.1299801 Z M4.12455328,18.1552614 C4.04826826,18.1552614 3.97083609,18.1374807 3.89856607,18.099625 C3.65938672,17.9751599 3.56761527,17.6797706 3.69265387,17.4411648 C3.93756894,16.9731304 4.19797044,16.5039488 4.46640194,16.0479594 C4.60291198,15.8156629 4.90174278,15.7376572 5.13461284,15.8747408 C5.36690933,16.0118244 5.4443415,16.3106552 5.30725789,16.5429517 C5.04742996,16.9851754 4.79505846,17.4394441 4.55702625,17.8937128 C4.46984337,18.0600485 4.30006618,18.1552614 4.12455328,18.1552614 L4.12455328,18.1552614 Z M61.2373704,18.8664902 C61.0572689,18.8664902 60.8840503,18.7666887 60.7991617,18.5946173 C60.5743216,18.1380543 60.3339951,17.6786234 60.0844915,17.2295169 C59.9537172,16.993779 60.0391794,16.6966689 60.2749173,16.5658946 C60.5106552,16.4351202 60.8071917,16.5194353 60.9385396,16.7557467 C61.1949261,17.218619 61.4432826,17.6923891 61.6744319,18.1632914 C61.7937348,18.4053386 61.6945069,18.6972866 61.4524597,18.8165895 C61.3830576,18.8510038 61.3096404,18.8664902 61.2373704,18.8664902 L61.2373704,18.8664902 Z M2.80648577,21.0041915 C2.74568718,21.0041915 2.68374145,20.9927201 2.62409001,20.96863 C2.3740128,20.8676814 2.25356276,20.5826164 2.35451136,20.3331127 C2.5535407,19.8409883 2.76690933,19.3482903 2.98830796,18.8705052 C3.10130157,18.6261637 3.39152879,18.5212001 3.63587028,18.632473 C3.88021178,18.7454666 3.9868961,19.0356938 3.87332892,19.2806089 C3.65938672,19.7440547 3.45232738,20.2212663 3.25903375,20.699625 C3.18217516,20.8894772 2.9997794,21.0041915 2.80648577,21.0041915 L2.80648577,21.0041915 Z M62.4791529,21.7360688 C62.2818443,21.7360688 62.0960071,21.6156188 62.0220163,21.4194573 C61.8413413,20.9393779 61.6474741,20.4592985 61.4455769,19.9924112 C61.338319,19.7457754 61.4518862,19.4584161 61.6996691,19.3511582 C61.9468784,19.2439003 62.2342378,19.3574675 62.3414957,19.6046768 C62.5497022,20.0859034 62.7493051,20.5814692 62.9357159,21.0770351 C63.0309287,21.328833 62.9030223,21.6098831 62.6506508,21.705096 C62.5938672,21.7263181 62.5359365,21.7360688 62.4791529,21.7360688 L62.4791529,21.7360688 Z M1.77692477,23.9672623 C1.73161262,23.9672623 1.68572689,23.960953 1.63926759,23.9477609 C1.38116038,23.8720494 1.23260534,23.6007501 1.30831679,23.3420693 C1.45801897,22.831017 1.62148687,22.3211118 1.79413192,21.825546 C1.88246195,21.5714538 2.16179131,21.4366645 2.41530995,21.5255681 C2.66997573,21.6144717 2.80419148,21.8926539 2.71528789,22.1473197 C2.54837856,22.6268255 2.3900728,23.1212442 2.24495919,23.6168101 C2.18301346,23.8296051 1.98799912,23.9672623 1.77692477,23.9672623 L1.77692477,23.9672623 Z M63.4347231,24.7203618 C63.2190602,24.7203618 63.0217516,24.5769689 62.9632473,24.3584381 C62.8301787,23.860578 62.6856386,23.3667328 62.5290536,22.8780499 C62.4470329,22.6210898 62.5881315,22.3469226 62.8450916,22.2643283 C63.1020516,22.1828811 63.3767924,22.3239797 63.4588131,22.5803662 C63.6188396,23.0810942 63.7691154,23.5944408 63.906199,24.1066402 C63.9761747,24.3670417 63.8213104,24.6343261 63.5609089,24.7043018 C63.5184646,24.7157732 63.4765939,24.7203618 63.4347231,24.7203618 L63.4347231,24.7203618 Z M1.04504743,27.0140746 C1.01522171,27.0140746 0.984248842,27.0112067 0.953849548,27.0060446 C0.688859475,26.9561438 0.515067284,26.7003309 0.564968012,26.436488 C0.663048754,25.9151114 0.775468784,25.3914405 0.898213104,24.8798147 C0.961305978,24.618266 1.22629605,24.4547981 1.48727112,24.5196117 C1.74881977,24.5827046 1.91056695,24.845974 1.84747408,25.1080962 C1.72817119,25.6042356 1.61919259,26.1118465 1.5239797,26.6165895 C1.47981469,26.8511802 1.27504964,27.0140746 1.04504743,27.0140746 L1.04504743,27.0140746 Z M64.090889,27.7849548 C63.8562983,27.7849548 63.6492389,27.6151776 63.6096625,27.3759982 C63.5270682,26.8672402 63.4307081,26.3573351 63.3234503,25.8600485 C63.2672402,25.5962056 63.4352967,25.3369512 63.6985661,25.2801677 C63.9618354,25.2251048 64.2210898,25.3914405 64.2778734,25.6547099 C64.3879991,26.16863 64.4878006,26.6945952 64.5732627,27.218266 C64.6168542,27.4844033 64.4361791,27.735054 64.1700419,27.7786455 C64.1436576,27.7832341 64.1172733,27.7849548 64.090889,27.7849548 L64.090889,27.7849548 Z M0.615442312,30.118244 C0.601103022,30.118244 0.586763733,30.1176704 0.571850871,30.1170968 C0.303419369,30.0930068 0.1049636,29.8555482 0.129053607,29.5876903 C0.176086477,29.060578 0.236311493,28.5288771 0.308581513,28.0063534 C0.345290095,27.7396426 0.588484447,27.5480697 0.859210236,27.5899404 C1.12592102,27.6272226 1.31233179,27.8732848 1.27562321,28.1405692 C1.2050739,28.6470329 1.1465696,29.1626737 1.10125745,29.673726 C1.07831458,29.9272447 0.865519523,30.118244 0.615442312,30.118244 L0.615442312,30.118244 Z M64.4447827,30.8983013 C64.1895433,30.8983013 63.974454,30.6998456 63.9578204,30.4417384 C63.9251268,29.9260975 63.8792411,29.4133245 63.821884,28.9045665 C63.7909111,28.6367086 63.9836311,28.3958085 64.2514891,28.3648356 C64.5204942,28.3436135 64.7613942,28.5271564 64.7912199,28.7950143 C64.851445,29.3221266 64.8984778,29.8549746 64.9323186,30.3792191 C64.9489521,30.6476506 64.7453342,30.8805206 64.4763291,30.8971542 C64.4660049,30.8983013 64.455107,30.8983013 64.4447827,30.8983013 L64.4447827,30.8983013 Z M0.489256563,33.2487977 C0.220825061,33.2487977 0.00286785793,33.0331348 0.00114714317,32.7647033 L0,32.5037282 C0,32.0557688 0.00860357379,31.6146923 0.026384293,31.1741893 C0.0372821531,30.9057578 0.256386499,30.7021399 0.533421575,30.7061549 C0.802426649,30.7170527 1.01235385,30.9441871 1.00145599,31.2137657 C0.984248842,31.640503 0.975645268,32.0695345 0.975645268,32.5002868 L0.976792411,32.7578204 C0.979086698,33.0279726 0.761703066,33.2476506 0.492124421,33.2487977 L0.489256563,33.2487977 Z M64.4746084,34.5542466 C64.467152,34.5542466 64.4585484,34.5542466 64.4505184,34.5536731 C64.1815133,34.5404809 63.9738804,34.3116259 63.9870726,34.0426208 C64.0117362,33.5327156 64.0243547,33.0176484 64.0243547,32.5002868 C64.0243547,32.3282153 64.0232076,32.1561438 64.0203397,31.9846459 C64.0157512,31.7156409 64.2308405,31.4936687 64.5004191,31.4890801 C64.7843371,31.4856386 64.99197,31.6995809 64.995985,31.9691595 C64.9988529,32.1463931 65,32.3224796 65,32.5002868 C65,33.0319876 64.9873814,33.5665564 64.9615707,34.0896537 C64.9489521,34.3506287 64.7332892,34.5542466 64.4746084,34.5542466 L64.4746084,34.5542466 Z M0.664769468,36.3782043 C0.418133686,36.3782043 0.205912199,36.1917935 0.180101478,35.9411427 C0.125038606,35.4191926 0.0820207368,34.8851974 0.0516214428,34.3552173 C0.0367085815,34.0862122 0.242620781,33.8556364 0.511625855,33.8407236 C0.767438782,33.8195014 1.01120671,34.0305758 1.02669314,34.3001544 C1.05537172,34.8169424 1.09724244,35.3297154 1.1505846,35.839047 C1.17868961,36.1069049 0.984248842,36.3472314 0.716390911,36.3753364 C0.698610192,36.3776307 0.681976616,36.3782043 0.664769468,36.3782043 L0.664769468,36.3782043 Z M64.1723362,37.6733289 C64.1488198,37.6733289 64.1247298,37.6716082 64.1006398,37.6687403 C63.8345025,37.6291639 63.6498125,37.3819546 63.6888154,37.1152438 C63.7633797,36.6087801 63.8253254,36.0977278 63.8752261,35.5832341 C63.9016104,35.3153761 64.1396426,35.1174939 64.4080741,35.1444518 C64.6765056,35.1702625 64.8726671,35.4088683 64.8468564,35.6772998 C64.7958085,36.2021178 64.7315685,36.7338187 64.6547099,37.2563424 C64.6191485,37.4995367 64.4103684,37.6733289 64.1723362,37.6733289 L64.1723362,37.6733289 Z M1.14484889,39.4749173 C0.918288109,39.4749173 0.714670196,39.3166115 0.667063755,39.0854622 C0.561526583,38.5709685 0.4663137,38.0444297 0.384866534,37.5201853 C0.34356938,37.2534745 0.525965144,37.0039709 0.79210236,36.9626737 C1.05537172,36.9225237 1.30774322,37.1037723 1.34961394,37.3699096 C1.42819325,37.8786675 1.52053827,38.3891463 1.62320759,38.8887271 C1.67769689,39.1519965 1.50734613,39.4106773 1.24407677,39.464593 C1.21023605,39.4720494 1.17754247,39.4749173 1.14484889,39.4749173 L1.14484889,39.4749173 Z M63.5654975,40.7476726 C63.5264946,40.7476726 63.4869182,40.7430841 63.4473417,40.7327598 C63.1857931,40.6679462 63.0263402,40.4029561 63.0917273,40.1414075 C63.2150452,39.649283 63.3280388,39.1428193 63.4278403,38.635782 C63.4794617,38.3713655 63.7369954,38.2004412 64.0008383,38.2514891 C64.2652548,38.3036841 64.4373263,38.5600706 64.3851313,38.8250607 C64.2824619,39.3470108 64.1660269,39.8695345 64.038694,40.3777189 C63.9836311,40.5996912 63.7846018,40.7476726 63.5654975,40.7476726 L63.5654975,40.7476726 Z M1.92720053,42.509111 C1.71956762,42.509111 1.52684756,42.3754688 1.4614604,42.1661152 C1.30544893,41.6653872 1.15918818,41.1503199 1.02611957,40.6358262 C0.95843812,40.3748511 1.11559674,40.1087139 1.37657181,40.0410324 C1.63697331,39.9779396 1.90368409,40.1310832 1.97136554,40.3920582 C2.09984558,40.8910655 2.24209133,41.3906464 2.39351423,41.8758879 C2.47381425,42.1334216 2.32984778,42.4070152 2.07231414,42.4873152 C2.02413413,42.5022281 1.97538054,42.509111 1.92720053,42.509111 L1.92720053,42.509111 Z M62.6581072,43.7508934 C62.6036179,43.7508934 62.5479815,43.7417163 62.4934922,43.7222149 C62.2399735,43.6315906 62.1074785,43.3528348 62.1986764,43.0987426 C62.3707478,42.6169424 62.5336422,42.1225237 62.6821972,41.6298257 C62.760203,41.3722921 63.0337966,41.2271785 63.2901831,41.3034635 C63.5488639,41.3814692 63.6945511,41.6539157 63.6165453,41.9120229 C63.4634017,42.4202074 63.2953452,42.9301125 63.1175381,43.4273991 C63.0464152,43.6264284 62.8582837,43.7508934 62.6581072,43.7508934 L62.6581072,43.7508934 Z M3.0037944,45.4486653 C2.81336863,45.4486653 2.63269358,45.3373925 2.55411427,45.1504081 C2.34934922,44.6663137 2.15318773,44.1696007 1.97193911,43.6740349 C1.87902052,43.4210898 2.00922127,43.1411869 2.26159276,43.0476947 C2.51511141,42.9559232 2.79558791,43.0855504 2.88793294,43.3379219 C3.06516656,43.8214428 3.25329804,44.2992279 3.45290095,44.7707037 C3.55786455,45.0190602 3.44200309,45.3052724 3.19364659,45.410236 C3.13170086,45.4366203 3.06688727,45.4486653 3.0037944,45.4486653 L3.0037944,45.4486653 Z M61.4576219,46.6531657 C61.3870726,46.6531657 61.3159497,46.6376792 61.2488418,46.6061328 C61.0050739,46.4908449 60.9012574,46.2000441 61.0165453,45.9562762 C61.2345025,45.4962718 61.4450033,45.0207809 61.6428855,44.5429958 C61.7455548,44.2934922 62.0311935,44.1747629 62.2801235,44.2785793 C62.5296272,44.3818222 62.6477829,44.6674608 62.54454,44.9158173 C62.3409221,45.4090889 62.1235385,45.898919 61.8986984,46.3738363 C61.8155306,46.5499228 61.6400176,46.6531657 61.4576219,46.6531657 L61.4576219,46.6531657 Z M4.36258548,48.266049 C4.18936687,48.266049 4.02131039,48.1742775 3.93298037,48.0113832 C3.68232958,47.5502316 3.43856166,47.0753144 3.20855945,46.5986764 C3.09097728,46.355482 3.19307302,46.0641077 3.4356938,45.9465255 C3.67888815,45.8283697 3.97026252,45.931039 4.08727112,46.1742334 C4.31096404,46.6371057 4.54498125,47.0942422 4.79046989,47.5450695 C4.91894992,47.781381 4.83176704,48.0779175 4.59488198,48.2069711 C4.52089124,48.2471211 4.44116479,48.266049 4.36258548,48.266049 L4.36258548,48.266049 Z M59.9778072,49.4212221 C59.892345,49.4212221 59.8063093,49.3988529 59.7271564,49.35182 C59.4965806,49.2130157 59.4214428,48.9136113 59.5596735,48.6824619 C59.8229429,48.2431061 60.0793294,47.7905581 60.3213766,47.3374366 C60.4487095,47.0999779 60.7440988,47.0099272 60.9815575,47.1372601 C61.2195897,47.2640194 61.3090668,47.5599824 61.1823075,47.7980146 C60.9322303,48.2649018 60.6683874,48.7317891 60.397088,49.1843371 C60.3053166,49.3363336 60.1435694,49.4212221 59.9778072,49.4212221 L59.9778072,49.4212221 Z M5.99095522,50.9388926 C5.83437017,50.9388926 5.68065299,50.8643283 5.58658725,50.7249504 C5.29119788,50.2896095 5.0021178,49.840503 4.72622987,49.3891021 C4.5862784,49.1590999 4.65912199,48.8585484 4.8891242,48.7180234 C5.11912641,48.5786455 5.41910435,48.6503419 5.55962938,48.8803441 C5.82748732,49.3197 6.10624311,49.752173 6.39417604,50.1771895 C6.54559894,50.4003088 6.48766821,50.7037282 6.26397529,50.8551511 C6.18023384,50.9119347 6.08502096,50.9388926 5.99095522,50.9388926 L5.99095522,50.9388926 Z M58.2358703,52.0292522 C58.1349217,52.0292522 58.0328259,51.9977057 57.9456431,51.9334657 C57.7294066,51.7722921 57.6835208,51.4665784 57.8441209,51.2503419 C58.1475403,50.8413854 58.4469446,50.4163689 58.7331568,49.9873373 C58.8834326,49.7636444 59.1857048,49.7016987 59.4105449,49.8531216 C59.6342378,50.0022502 59.6944628,50.3056695 59.5453342,50.5293625 C59.2493713,50.9721597 58.9413633,51.4103684 58.6281932,51.8319435 C58.5324068,51.9609971 58.3855725,52.0292522 58.2358703,52.0292522 L58.2358703,52.0292522 Z M7.87341716,53.4425325 C7.7334657,53.4425325 7.59466137,53.3823075 7.49772777,53.2664461 C7.15932054,52.8586367 6.83009045,52.4427973 6.51118465,52.0195014 C6.34886389,51.8044121 6.39245533,51.4981249 6.60754467,51.3363777 C6.82263402,51.1740569 7.12892124,51.2176484 7.29066843,51.4327377 C7.60039709,51.843415 7.91987646,52.2472094 8.24853298,52.6424002 C8.42060446,52.8494595 8.39249945,53.1568939 8.18544011,53.3295389 C8.09366865,53.4052504 7.98354291,53.4425325 7.87341716,53.4425325 L7.87341716,53.4425325 Z M56.2484447,54.4537392 C56.1320097,54.4537392 56.0150011,54.4124421 55.9215089,54.3275535 C55.721906,54.1468784 55.7064196,53.8382969 55.8870946,53.638694 C56.2318112,53.2572689 56.570792,52.8643724 56.8942863,52.468608 C57.0657842,52.2604015 57.3732186,52.2294286 57.5814251,52.400353 C57.7896316,52.5712773 57.8206045,52.8787117 57.6496801,53.0869182 C57.3158615,53.4947276 56.9659828,53.9002427 56.610942,54.2931392 C56.514582,54.3998235 56.3820869,54.4537392 56.2484447,54.4537392 L56.2484447,54.4537392 Z M9.99104346,55.7505846 C9.867152,55.7505846 9.74326053,55.7035517 9.64804765,55.609486 C9.27121112,55.2366645 8.90355173,54.8546658 8.54506949,54.4640635 C8.36267373,54.2656078 8.37586587,53.9570263 8.57374807,53.7746305 C8.77220384,53.5933819 9.08135892,53.6054269 9.26318112,53.8038826 C9.61191264,54.1830135 9.96867417,54.5535407 10.3346128,54.9160379 C10.5261857,55.1053166 10.5279065,55.4144717 10.3380543,55.6060446 C10.2428414,55.7024046 10.1172292,55.7505846 9.99104346,55.7505846 L9.99104346,55.7505846 Z M54.0367527,56.6734613 C53.9042577,56.6734613 53.7717626,56.6201191 53.6754026,56.5140084 C53.494154,56.314979 53.5084933,56.0063975 53.7080962,55.8251489 C54.0883741,55.4781381 54.4606221,55.1230973 54.8242665,54.7588793 C55.0146923,54.56788 55.3238473,54.5684536 55.5142731,54.7577322 C55.7052724,54.9487315 55.7052724,55.2578866 55.5154203,55.4483124 C55.1431723,55.8205603 54.756585,56.190514 54.3648356,56.546702 C54.2713435,56.6315906 54.1537613,56.6734613 54.0367527,56.6734613 L54.0367527,56.6734613 Z M12.3243327,57.8435473 C12.2165012,57.8435473 12.1075226,57.8079859 12.0168983,57.7345687 C11.6050739,57.3996029 11.2012795,57.0548864 10.8066623,56.7015663 C10.6059122,56.5220384 10.5887051,56.2134569 10.7688065,56.0127068 C10.9483344,55.8119568 11.2569159,55.7947496 11.457666,55.9748511 C11.8413854,56.3178469 12.2331348,56.6522391 12.6323406,56.9774542 C12.8416942,57.1472314 12.8732407,57.4546658 12.7034635,57.6640194 C12.6071035,57.7821752 12.4660049,57.8435473 12.3243327,57.8435473 L12.3243327,57.8435473 Z M51.619722,58.6654754 C51.4705934,58.6654754 51.3237591,58.597794 51.2279726,58.4687403 C51.066799,58.2525039 51.1115376,57.9467902 51.3283477,57.7861902 C51.7315685,57.4856386 52.1399515,57.1661593 52.5414516,56.8352085 C52.7496581,56.6637106 53.0570924,56.6929627 53.2280168,56.9011692 C53.4000882,57.1088021 53.3702625,57.4162365 53.1626296,57.5877344 C52.7479373,57.9295831 52.3269358,58.2593867 51.9099493,58.5691154 C51.8227664,58.633929 51.7206706,58.6654754 51.619722,58.6654754 L51.619722,58.6654754 Z M14.8514891,59.7007721 C14.7591441,59.7007721 14.6650783,59.6743878 14.582484,59.619325 C14.1396867,59.3262299 13.7003309,59.0199426 13.2764615,58.7084933 C13.0590779,58.5496139 13.0126186,58.2439003 13.1714979,58.0265167 C13.3320979,57.8102802 13.6366645,57.7638209 13.8540481,57.9221266 C14.2693139,58.2261196 14.6914626,58.5209354 15.1210677,58.8060004 C15.3459078,58.9545555 15.4072799,59.2574013 15.2587249,59.4822413 C15.1646592,59.6239135 15.0097948,59.7007721 14.8514891,59.7007721 L14.8514891,59.7007721 Z M49.0214428,60.413148 C48.8562541,60.413148 48.6950805,60.328833 48.6033091,60.1774101 C48.4639312,59.9462608 48.5384955,59.6468564 48.7690713,59.5074785 C49.2095742,59.2413413 49.6431944,58.9648798 50.069358,58.6786675 C50.293051,58.5295389 50.5964703,58.5886168 50.7461725,58.8117362 C50.8964483,59.0354291 50.8367968,59.3388484 50.6136775,59.4891242 C50.1754688,59.7833664 49.7240679,60.0707258 49.2732407,60.3431723 C49.1946614,60.3907787 49.1074785,60.413148 49.0214428,60.413148 L49.0214428,60.413148 Z M17.5495698,61.3027576 C17.4727112,61.3027576 17.3947055,61.2844033 17.3218619,61.245974 C16.8549746,60.9993382 16.3875138,60.737216 15.9320979,60.4670638 C15.700375,60.3294066 15.6235164,60.0300022 15.7617472,59.7982793 C15.8982572,59.5665564 16.1976616,59.4891242 16.4299581,59.6279285 C16.8716082,59.8900507 17.3253033,60.144143 17.7778513,60.3833223 C18.0164571,60.5095081 18.1070814,60.8043238 17.9814692,61.0429296 C17.8937128,61.2086918 17.7245092,61.3027576 17.5495698,61.3027576 L17.5495698,61.3027576 Z M46.2665784,61.8975513 C46.0841827,61.8975513 45.9092433,61.794882 45.8260754,61.6193691 C45.7096404,61.3761747 45.8134569,61.0848004 46.0566512,60.9689389 C46.5137878,60.7515553 46.9755129,60.5169645 47.4303552,60.2720494 C47.6672402,60.1435694 47.9632032,60.2330465 48.0911096,60.4699316 C48.2190161,60.7073902 48.1306861,61.0033532 47.8932274,61.1312597 C47.4246195,61.3836311 46.9479815,61.6256784 46.4759321,61.8505184 C46.4082506,61.8820649 46.3371277,61.8975513 46.2665784,61.8975513 L46.2665784,61.8975513 Z M20.3933377,62.6317229 C20.3319656,62.6317229 20.2694463,62.6202515 20.2086477,62.5961615 C19.7211118,62.3965586 19.229561,62.1814692 18.7483344,61.9560556 C18.5039929,61.8419148 18.3990293,61.5516876 18.5131701,61.3073461 C18.6273108,61.0635782 18.9175381,60.9591882 19.1618795,61.0721818 C19.6287668,61.290139 20.1054048,61.498919 20.5780278,61.6916391 C20.8275314,61.7937348 20.9474079,62.0787999 20.8453122,62.3283036 C20.76788,62.5175822 20.5854842,62.6317229 20.3933377,62.6317229 L20.3933377,62.6317229 Z M43.3815133,63.1026252 C43.1813369,63.1026252 42.993779,62.9787337 42.9226561,62.780278 C42.8308846,62.5261857 42.9622325,62.2468564 43.2163247,62.1556585 C43.691242,61.9847342 44.1736157,61.7971763 44.6502537,61.5975734 C44.8991838,61.4937569 45.1842488,61.6113391 45.2886389,61.8596956 C45.3924553,62.1086256 45.2754467,62.3942643 45.0265167,62.4986543 C44.5349658,62.7039929 44.0371057,62.8972866 43.546702,63.0739466 C43.4922127,63.0940216 43.4365762,63.1026252 43.3815133,63.1026252 L43.3815133,63.1026252 Z M23.3529671,63.6739025 C23.3065078,63.6739025 23.2600485,63.6681668 23.2135892,63.6538275 C22.7048312,63.5029782 22.1954997,63.337216 21.6999338,63.1628502 C21.4458416,63.073373 21.3121994,62.7940437 21.4016766,62.540525 C21.4911538,62.2858593 21.7676153,62.1545114 22.0240018,62.2416942 C22.5046548,62.4108979 22.9984999,62.5720715 23.4917715,62.7183322 C23.7504522,62.7951908 23.8972866,63.0676373 23.820428,63.3257445 C23.7573351,63.5373925 23.5628943,63.6739025 23.3529671,63.6739025 L23.3529671,63.6739025 Z M40.3851754,64.0214869 C40.1672182,64.0214869 39.9687624,63.8746525 39.9125524,63.6532539 C39.8460181,63.3922788 40.0043238,63.1267152 40.2658725,63.0607545 C40.7683212,62.932848 41.2679021,62.7928965 41.7514229,62.6443415 C42.008383,62.5669093 42.2819766,62.7097287 42.3617031,62.9678359 C42.4402824,63.2253695 42.2957423,63.4989632 42.0382087,63.5775425 C41.5392014,63.7306861 41.0235606,63.8752261 40.5056254,64.0060004 C40.4654754,64.0168983 40.4247518,64.0214869 40.3851754,64.0214869 L40.3851754,64.0214869 Z M26.3974851,64.4183984 C26.3665122,64.4183984 26.3355394,64.4155306 26.3039929,64.4103684 C25.7831899,64.3094198 25.2600927,64.1952791 24.7496139,64.0702405 C24.4874917,64.0060004 24.3274653,63.7421575 24.3911317,63.4806089 C24.4553717,63.2179131 24.7186411,63.0555923 24.9813369,63.1221266 C25.4763291,63.2431502 25.9833664,63.3544231 26.4892566,63.4519303 C26.7536731,63.5029782 26.9268917,63.7582175 26.8758438,64.0232076 C26.8305317,64.2566512 26.6263402,64.4183984 26.3974851,64.4183984 L26.3974851,64.4183984 Z M37.313126,64.6403706 C37.0756673,64.6403706 36.8674608,64.4665784 36.8307523,64.2245312 C36.7911758,63.958394 36.9747187,63.7100375 37.2408559,63.6698875 C37.7455989,63.594176 38.2566512,63.5041253 38.7602471,63.4026031 C39.0252371,63.349261 39.2821972,63.5201853 39.3355394,63.7846018 C39.388308,64.0484447 39.2179572,64.3059784 38.9535407,64.3593205 C38.4338848,64.4637106 37.9067726,64.5566292 37.3859696,64.6352085 C37.361306,64.6386499 37.337216,64.6403706 37.313126,64.6403706 L37.313126,64.6403706 Z M29.4987867,64.8617692 C29.4838738,64.8617692 29.4683874,64.8611957 29.4529009,64.859475 C28.9229208,64.8101478 28.3958085,64.7482021 27.8732848,64.6747849 C27.606574,64.6363556 27.4207368,64.3891463 27.4585925,64.123009 C27.4964483,63.8557247 27.739069,63.6761968 28.0103684,63.7077432 C28.5174057,63.7794397 29.028458,63.8396647 29.5435253,63.8878447 C29.8119568,63.9125083 30.0092654,64.1505405 29.9840282,64.418972 C29.9605118,64.6719171 29.7477167,64.8617692 29.4987867,64.8617692 L29.4987867,64.8617692 Z M34.1957644,64.955835 C33.9376572,64.955835 33.7225678,64.7539378 33.7088021,64.4935363 C33.6950364,64.2239576 33.9015222,63.994529 34.1705272,63.9807633 C34.6873152,63.9538054 35.2000882,63.914229 35.7094198,63.8626075 C35.9818663,63.8367968 36.2170307,64.0312376 36.2439885,64.2996691 C36.2709464,64.567527 36.0759321,64.8072799 35.8075006,64.8342378 C35.2826826,64.8870064 34.7538495,64.9271564 34.2215751,64.9552614 C34.2129715,64.955835 34.204368,64.955835 34.1957644,64.955835 L34.1957644,64.955835 Z M32.6287668,65 L32.4997132,65 C32.0104567,65 31.5240679,64.9891021 31.0405471,64.9673064 C30.771542,64.955835 30.562762,64.7275535 30.574807,64.4585484 C30.586852,64.1889698 30.8071035,63.974454 31.0841385,63.9928083 C31.5533201,64.0134569 32.0253695,64.0243547 32.4997132,64.0243547 L32.6287668,64.0243547 C32.8983455,64.0243547 33.1168762,64.2428855 33.1168762,64.5118906 C33.1168762,64.7814692 32.8983455,65 32.6287668,65 L32.6287668,65 Z" id="Fill-33" fill="#FFFFFF" mask="url(#mask-2)"></path>
                </g>
            </g>
        </g>
    </g>
</svg>