<?xml version="1.0" encoding="UTF-8"?>
<svg width="30px" height="30px" viewBox="0 0 30 30" version="1.1" xmlns="http://www.w3.org/2000/svg" xmlns:xlink="http://www.w3.org/1999/xlink">
    <!-- Generator: Sketch 60.1 (88133) - https://sketch.com -->
    <title>Footer_Linkedin_icon</title>
    <desc>Created with Sketch.</desc>
    <g id="Home" stroke="none" stroke-width="1" fill="none" fill-rule="evenodd">
        <g id="Home-gold" transform="translate(-1567.000000, -6153.000000)">
            <g id="Footer" transform="translate(-20.000000, 5862.000000)">
                <g id="Social-White" transform="translate(1587.000000, 291.000000)">
                    <g id="Footer_Linkedin_icon">
                        <rect id="Rectangle" fill="#FFFFFF" x="0" y="0" width="30" height="30" rx="15"></rect>
                        <g id="linked-in-logo-of-two-letters" transform="translate(8.000000, 9.000000)"></g>
                        <path d="M8.99956418,20.4460488 L10.7218609,20.4460488 C10.9594703,20.4460488 11.1520695,20.2623709 11.1520695,20.035796 L11.1520695,12.8572748 C11.1520695,12.630677 10.9594703,12.4470449 10.7218609,12.4470449 L8.99956418,12.4470449 C8.76193081,12.4470449 8.56935551,12.630677 8.56935551,12.8572748 L8.56935551,20.035796 C8.56935551,20.2623481 8.76193081,20.4460488 8.99956418,20.4460488 Z" id="Shape" fill="#B49464" fill-rule="nonzero"></path>
                        <path d="M8.99956418,11.2788445 L10.7218609,11.2788445 C10.9594703,11.2788445 11.1520695,11.0951894 11.1520695,10.8686145 L11.1520695,9.41022994 C11.1520695,9.18365503 10.9594703,9 10.7218609,9 L8.99956418,9 C8.76193081,9 8.56935551,9.18365503 8.56935551,9.41022994 L8.56935551,10.8686145 C8.56935551,11.0951894 8.76193081,11.2788445 8.99956418,11.2788445 Z" id="Shape" fill="#B49464" fill-rule="nonzero"></path>
                        <path d="M20.349698,13.3234093 C20.1076787,13.0196334 19.7508092,12.769816 19.2789458,12.5740026 C18.8070823,12.3783263 18.2862303,12.2804197 17.7163655,12.2804197 C16.5595236,12.2804197 15.579271,12.7014138 14.7756316,13.5435622 C14.6157234,13.711128 14.4994592,13.674493 14.4994592,13.4478952 L14.4994592,12.901021 C14.4994592,12.6744232 14.306836,12.4907911 14.0692266,12.4907911 L12.5307332,12.4907911 C12.2930999,12.4907911 12.1005246,12.6744232 12.1005246,12.901021 L12.1005246,20.0795422 C12.1005246,20.3061171 12.2931238,20.489795 12.5307332,20.489795 L14.2530299,20.489795 C14.4906633,20.489795 14.6832386,20.3061171 14.6832386,20.0795422 L14.6832386,17.5830359 C14.6832386,16.5429944 14.7491001,15.8301085 14.880823,15.4444924 C15.012498,15.0588762 15.2561471,14.7492269 15.6115307,14.5154987 C15.9669621,14.2817704 16.3682665,14.1648492 16.8156356,14.1648492 C17.1648836,14.1648492 17.4636329,14.2466666 17.7118358,14.4103244 C17.9600146,14.5739593 18.1392643,14.8031853 18.2495607,15.0983223 C18.359905,15.3934136 18.4150292,16.0434281 18.4150292,17.0484571 L18.4150292,20.0795194 C18.4150292,20.3060943 18.6076045,20.489795 18.8452139,20.489795 L20.5675106,20.489795 C20.80512,20.489795 20.9976953,20.3060943 20.9976953,20.0795194 L20.9976953,16.0141978 C20.9976953,15.2955526 20.9501926,14.7433534 20.855307,14.3577372 C20.7604215,13.9721211 20.5918611,13.6273451 20.349698,13.3234093 Z" id="Shape" fill="#B49464" fill-rule="nonzero"></path>
                    </g>
                </g>
            </g>
        </g>
    </g>
</svg>