<?xml version="1.0" encoding="UTF-8"?>
<svg width="30px" height="30px" viewBox="0 0 30 30" version="1.1" xmlns="http://www.w3.org/2000/svg" xmlns:xlink="http://www.w3.org/1999/xlink">
    <!-- Generator: Sketch 60.1 (88133) - https://sketch.com -->
    <title>Footer_twitter_icon</title>
    <desc>Created with Sketch.</desc>
    <g id="Home" stroke="none" stroke-width="1" fill="none" fill-rule="evenodd">
        <g id="Home-gold" transform="translate(-1606.000000, -6153.000000)">
            <g id="Footer" transform="translate(-20.000000, 5862.000000)">
                <g id="Social-White" transform="translate(1587.000000, 291.000000)">
                    <g id="Footer_twitter_icon" transform="translate(39.000000, 0.000000)">
                        <rect id="Rectangle-Copy" fill="#FFFFFF" x="0" y="0" width="30" height="30" rx="15"></rect>
                        <path d="M21.1151611,11.0552506 C21.7932148,10.6496461 22.3134942,10.0065001 22.5576686,9.24035823 C21.922815,9.61685685 21.2212831,9.88913766 20.4727945,10.0365449 C19.8755063,9.39809331 19.0218348,9 18.0770676,9 C16.2645419,9 14.7957387,10.4693774 14.7957387,12.2814531 C14.7957387,12.5387115 14.8229735,12.7893977 14.8793215,13.028817 C12.1520808,12.8917377 9.73381464,11.5866676 8.11381112,9.59995667 C7.83113224,10.0863065 7.66960146,10.6496461 7.66960146,11.2505417 C7.66960146,12.3884876 8.24904619,13.3931099 9.12995246,13.9827387 C8.59182955,13.9658385 8.08563714,13.8165535 7.64236661,13.5724397 L7.64236661,13.6128124 C7.64236661,15.2033078 8.77308212,16.5299726 10.2766332,16.8304203 C10.0005283,16.9074101 9.71127546,16.945905 9.41075307,16.945905 C9.19944826,16.945905 8.99283911,16.9261881 8.79374303,16.8876932 C9.21071785,18.1908855 10.4231379,19.1410516 11.8600106,19.1664018 C10.735869,20.0470894 9.32059635,20.5709952 7.78323649,20.5709952 C7.51840113,20.5709952 7.25638317,20.5569117 7,20.5259281 C8.45283794,21.4563773 10.1780243,22 12.0318718,22 C18.0704936,22 21.3706052,16.9994222 21.3706052,12.6626463 C21.3706052,12.5199336 21.3687269,12.3781598 21.362153,12.2382638 C22.0035804,11.7753864 22.5614251,11.1970244 23,10.538856 C22.4111639,10.79987 21.7781886,10.9763831 21.1151611,11.0552506 Z" id="Shape" fill="#B49464"></path>
                    </g>
                </g>
            </g>
        </g>
    </g>
</svg>