<?xml version="1.0" encoding="UTF-8"?>
<svg width="21px" height="22px" viewBox="0 0 21 22" version="1.1" xmlns="http://www.w3.org/2000/svg" xmlns:xlink="http://www.w3.org/1999/xlink">
    <!-- Generator: Sketch 60.1 (88133) - https://sketch.com -->
    <title>Group</title>
    <desc>Created with Sketch.</desc>
    <g id="Home" stroke="none" stroke-width="1" fill="none" fill-rule="evenodd">
        <g id="Home-gold" transform="translate(-712.000000, -4852.000000)">
            <g id="News-Section" transform="translate(170.000000, 4373.000000)">
                <g id="Cases">
                    <g id="Group-4" transform="translate(519.000000, 0.000000)">
                        <g id="Group-5">
                            <g id="Group-2" transform="translate(24.000000, 478.000000)">
                                <g id="Group" transform="translate(0.000000, 2.000000)">
                                    <ellipse id="Oval" stroke="#326598" stroke-width="1.75" cx="9.40366972" cy="9.72435897" rx="9.40366972" ry="9.45512821"></ellipse>
                                    <path d="M6.01834862,15.0140883 L6.01834862,14.1849262 C7.08228062,13.6204806 7.82939431,12.5266022 7.82939431,11.2828592 C7.82939431,10.88445 7.81322627,10.55222 7.74983253,10.1214671 L6.11340164,10.1214671 L6.11340164,9.07618287 L7.59070897,9.07618287 C7.51114719,8.57925089 7.41609418,7.93237577 7.41609418,7.28557915 C7.41609418,5.32878191 8.70322028,4.05128205 10.4663635,4.05128205 C11.2923621,4.05128205 11.864109,4.24974083 12.1978474,4.46586306 L11.8802771,5.56107602 C11.594366,5.394961 11.1338402,5.22884599 10.4663635,5.22884599 C9.22713986,5.22884599 8.71871152,6.1241871 8.71871152,7.30175103 C8.71871152,8.01480525 8.81383973,8.54557256 8.90956955,9.07618287 L11.1973091,9.07618287 L11.1973091,10.1214671 L9.03628183,10.1214671 C9.08418434,10.7521704 9.11584361,11.3814605 8.97296329,11.9797415 C8.7982733,12.6927172 8.41670764,13.2895851 7.87654482,13.7703452 L7.87654482,13.8027675 L12.6111475,13.8027675 L12.6111475,15.0140883 L6.01834862,15.0140883 Z" id="Fill-1" fill="#326598"></path>
                                </g>
                            </g>
                        </g>
                    </g>
                </g>
            </g>
        </g>
    </g>
</svg>