<?xml version="1.0" encoding="UTF-8"?>
<svg width="133px" height="115px" viewBox="0 0 133 115" version="1.1" xmlns="http://www.w3.org/2000/svg" xmlns:xlink="http://www.w3.org/1999/xlink">
    <!-- Generator: Sketch 60.1 (88133) - https://sketch.com -->
    <title>Home_Icon3</title>
    <desc>Created with Sketch.</desc>
    <defs>
        <polygon id="path-1" points="0 0.112234818 132.97367 0.112234818 132.97367 82.8911255 0 82.8911255"></polygon>
        <polygon id="path-3" points="0.126612245 0.0813534413 98.8471224 0.0813534413 98.8471224 83 0.126612245 83"></polygon>
    </defs>
    <g id="Home" stroke="none" stroke-width="1" fill="none" fill-rule="evenodd">
        <g id="Home-gold" transform="translate(-894.000000, -1677.000000)">
            <g id="Home_Icon3" transform="translate(894.000000, 1677.000000)">
                <g id="Group-3">
                    <mask id="mask-2" fill="white">
                        <use xlink:href="#path-1"></use>
                    </mask>
                    <g id="Clip-2"></g>
                    <path d="M107.978447,79.5301296 C96.0570558,79.5301296 86.3581827,69.875583 86.3581827,58.0079271 C86.3581827,53.9439514 87.4964467,50.1407368 89.4705178,46.894664 C89.4873959,46.8711417 89.5103503,46.853668 89.5258782,46.8288016 L90.1665736,45.8280972 C94.0688071,40.1901457 100.595934,36.4857247 107.978447,36.4857247 C115.356909,36.4857247 121.881335,40.1867854 125.784244,45.8193603 L126.43034,46.8281296 C126.449919,46.8590445 126.475574,46.8832389 126.497178,46.9121377 C128.464835,50.1541781 129.599386,53.9513441 129.599386,58.0079271 C129.598711,69.875583 119.899838,79.5301296 107.978447,79.5301296 L107.978447,79.5301296 Z M66.4864975,26.2750445 C60.1713604,26.2750445 55.0329695,21.1606316 55.0329695,14.8741377 C55.0329695,8.58764372 60.1706853,3.4725587 66.4864975,3.4725587 C72.8023096,3.4725587 77.9400254,8.58697166 77.9400254,14.8741377 C77.9400254,21.1599595 72.8023096,26.2750445 66.4864975,26.2750445 L66.4864975,26.2750445 Z M24.9952234,79.5301296 C13.0731574,79.5301296 3.37428426,69.875583 3.37428426,58.0079271 C3.37428426,53.9446235 4.5118731,50.1414089 6.48594416,46.895336 C6.50349746,46.8711417 6.52645178,46.853668 6.54265482,46.8281296 L7.18537563,45.8233927 C11.0882843,40.1881296 17.6140609,36.4850526 24.9952234,36.4850526 C32.3757107,36.4850526 38.9014873,40.1881296 42.8043959,45.8233927 L43.4477919,46.8281296 C43.4673706,46.8583725 43.4923503,46.8818947 43.5132792,46.9107935 C45.4812741,50.1535061 46.6161624,53.9506721 46.6161624,58.0079271 C46.6154873,69.875583 36.9166142,79.5301296 24.9952234,79.5301296 L24.9952234,79.5301296 Z M24.9952234,18.000583 L36.4561777,35.9057328 C33.0204569,34.1328259 29.1249746,33.1247287 24.9952234,33.1247287 C20.8654721,33.1247287 16.9699898,34.1328259 13.5335939,35.9057328 L24.9952234,18.000583 Z M119.439401,35.9057328 C116.00368,34.1328259 112.108198,33.1247287 107.978447,33.1247287 C103.848695,33.1247287 99.9532132,34.1328259 96.5168173,35.9057328 L107.978447,18.000583 L119.439401,35.9057328 Z M128.611,43.9812632 L109.401614,13.9708826 C109.398239,13.9655061 109.393513,13.9621457 109.390137,13.9567692 C109.319924,13.8499109 109.237558,13.7524615 109.145741,13.6644211 C109.122112,13.6422429 109.095782,13.6240972 109.071477,13.6032632 C108.998226,13.5407611 108.920924,13.4843077 108.837883,13.435247 C108.802777,13.414413 108.768345,13.3962672 108.731888,13.3781215 C108.648848,13.3364534 108.561756,13.3028502 108.471289,13.2752955 C108.436183,13.2645425 108.403102,13.2517733 108.36732,13.2430364 C108.241746,13.2134656 108.112797,13.1939757 107.978447,13.1939757 L81.2164162,13.1939757 C80.3758832,5.84293117 74.0924772,0.112234818 66.4864975,0.112234818 C58.8805178,0.112234818 52.5971117,5.84293117 51.7565787,13.1939757 L24.9952234,13.1939757 C24.8608731,13.1939757 24.7312487,13.2134656 24.6063503,13.2430364 C24.5705685,13.2511012 24.5374873,13.2645425 24.5030558,13.2746235 C24.4125888,13.3021781 24.3254975,13.3357814 24.2417817,13.3781215 C24.206,13.3962672 24.1708934,13.414413 24.1364619,13.435247 C24.0527462,13.4849798 23.9751066,13.5414332 23.9021929,13.6039352 C23.8778883,13.6247692 23.8515584,13.6422429 23.8286041,13.6644211 C23.7361117,13.7524615 23.6544213,13.8499109 23.5842081,13.9574413 C23.5808325,13.9628178 23.5761066,13.9661781 23.572731,13.9715547 L4.36064467,43.9859676 C1.61152792,47.9820648 0,52.8108502 0,58.0085992 C0,71.7288016 11.2131827,82.8911255 24.9965736,82.8911255 C38.7799645,82.8911255 49.9924721,71.7288016 49.9924721,58.0085992 C49.9924721,52.8101781 48.380269,47.9807206 45.6311523,43.9846235 L28.0717766,16.5542996 L51.7565787,16.5542996 C52.5971117,23.9053441 58.8805178,29.6353684 66.4864975,29.6353684 C74.0924772,29.6353684 80.3758832,23.9053441 81.2164162,16.5542996 L104.901218,16.5542996 L87.3391421,43.99 C84.5920508,47.984753 82.9818731,52.8121943 82.9818731,58.0079271 C82.9818731,71.7281296 94.1950558,82.8911255 107.977772,82.8911255 C121.760487,82.8911255 132.97367,71.7281296 132.97367,58.0079271 C132.97367,52.8081619 131.361467,47.9773603 128.611,43.9812632 L128.611,43.9812632 Z" id="Fill-1" fill="#747474" mask="url(#mask-2)"></path>
                </g>
                <g id="Group-6" transform="translate(17.000000, 32.000000)">
                    <mask id="mask-4" fill="white">
                        <use xlink:href="#path-3"></use>
                    </mask>
                    <g id="Clip-5"></g>
                    <path d="M95.480449,79.6397097 L3.49395918,79.6397097 L3.49395918,71.6838069 C3.49395918,71.0036773 4.04822449,70.4512401 4.72910204,70.4512401 L43.4057755,70.4512401 L55.5679592,70.4512401 L94.2446327,70.4512401 C94.9261837,70.4512401 95.480449,71.0036773 95.480449,71.6838069 L95.480449,79.6397097 L95.480449,79.6397097 Z M94.2439592,67.0909162 L57.2509592,67.0909162 L57.2509592,1.76151538 C57.2509592,0.833393927 56.4973469,0.0813534413 55.5672857,0.0813534413 C54.6372245,0.0813534413 53.8836122,0.833393927 53.8836122,1.76151538 L53.8836122,67.0909162 L45.0887755,67.0909162 L45.0887755,1.76151538 C45.0887755,0.833393927 44.3351633,0.0813534413 43.405102,0.0813534413 C42.4750408,0.0813534413 41.7214286,0.833393927 41.7214286,1.76151538 L41.7214286,67.0909162 L4.72910204,67.0909162 C2.19146939,67.0909162 0.126612245,69.1514668 0.126612245,71.6838069 L0.126612245,81.3198717 C0.126612245,82.2479931 0.88022449,83.0000336 1.81028571,83.0000336 L97.163449,83.0000336 C98.0935102,83.0000336 98.8471224,82.2479931 98.8471224,81.3198717 L98.8471224,71.6838069 C98.8471224,69.1514668 96.7822653,67.0909162 94.2439592,67.0909162 L94.2439592,67.0909162 Z" id="Fill-4" fill="#747474" mask="url(#mask-4)"></path>
                </g>
                <path d="M65.8958703,21 C65.4054463,21 64.9382782,20.8057663 64.6140649,20.4664879 L60.4280195,16.0924455 C59.8028486,15.4397445 59.8705641,14.4433507 60.5784982,13.8669559 C61.2871164,13.2911916 62.3664594,13.3536239 62.9923143,14.0063249 L65.8862944,17.0301907 L72.0001779,10.5429106 C72.6188508,9.88516464 73.6988778,9.81516482 74.4116,10.3871453 C75.1243221,10.9578645 75.2002454,11.9536276 74.5808886,12.610743 L67.1865676,20.4570285 C66.8630383,20.8000906 66.3951862,20.9974775 65.9027102,20.9993694 C65.8999743,21 65.8979223,21 65.8958703,21" id="Fill-7" fill="#B49464"></path>
                <path d="M15,71 L15,69.0334865 C17.7450125,67.696323 19.6712051,65.1004596 19.6712051,62.1490479 C19.6712051,61.2058437 19.6294948,60.4195666 19.4660727,59.3962574 L15.2468426,59.3962574 L15.2468426,56.91891 L19.0558081,56.91891 C18.8506757,55.7386737 18.6052007,54.2045305 18.6052007,52.6703874 C18.6052007,48.0282337 21.9238999,45 26.4699743,45 C28.5995897,45 30.0755169,45.4724228 30.9343375,45.9832567 L30.1155177,48.5791202 C29.3784088,48.1868024 28.1910345,47.7928431 26.4699743,47.7928431 C23.2750382,47.7928431 21.9642426,49.9179251 21.9642426,52.7091267 C21.9642426,54.4015102 22.2107433,55.6602101 22.4562183,56.91891 L28.3544566,56.91891 L28.3544566,59.3962574 L22.7830625,59.3962574 C22.9061419,60.890348 22.9878529,62.3860801 22.6196404,63.8017072 C22.1690331,65.4927774 21.1854235,66.9084045 19.7929169,68.0502298 L19.7929169,68.1286934 L32,68.1286934 L32,71 L15,71 Z" id="Fill-9" fill="#B49464"></path>
                <path d="M99,71 L99,69.0334865 C101.744957,67.696323 103.671111,65.1004596 103.671111,62.1490479 C103.671111,61.2058437 103.629402,60.4195666 103.465983,59.3962574 L99.2468376,59.3962574 L99.2468376,56.91891 L103.055726,56.91891 C102.850598,55.7386737 102.60547,54.2045305 102.60547,52.6703874 C102.60547,48.0282337 105.924103,45 110.470085,45 C112.599316,45 114.075556,45.4724228 114.934017,45.9832567 L114.115214,48.5791202 C113.378462,48.1868024 112.190769,47.7928431 110.470085,47.7928431 C107.27453,47.7928431 105.964103,49.9179251 105.964103,52.7091267 C105.964103,54.4015102 106.21094,55.6602101 106.456068,56.91891 L112.35453,56.91891 L112.35453,59.3962574 L106.782906,59.3962574 C106.906325,60.890348 106.987692,62.3860801 106.619487,63.8017072 C106.169231,65.4927774 105.185299,66.9084045 103.792821,68.0502298 L103.792821,68.1286934 L116,68.1286934 L116,71 L99,71 Z" id="Fill-11" fill="#B49464"></path>
            </g>
        </g>
    </g>
</svg>