<?xml version="1.0" encoding="UTF-8"?>
<svg width="104px" height="117px" viewBox="0 0 104 117" version="1.1" xmlns="http://www.w3.org/2000/svg" xmlns:xlink="http://www.w3.org/1999/xlink">
    <!-- Generator: Sketch 60.1 (88133) - https://sketch.com -->
    <title>Home_icon5</title>
    <desc>Created with Sketch.</desc>
    <defs>
        <polygon id="path-1" points="7.8490566e-05 0.195730435 103.704091 0.195730435 103.704091 117 7.8490566e-05 117"></polygon>
    </defs>
    <g id="Home" stroke="none" stroke-width="1" fill="none" fill-rule="evenodd">
        <g id="Home-gold" transform="translate(-1548.000000, -1681.000000)">
            <g id="Group" transform="translate(174.000000, 1667.000000)">
                <g id="3rd-section-copy">
                    <g id="Home_icon5" transform="translate(1374.000000, 14.000000)">
                        <path d="M29,89 L29,85.7477312 C33.3593383,83.5364549 36.418633,79.2431937 36.418633,74.362244 C36.418633,72.8021266 36.3524162,71.5017676 36.0930344,69.8096162 L29.3918154,69.8096162 L29.3918154,65.7122513 L35.4414454,65.7122513 C35.1154549,63.7603415 34.7263822,61.2230939 34.7263822,58.6858463 C34.7263822,51.0078905 39.9970832,46 47.2170657,46 C50.5992164,46 52.943448,46.7812341 54.3073574,47.6259385 L53.0069221,51.9191997 C51.8361776,51.2703914 49.95037,50.6188407 47.2170657,50.6188407 C42.1422725,50.6188407 40.0605572,54.1332185 40.0605572,58.7497084 C40.0605572,61.5490652 40.4523727,63.6306582 40.8418372,65.7122513 L50.2101437,65.7122513 L50.2101437,69.8096162 L41.3609926,69.8096162 C41.5569003,72.2802591 41.6865912,74.7540364 41.1016108,77.0953878 C40.3865477,79.892002 38.823596,82.2333534 36.6121898,84.1217928 L36.6121898,84.2514761 L56,84.2514761 L56,89 L29,89 Z" id="Fill-1" fill="#B49464"></path>
                        <g id="Group-5">
                            <mask id="mask-2" fill="white">
                                <use xlink:href="#path-1"></use>
                            </mask>
                            <g id="Clip-4"></g>
                            <path d="M94.3633992,66.1367739 C93.7499955,65.6061652 92.8194898,65.6703391 92.2861464,66.2819478 L84.627037,75.0726 L80.7794294,70.7236435 C80.2413766,70.1171217 79.3120483,70.0588174 78.7021766,70.5952957 C78.0919125,71.1302087 78.0350068,72.0579913 78.5718823,72.6649043 L83.532486,78.2699478 C83.81152,78.586513 84.2133917,78.7669043 84.634886,78.7669043 L84.6407728,78.7669043 C85.0642294,78.7653391 85.4688483,78.5818174 85.7463125,78.262513 L94.5089992,68.2063826 C95.0423426,67.5947739 94.9764106,66.6685565 94.3633992,66.1367739 M100.760773,71.8502087 C100.760773,63.9846 94.3433842,57.5859913 86.4558672,57.5859913 C78.5687426,57.5859913 72.151354,63.9846 72.151354,71.8502087 C72.151354,79.7146435 78.5687426,86.1128609 86.4558672,86.1128609 C94.3433842,86.1128609 100.760773,79.7146435 100.760773,71.8502087 M103.704169,71.8502087 C103.704169,81.3319043 95.9669615,89.0476435 86.4558672,89.0476435 C76.9451653,89.0476435 69.2079577,81.3319043 69.2079577,71.8502087 C69.2079577,62.3673391 76.9451653,54.6512087 86.4558672,54.6512087 C95.9669615,54.6512087 103.704169,62.3673391 103.704169,71.8502087 M82.4332257,94.4022522 C74.6763955,108.340904 59.9362596,117.000078 43.9638219,117.000078 C19.7220106,117.000078 7.8490566e-05,97.3354696 7.8490566e-05,73.1634261 C7.8490566e-05,54.4539913 11.7120483,38.0160783 29.2896181,31.8303391 L21.357754,2.04073043 C21.2400181,1.59894783 21.3349917,1.12977391 21.6140257,0.768991304 C21.8914898,0.408208696 22.3220106,0.195730435 22.7792181,0.195730435 L65.1472483,0.195730435 C65.6040634,0.195730435 66.0345842,0.406643478 66.3136181,0.768991304 C66.5926521,1.12977391 66.6876257,1.59894783 66.5698898,2.04073043 L58.6380257,31.8319043 C67.7578445,35.0523391 75.6300558,41.2506 80.9140408,49.4038174 C81.3555502,50.0839043 81.1593238,50.9917304 80.4772408,51.4323391 C79.7951577,51.8721652 78.8830974,51.676513 78.4415879,50.9948609 C73.2721992,43.0192957 65.4490445,37.0487739 56.4151728,34.1812957 C55.6667653,33.9441652 55.2378143,33.1631217 55.4383577,32.4063391 L63.2340408,3.13051304 L45.43552,3.13051304 L45.43552,15.7164261 C45.43552,16.5264261 44.7761992,17.1838174 43.9638219,17.1838174 C43.1514445,17.1838174 42.4921238,16.5264261 42.4921238,15.7164261 L42.4921238,3.13051304 L24.693603,3.13051304 L32.489286,32.4063391 C32.6898294,33.1631217 32.2608785,33.9441652 31.5124709,34.1812957 C14.4238974,39.6028174 2.94347472,55.268687 2.94347472,73.1634261 C2.94347472,95.7166435 21.3455879,114.065296 43.9638219,114.065296 C58.8664332,114.065296 72.6207275,105.985643 79.85952,92.977513 C80.2535426,92.2700348 81.1487275,92.014513 81.8598521,92.4073826 C82.5697992,92.8002522 82.8272483,93.6943826 82.4332257,94.4022522" id="Fill-3" fill="#747474" mask="url(#mask-2)"></path>
                        </g>
                    </g>
                </g>
            </g>
        </g>
    </g>
</svg>