<?xml version="1.0" encoding="UTF-8"?>
<svg width="108px" height="124px" viewBox="0 0 108 124" version="1.1" xmlns="http://www.w3.org/2000/svg" xmlns:xlink="http://www.w3.org/1999/xlink">
    <!-- Generator: Sketch 60.1 (88133) - https://sketch.com -->
    <title>Home_Icon4</title>
    <desc>Created with Sketch.</desc>
    <defs>
        <polygon id="path-1" points="6.10169492e-05 0.00859405941 107.78278 0.00859405941 107.78278 124 6.10169492e-05 124"></polygon>
    </defs>
    <g id="Home" stroke="none" stroke-width="1" fill="none" fill-rule="evenodd">
        <g id="Home-gold" transform="translate(-1223.000000, -1668.000000)">
            <g id="Home_Icon4" transform="translate(1223.000000, 1668.000000)">
                <g id="Group-3">
                    <mask id="mask-2" fill="white">
                        <use xlink:href="#path-1"></use>
                    </mask>
                    <g id="Clip-2"></g>
                    <path d="M10.5706373,92.69 C9.85734915,92.69 9.2764678,92.1062178 9.2764678,91.3886139 C9.2764678,90.6710099 9.85673898,90.0872277 10.5706373,90.0872277 C11.2839254,90.0872277 11.8641966,90.6710099 11.8641966,91.3886139 C11.8641966,92.1062178 11.2839254,92.69 10.5706373,92.69 M10.5706373,87.0179208 C8.17511186,87.0179208 6.22562034,88.9785941 6.22562034,91.3886139 C6.22562034,93.7986337 8.17450169,95.7593069 10.5706373,95.7593069 C12.9661627,95.7593069 14.9150441,93.7986337 14.9150441,91.3886139 C14.9150441,88.9785941 12.9661627,87.0179208 10.5706373,87.0179208 M104.25301,99.4019604 C103.60562,101.02501 102.372468,102.31105 100.783586,103.022515 L61.4782983,120.50897 C60.4849424,120.950337 59.3060949,121.052238 58.2444,120.790733 L19.9849424,111.288158 C19.8641288,111.258079 19.7414847,111.243347 19.6194508,111.243347 C19.2820271,111.243347 18.9500949,111.356297 18.6785695,111.569921 C18.3094169,111.860891 18.0940271,112.305941 18.0940271,112.778 L18.0940271,115.208891 L3.05090847,115.208891 L3.05090847,83.9111683 L18.0940271,83.9111683 L18.0940271,89.7674059 C18.0934169,89.7870495 18.0928068,89.8066931 18.0928068,89.8269505 L18.0928068,107.177129 C18.0928068,108.024871 18.7755864,108.711782 19.6182305,108.711782 C20.4608746,108.711782 21.1436542,108.024871 21.1436542,107.177129 L21.1436542,90.8619208 L36.5156542,84.5937822 C37.4876542,84.1972277 38.5438576,84.1168119 39.567722,84.3611287 C39.5823661,84.3654257 39.5964,84.3697228 39.6110441,84.3734059 L61.2946373,89.824495 C62.4185695,90.1068713 63.4018576,90.7072277 64.1005017,91.5175248 C64.3015525,91.7514059 64.4791119,92.0024752 64.6292136,92.269505 C64.674061,92.3480792 64.7164678,92.4272673 64.756739,92.5070693 C64.7658915,92.5254851 64.774739,92.543901 64.7841966,92.5623168 C64.7841966,92.5629307 64.7848068,92.5629307 64.7848068,92.5635446 C65.1862983,93.3928713 65.3489085,94.2909505 65.2644,95.1982376 C65.2586034,95.2528713 65.2528068,95.307505 65.2451797,95.3615248 C65.2381627,95.4057228 65.2323661,95.4474653 65.2284,95.4892079 L65.0047729,96.6997426 C64.3412136,99.0109307 62.6101627,99.9679406 59.8521966,99.5486733 C57.304739,99.1637822 53.989078,98.642 51.9874169,98.3246337 C51.1536203,98.194495 50.3741288,98.7647723 50.2432475,99.6014653 C50.112061,100.438772 50.680739,101.225129 51.5130102,101.356495 C53.5198576,101.675089 56.8443661,102.198099 59.3973153,102.583604 C60.0041288,102.675683 60.5682305,102.718653 61.0945017,102.718653 C64.1331458,102.718653 65.8867729,101.296337 66.8923322,99.7874653 L96.1206712,90.5691089 C97.7058915,90.0718812 99.4082644,90.1891287 100.911112,90.8938416 C102.156468,91.4806931 103.174231,92.4235842 103.851214,93.6138614 C104.008942,93.894396 104.130671,94.142396 104.224942,94.3732079 C104.561756,95.2013069 104.731993,96.0607129 104.731993,96.9287129 C104.731993,97.7770693 104.570908,98.6082376 104.25301,99.4019604 M107.048807,93.2111683 C106.906027,92.8594257 106.728468,92.4966337 106.502705,92.0957822 C105.508129,90.3468911 104.021756,88.9706139 102.20162,88.1136634 C100.006841,87.0842178 97.5271119,86.9147921 95.2109085,87.6391485 L68.2102983,96.1552475 C68.2225017,96.0858812 68.2331797,96.0165149 68.2444678,95.9477624 C68.2459932,95.9342574 68.248739,95.9213663 68.2505695,95.9078614 C68.3518576,95.218495 68.3646712,94.5309703 68.2908407,93.8551089 C68.2896203,93.8434455 68.2884,93.832396 68.2871797,93.8207327 C68.2822983,93.7814455 68.2780271,93.7421584 68.2731458,93.7028713 C68.2688746,93.6697228 68.2639932,93.6365743 68.2594169,93.6028119 C68.2569763,93.584396 68.2548407,93.5665941 68.2524,93.5481782 C68.1199932,92.6525545 67.8344339,91.7833267 67.4018237,90.9693465 C67.3627729,90.8950693 67.3225017,90.8207921 67.2810102,90.7471287 C67.1809424,90.5709505 67.0741627,90.3984554 66.9603661,90.2308713 C65.8446712,88.575901 64.0794508,87.3555446 62.0347729,86.8448119 L40.3469085,81.3918812 C38.6756542,80.9787525 36.9543661,81.1015248 35.3697559,81.7491485 L21.1460949,87.5489109 L21.1460949,83.6914059 C21.1460949,82.1199208 19.8751119,80.8412475 18.313078,80.8412475 L2.83307797,80.8412475 C1.27104407,80.8412475 6.10169492e-05,82.1199208 6.10169492e-05,83.6914059 L6.10169492e-05,115.42804 C6.10169492e-05,116.998911 1.27104407,118.278198 2.83307797,118.278198 L18.3124678,118.278198 C19.8745017,118.278198 21.1454847,116.999525 21.1454847,115.42804 L21.1454847,114.737446 L57.5146373,123.77103 C58.1345695,123.924495 58.7801288,124 59.4269085,124 C60.5581627,124 61.6949085,123.768574 62.712061,123.316158 L102.020095,105.828475 C104.342095,104.789822 106.139959,102.913248 107.083586,100.54804 C107.547925,99.3896832 107.782841,98.172396 107.782841,96.9293267 C107.782841,95.6598614 107.535112,94.4094257 107.048807,93.2111683 M50.7502983,46.6233861 C53.6513492,47.9118812 55.0132475,51.2433069 53.8517898,54.2088713 C53.2660271,55.7036238 52.1103661,56.8711881 50.5977559,57.496099 C49.0875864,58.1197822 47.4541627,58.1081188 45.9958576,57.4598812 C41.4690102,55.450099 37.5871119,49.3759406 35.9628407,46.5294653 C39.1448746,45.8210693 46.2210102,44.6129901 50.7502983,46.6233861 M46.9407051,20.8430495 C46.9407051,11.0470495 54.8622305,3.07790099 64.5993153,3.07790099 C74.3364,3.07790099 82.2576203,11.0470495 82.2576203,20.8430495 C82.2576203,30.6390495 74.3364,38.608198 64.5993153,38.608198 C54.8628407,38.6088119 46.9407051,30.6390495 46.9407051,20.8430495 M78.4489424,46.6233861 C80.3001966,45.8008119 82.5773492,45.5172079 84.8404678,45.5172079 C88.1121966,45.5172079 91.3549424,46.1108119 93.2367051,46.5300792 C91.6121288,49.3765545 87.7302305,55.450099 83.2033831,57.460495 C81.7453831,58.1081188 80.1116542,58.1197822 78.6014847,57.4967129 C77.0968068,56.8748713 75.9454169,55.715901 75.3572136,54.2309703 C75.3535525,54.2211485 75.3492814,54.2113267 75.3456203,54.201505 C74.1875186,51.238396 75.5500271,47.9106535 78.4489424,46.6233861 M44.7645356,60.2689109 C45.8863322,60.7673663 47.1027051,61.0172079 48.3242644,61.0172079 C49.4884678,61.0172079 50.6587729,60.7900792 51.757078,60.3364356 C53.4878237,59.6206733 54.9497898,58.3800594 55.9336881,56.8257624 L63.0729763,60.4340396 L63.0729763,64.7052871 C54.8420949,65.3461584 47.7110441,71.1250495 45.4274847,79.1997822 C45.1977559,80.0143762 45.6675864,80.8633465 46.4778915,81.0953861 C47.2881966,81.3280396 48.132061,80.8541386 48.3627051,80.0389307 C50.4147051,72.7830891 57.0911797,67.7150495 64.5984,67.7150495 C73.9056203,67.7150495 81.4772136,75.3324554 81.4772136,84.718396 C81.4766034,85.1830891 81.0601627,85.5765743 80.5698915,85.5765743 L69.8961966,85.5765743 C69.0535525,85.5765743 68.3707729,86.2634851 68.3707729,87.1112277 C68.3707729,87.9589703 69.0535525,88.6458812 69.8961966,88.6458812 L80.5705017,88.6458812 C82.749722,88.6458812 84.5256203,86.8859406 84.5283661,84.6956832 C84.5283661,74.156297 76.4036542,65.4904158 66.124739,64.7040594 L66.124739,60.4340396 L73.2643322,56.8257624 C74.2485356,58.3800594 75.7098915,59.6206733 77.4415525,60.3364356 C78.5404678,60.7900792 79.7101627,61.0172079 80.8743661,61.0172079 C82.0959254,61.0172079 83.3119932,60.7673663 84.4347051,60.2689109 C90.2282644,57.6968317 94.7349763,50.2163168 96.4037898,47.1193861 C96.7445695,46.486495 96.7747729,45.7461782 96.4867729,45.0881188 C96.1975525,44.4294455 95.6325356,43.9518614 94.9351119,43.7787525 C91.5382983,42.9334653 83.0111797,41.2422772 77.2164,43.8155842 C73.2496881,45.5767525 71.1775525,49.8572079 72.0952475,53.9811287 L66.124739,56.9982574 L66.124739,41.6216436 C76.8344339,40.8334455 85.3084678,31.8152079 85.3084678,20.8430495 C85.3084678,9.35463366 76.0180271,0.00859405941 64.5993153,0.00859405941 C53.1806034,0.00859405941 43.8901627,9.35524752 43.8901627,20.8430495 C43.8901627,31.8152079 52.3641966,40.8334455 63.0738915,41.6216436 L63.0738915,56.9982574 L57.1033831,53.9805149 C58.021078,49.8565941 55.9495525,45.5767525 51.9822305,43.8149703 C46.1874508,41.2428911 37.6603322,42.9322376 34.2641288,43.7781386 C33.5667051,43.9512475 33.001078,44.4288317 32.7124678,45.087505 C32.4238576,45.7449505 32.4543661,46.4852673 32.7954508,47.1187723 C34.4642644,50.2163168 38.9703661,57.6962178 44.7645356,60.2689109" id="Fill-1" fill="#747474" mask="url(#mask-2)"></path>
                </g>
                <path d="M57,32 L57,30.2605381 C59.4218465,29.0775552 61.1214839,26.7813043 61.1214839,24.1702523 C61.1214839,23.3361534 61.0844723,22.6405545 60.9406098,21.7351915 L57.2178857,21.7351915 L57.2178857,19.5436677 L60.5785397,19.5436677 C60.3976656,18.4998047 60.1813891,17.1426897 60.1813891,15.7855748 C60.1813891,11.6789077 63.10949,9 67.1205827,9 C68.9998069,9 70.3019718,9.41797901 71.0599052,9.86973097 L70.3370524,12.1659819 C69.6869354,11.818957 68.639346,11.470383 67.1205827,11.470383 C64.3015856,11.470383 63.1448924,13.3505139 63.1448924,15.8193477 C63.1448924,17.3168218 63.3627781,18.4303997 63.5787328,19.5436677 L68.7832085,19.5436677 L68.7832085,21.7351915 L63.8674233,21.7351915 C63.9762053,23.0569843 64.0479756,24.3800164 63.723239,25.6324043 C63.3257665,27.1283291 62.457442,28.380717 61.2289785,29.3908071 L61.2289785,29.460212 L72,29.460212 L72,32 L57,32 Z" id="Fill-4" fill="#B49464"></path>
            </g>
        </g>
    </g>
</svg>