<?xml version="1.0" encoding="UTF-8"?>
<svg width="139px" height="139px" viewBox="0 0 139 139" version="1.1" id="a" data-name="Layer 1" xmlns="http://www.w3.org/2000/svg">
  <g>
    <g>
      <rect x="234.662" y="147.24" width="68.368" height="163.27" fill="#fff"/>
      <polygon points="303.03 147.24 96.024 147.24 197.441 51.535 303.03 147.24" fill="#fff"/>
      <rect x="96.231" y="147.24" width="2.945" height="163.27" fill="#fff"/>
      <rect x="96.024" y="307.565" width="163.27" height="2.945" fill="#fff"/>
    </g>
    <path d="M214.839,249.993v39.7H114.476v-2.75h11.517c13.406-3.435,20.963-12.028,20.963-21.655,0-13.749-10.313-21.998-19.255-32.311h-14.428v-3.093h11.853c-5.5-7.046-9.796-15.295-9.796-26.98,0-25.266,19.255-40.386,52.588-40.386,16.681,0,32.661,4.982,43.66,11.342l-13.756,37.811h-.168l-17.352-43.828c-3.107-1.714-5.681-2.064-9.11-2.064-9.978,0-16.331,9.628-16.331,26.812,0,18.22,7.039,27.673,12.035,37.293h24.223v3.093h-22.684c2.239,4.646,3.778,9.628,3.778,15.813,0,15.295-18.388,32.829-40.204,38.154h31.094c18.906,0,30.254-7.046,51.567-36.95h.168Z" fill="#b88b2e"/>
  </g>
  <circle cx="199.527" cy="199.527" r="198.527" fill="none" stroke="#b88b2e" stroke-miterlimit="10" stroke-width="2"/>
</svg>