<?xml version="1.0" encoding="UTF-8"?>
<svg width="32px" height="33px" viewBox="0 0 32 33" version="1.1" xmlns="http://www.w3.org/2000/svg" xmlns:xlink="http://www.w3.org/1999/xlink">
    <title>linked-in</title>
    <g id="Symbols" stroke="none" stroke-width="1" fill="none" fill-rule="evenodd">
        <g id="header-internal-moj" transform="translate(-132.000000, -18.000000)" fill="#FFCC00">
            <g id="linked-in" transform="translate(132.072825, 18.983955)">
                <path d="M18.4467,13.7695355 C17.27895,13.7695355 16.47495,14.4469435 16.14645,15.0865033 L16.10895,15.0865033 L16.10895,13.9950807 L13.8087,13.9950807 L13.8087,22.0088876 L16.2192,22.0088876 L16.2192,18.0587567 C16.2192,17.0051824 16.4022,15.9894565 17.6802,15.9894565 C18.92295,15.9894565 18.92295,17.1928793 18.92295,18.0958326 L18.92295,22.0088876 L21.36945,22.0088876 L21.36945,17.6068938 C21.36945,15.4626694 20.8947,13.7695355 18.4467,13.7695355" id="Fill-2"></path>
                <path d="M11.068275,9.96979374 C10.265025,9.96979374 9.643275,10.6472018 9.643275,11.4366101 C9.643275,12.2267907 10.265025,12.8663505 11.068275,12.8663505 C11.834775,12.8663505 12.456525,12.2267907 12.456525,11.4366101 C12.456525,10.6472018 11.834775,9.96979374 11.068275,9.96979374" id="Fill-4"></path>
                <polygon id="Fill-6" points="9.863175 22.0088876 12.273675 22.0088876 12.273675 13.9958531 9.863175 13.9958531"></polygon>
                <path d="M23.7075,23.2126193 C23.7075,23.8900274 23.16,24.4168145 22.53825,24.4168145 L8.475,24.4168145 C7.85325,24.4168145 7.34175,23.8900274 7.34175,23.2126193 L7.34175,8.80321518 C7.34175,8.12657953 7.85325,7.56194407 8.475,7.56194407 L22.53825,7.56194407 C23.16,7.56194407 23.7075,8.12657953 23.7075,8.80321518 L23.7075,23.2126193 Z M15.525,0 C6.95025,0 0,7.15874338 0,15.9889931 C0,24.8200152 6.95025,31.9779862 15.525,31.9779862 C24.099,31.9779862 31.05,24.8200152 31.05,15.9889931 C31.05,7.15874338 24.099,0 15.525,0 L15.525,0 Z" id="Fill-8"></path>
            </g>
        </g>
    </g>
</svg>