<?xml version="1.0" encoding="UTF-8"?>
<svg width="262px" height="50px" viewBox="0 0 262 50" version="1.1" xmlns="http://www.w3.org/2000/svg" xmlns:xlink="http://www.w3.org/1999/xlink">
    <!-- Generator: Sketch 60.1 (88133) - https://sketch.com -->
    <title>PMJ Logo White</title>
    <desc>Created with Sketch.</desc>
    <defs>
        <polygon id="path-1" points="0 50 262 50 262 0 0 0"></polygon>
    </defs>
    <g id="Home" stroke="none" stroke-width="1" fill="none" fill-rule="evenodd">
        <g id="Home-gold" transform="translate(-121.000000, -106.000000)">
            <g id="Menu" transform="translate(121.000000, 106.000000)">
                <g id="PMJ-Logo-White">
                    <path d="M63.0736524,10.4286966 L63.0736524,23.2942038 L65.9447607,23.2942038 C67.877246,23.2942038 68.9263476,22.4261379 68.9263476,19.7115706 L68.9263476,14.0117677 C68.9263476,11.2972004 67.877246,10.4286966 65.9447607,10.4286966 L63.0736524,10.4286966 Z M75,14.3914918 L75,19.3314085 C75,25.4113735 72.0184131,28.7233383 65.9447607,28.7233383 L63.0736524,28.7233383 L63.0736524,43 L57,43 L57,5 L65.9447607,5 C72.0184131,5 75,8.3115268 75,14.3914918 L75,14.3914918 Z" id="Fill-1" fill="#FFFFFF"></path>
                    <polygon id="Fill-3" fill="#FFFFFF" points="92.1686779 31.9801183 96.3894836 5 105 5 105 43 99.1473552 43 99.1473552 15.7483374 94.8702478 43 89.0171489 43 84.4026859 16.1289375 84.4026859 43 79 43 79 5 87.6100623 5"></polygon>
                    <path d="M107,37.4784682 C107.682752,37.5326223 108.478836,37.5326223 109.161129,37.5326223 C111.15157,37.5326223 112.744198,36.8290561 112.744198,33.9056096 L112.744198,5 L119,5 L119,33.4728138 C119,41.0513268 114.734638,43 110.014109,43 C108.876649,43 108.023668,43 107,42.8916919 L107,37.4784682 Z" id="Fill-5" fill="#FFFFFF"></path>
                    <path d="M150,28.3476438 L150,33.4132581 C150,39.5137922 146.926872,43 141.000221,43 C135.073128,43 132,39.5137922 132,33.4132581 L132,13.5867419 C132,7.48576837 135.073128,4 141.000221,4 C146.926872,4 150,7.48576837 150,13.5867419 L150,17.2904807 L144.29251,17.2904807 L144.29251,13.2052938 C144.29251,10.4819823 143.085574,9.44662295 141.164924,9.44662295 C139.243832,9.44662295 138.036453,10.4819823 138.036453,13.2052938 L138.036453,33.7951457 C138.036453,36.5184572 139.243832,37.498445 141.164924,37.498445 C143.085574,37.498445 144.29251,36.5184572 144.29251,33.7951457 L144.29251,28.3476438 L150,28.3476438 Z" id="Fill-7" fill="#FFFFFF"></path>
                    <path d="M158.309227,30.9482498 L164.090949,30.9482498 L161.200088,11.7312334 L158.309227,30.9482498 Z M172,43 L165.945871,43 L164.909051,36.1054021 L157.545695,36.1054021 L156.508875,43 L151,43 L157.108699,5 L165.891301,5 L172,43 Z" id="Fill-9" fill="#FFFFFF"></path>
                    <path d="M180.073652,10.4286966 L180.073652,23.2942038 L182.944761,23.2942038 C184.877246,23.2942038 185.926793,22.4261379 185.926793,19.7115706 L185.926793,14.0117677 C185.926793,11.2972004 184.877246,10.4286966 182.944761,10.4286966 L180.073652,10.4286966 Z M192,14.3914918 L192,19.3314085 C192,25.4113735 189.018859,28.7233383 182.944761,28.7233383 L180.073652,28.7233383 L180.073652,43 L174,43 L174,5 L182.944761,5 C189.018859,5 192,8.3115268 192,14.3914918 L192,14.3914918 Z" id="Fill-11" fill="#FFFFFF"></path>
                    <mask id="mask-2" fill="white">
                        <use xlink:href="#path-1"></use>
                    </mask>
                    <g id="Clip-14"></g>
                    <polygon id="Fill-13" fill="#FFFFFF" mask="url(#mask-2)" points="196 43 202 43 202 5 196 5"></polygon>
                    <polygon id="Fill-15" fill="#FFFFFF" mask="url(#mask-2)" points="204 5 223 5 223 10.4286966 216.573642 10.4286966 216.573642 43 210.426358 43 210.426358 10.4286966 204 10.4286966"></polygon>
                    <path d="M229.309227,30.9482498 L235.090949,30.9482498 L232.200088,11.7312334 L229.309227,30.9482498 Z M243,43 L236.945871,43 L235.909051,36.1054021 L228.545695,36.1054021 L227.508875,43 L222,43 L228.108699,5 L236.891301,5 L243,43 Z" id="Fill-16" fill="#FFFFFF" mask="url(#mask-2)"></path>
                    <polygon id="Fill-17" fill="#FFFFFF" mask="url(#mask-2)" points="246 5 252.048131 5 252.048131 37.5713034 262 37.5713034 262 43 246 43"></polygon>
                    <path d="M17.5118526,15 C17.4832951,15 17.4543237,14.9947129 17.4257661,14.9834777 C17.3794119,14.9643119 17.3376102,14.9319282 17.3016029,14.8889703 C17.2569041,14.878396 17.2130331,14.8546039 17.1720593,14.8162723 C17.0048528,14.6569975 16.950221,14.3120123 17.0495515,14.0456732 C17.145985,13.7859429 17.2461433,13.5255518 17.3500266,13.2618562 C17.4423212,13.0292226 17.6269106,12.9373587 17.7854256,13.044423 C17.9443546,13.1521483 18.0308549,13.4277399 17.9898811,13.6954008 L17.8533015,14.575047 C17.8127415,14.830151 17.6695399,15 17.5118526,15" id="Fill-18" fill="#FFFFFF" mask="url(#mask-2)"></path>
                    <path d="M16.9426157,15.9225298 C16.9154657,15.9225298 16.8874672,15.9193083 16.8594687,15.912405 C16.6656004,15.8622411 16.545122,15.6514608 16.5909377,15.4411408 C16.6740848,15.0605397 16.761474,14.6790182 16.8509843,14.2956558 C16.8997695,14.0857959 17.0966074,13.959696 17.289203,14.0117007 C17.4826471,14.0646259 17.5997317,14.2777073 17.5509464,14.4871069 C17.4627088,14.8667875 17.3757438,15.2446273 17.2938694,15.6210864 C17.254417,15.801032 17.1063644,15.9225298 16.9426157,15.9225298 L16.9426157,15.9225298 Z M16.5200931,18.2236246 C16.5022759,18.2236246 16.4844587,18.2222439 16.4662172,18.2194826 C16.2689552,18.1872673 16.1332049,17.9879925 16.1629003,17.7739906 C16.2167762,17.3832647 16.2816817,16.9916184 16.3550717,16.5990517 C16.3945241,16.3873509 16.5845745,16.2497455 16.7805639,16.293006 C16.9757048,16.3358064 17.1021222,16.5424447 17.0626698,16.7546057 C16.9918252,17.1338261 16.9286165,17.5125863 16.8764375,17.8899658 C16.8497116,18.0841782 16.69572,18.2236246 16.5200931,18.2236246 L16.5200931,18.2236246 Z M16.3622834,20.5615368 C16.1658698,20.5615368 16.0050906,20.3907956 16.0016969,20.1767938 L16,19.9798201 C16.0004242,19.6521442 16.0127266,19.3120424 16.0369071,18.9682588 C16.0517548,18.7524161 16.2273816,18.594561 16.4237953,18.6074472 C16.6227542,18.624015 16.7716552,18.8117844 16.7563833,19.0276271 C16.7338997,19.3520814 16.7220216,19.6723938 16.7215973,19.9802803 L16.7232942,20.1634474 C16.726688,20.3797504 16.5680299,20.5578551 16.3686467,20.5615368 L16.3622834,20.5615368 Z M16.6392988,22.8828812 C16.4780954,22.8828812 16.3313154,22.7650652 16.2897419,22.5878809 C16.1985347,22.1985357 16.1281143,21.7949236 16.0801775,21.3890105 C16.0551485,21.1745485 16.1947167,20.9784952 16.392403,20.9513423 C16.5922104,20.9214281 16.7708068,21.0756014 16.79626,21.2900634 C16.8403788,21.6646817 16.9052844,22.0360784 16.9892798,22.3945889 C17.0384893,22.604909 16.9218289,22.8175302 16.7283849,22.8709155 C16.6986895,22.8791995 16.6685699,22.8828812 16.6392988,22.8828812 L16.6392988,22.8828812 Z M17.4262259,25.0624782 C17.2972632,25.0624782 17.1729669,24.9879227 17.1080613,24.8563001 C16.9290407,24.494568 16.7699584,24.1222509 16.6350566,23.750394 C16.562515,23.5492783 16.6537222,23.3219301 16.8391061,23.2427725 C17.0236416,23.1626944 17.2340545,23.2625619 17.3070202,23.464598 C17.4313165,23.8079213 17.5785207,24.1517049 17.7439663,24.4858239 C17.838143,24.6763545 17.772389,24.9138275 17.5967621,25.0164563 C17.5424621,25.0477512 17.4839198,25.0624782 17.4262259,25.0624782 L17.4262259,25.0624782 Z M18.6394936,27 C18.5351357,27 18.4324745,26.9521372 18.3607814,26.8582526 C18.1185521,26.5407015 17.8932916,26.2157869 17.6900904,25.8931734 C17.5776723,25.7146085 17.6200942,25.4711526 17.7842672,25.3487344 C17.9492885,25.2272366 18.1737007,25.2732585 18.2861188,25.4518234 C18.4770176,25.7546475 18.6891273,26.0597727 18.9173574,26.3593752 C19.044199,26.5255143 19.0225638,26.7726518 18.8694206,26.9102573 C18.8019697,26.9710062 18.7200954,27 18.6394936,27 L18.6394936,27 Z" id="Fill-19" fill="#FFFFFF" mask="url(#mask-2)"></path>
                    <path d="M19.6814463,29 C19.6009293,29 19.5215357,28.9470358 19.4608671,28.8450308 C19.3320399,28.6299047 19.2084556,28.4141248 19.0893653,28.1989987 C18.967279,27.9786416 18.9706495,27.6262011 19.0972298,27.4130367 C19.1683843,27.292723 19.2623833,27.244336 19.3545097,27.2600291 C19.4039434,27.1227146 19.4874564,27.0239789 19.5874473,27.0030548 C19.7619633,26.9716686 19.9203759,27.1854869 19.9409732,27.4901943 C19.9611961,27.7890169 19.9802955,28.0878394 19.9982714,28.386008 C20.0121278,28.6181349 19.9417222,28.8411075 19.8215084,28.9437664 C19.7769432,28.9816914 19.7290075,29 19.6814463,29" id="Fill-20" fill="#FFFFFF" mask="url(#mask-2)"></path>
                    <path d="M21.6030752,19.8925107 C21.4370516,19.8925107 21.2858827,19.7760822 21.2430661,19.6009848 C21.1923853,19.3940515 21.3125339,19.1834798 21.5117622,19.1307231 C21.9041022,19.0265743 22.3327052,18.984278 22.7634927,19.0051988 C22.9684008,19.0147495 23.1274339,19.1957593 23.1182589,19.4095146 C23.1086471,19.6223603 22.9378175,19.7929098 22.7298511,19.7779014 C22.3724635,19.7610739 22.0168235,19.7951838 21.6948251,19.8806859 C21.6642418,19.8888723 21.6332216,19.8925107 21.6030752,19.8925107 M24.9528197,20.4100714 C24.8955852,20.4100714 24.837477,20.3959726 24.7828639,20.3673203 C24.4700405,20.1994997 24.1240124,20.0580573 23.7814795,19.9589113 C23.5835619,19.9011518 23.4682192,19.6878513 23.523706,19.4818276 C23.578756,19.2762587 23.7841009,19.1561919 23.9815816,19.2134965 C24.3769799,19.3285605 24.7614556,19.4850112 25.1232123,19.6787554 C25.3058382,19.776537 25.3774905,20.0103035 25.2835561,20.2004093 C25.2175836,20.3336652 25.0878231,20.4100714 24.9528197,20.4100714 M19.8056513,21.2769174 C19.7462324,21.2769174 19.6863765,21.2623638 19.6304528,21.2309827 C19.4495744,21.1304722 19.3814174,20.8957962 19.4784101,20.7075096 C19.6911824,20.2927334 19.9830344,19.9475413 20.3456649,19.681939 C20.513873,19.5582338 20.7458692,19.6009848 20.8633964,19.7751726 C20.9817974,19.9498153 20.9416022,20.1913133 20.773831,20.3145637 C20.5029504,20.5128558 20.2936733,20.760721 20.1337664,21.0727128 C20.0664831,21.2027852 19.9384702,21.2769174 19.8056513,21.2769174 M26.7428161,21.9095421 C26.6589305,21.9095421 26.574608,21.8799802 26.5051403,21.819492 C26.0896444,21.4592916 25.8152685,21.1982372 25.6662842,21.0208658 L25.6269628,20.9767503 C25.4840952,20.8230284 25.4884642,20.5783468 25.6357009,20.4296277 C25.7842483,20.2818182 26.0188659,20.2859114 26.1617336,20.4391785 L26.2246478,20.5096723 C26.3089703,20.6101827 26.5077617,20.8143873 26.9809289,21.2255251 C27.1386513,21.3619647 27.1600597,21.6061915 27.0285515,21.7703738 C26.9551516,21.8617883 26.8494208,21.9095421 26.7428161,21.9095421 M28.5515995,23.4044648 C28.4720829,23.4044648 28.3925664,23.3780865 28.3248462,23.3239655 C28.0128966,23.0738263 27.7031316,22.8227775 27.4104058,22.5821891 C27.249625,22.4493879 27.2221,22.2060707 27.3492392,22.0387049 C27.4768152,21.8708842 27.7105589,21.8426867 27.8713397,21.9745783 C28.161881,22.2138023 28.4690246,22.4625771 28.7787897,22.7108971 C28.9413181,22.8414243 28.9714644,23.0847415 28.8460729,23.2539265 C28.7731099,23.352163 28.6630101,23.4044648 28.5515995,23.4044648 M19.3713686,23.5922966 C19.1660236,23.5922966 19,23.4353911 19,23.2216358 L19,23.1884355 C19,22.7295438 19.0279619,22.3288663 19.0869439,21.9632083 C19.1210225,21.7521818 19.3119496,21.6107395 19.5146731,21.6453042 C19.7173967,21.6803237 19.8541477,21.8795254 19.8200692,22.0900971 C19.7685145,22.4139137 19.743174,22.7732045 19.743174,23.1884355 C19.743174,23.4021909 19.5767135,23.5922966 19.3713686,23.5922966 M34.974965,23.7496569 C34.902002,23.7496569 34.8286021,23.7278266 34.7639403,23.6809823 C34.5948583,23.5595511 34.5533524,23.3180531 34.6700059,23.1425009 C34.8840889,22.8214131 35.1090946,22.4794047 35.3205562,22.1555881 C35.4363358,21.9786715 35.6670212,21.9327368 35.8374139,22.0532584 C36.0069327,22.1733252 36.05106,22.4139137 35.9357173,22.5908303 C35.7225081,22.916466 35.4961917,23.2602937 35.2812348,23.5836555 C35.2087087,23.6918975 35.0929291,23.7496569 34.974965,23.7496569 M30.3874709,24.8620941 C30.3092651,24.8620941 30.2301854,24.8361706 30.1629022,24.7829592 L29.2432189,24.0552815 C29.0798167,23.9256639 29.0483596,23.6832563 29.1728773,23.5131617 C29.2969581,23.343067 29.5302649,23.3107763 29.6936671,23.4399391 L30.6129135,24.167162 C30.7763157,24.2967795 30.8077728,24.539642 30.683692,24.7097366 C30.610729,24.8097923 30.4997553,24.8620941 30.3874709,24.8620941 M33.4693931,25.5324671 C33.3365743,25.5324671 33.2081244,25.458335 33.1412781,25.3278078 C33.0447223,25.1390664 33.1133162,24.9048452 33.2941946,24.8043347 C33.5043455,24.6879063 33.675175,24.5537407 33.7760999,24.4277615 C33.8355188,24.3540842 33.9145985,24.2458421 34.0089698,24.1125861 C34.1308661,23.9402175 34.3641729,23.9042884 34.5284489,24.0311772 C34.6940356,24.1576112 34.7289879,24.4000188 34.6070917,24.5719326 C34.5013608,24.7211066 34.4126693,24.8416282 34.3475706,24.9225823 C34.1850422,25.1267868 33.9416866,25.3218954 33.6441548,25.4874421 C33.588668,25.5179136 33.5283752,25.5324671 33.4693931,25.5324671 M32.1285342,25.9122239 C31.7366311,25.9122239 31.4194386,25.8094394 31.1856949,25.6056897 C31.1538009,25.5774922 31.1175379,25.5474755 31.0738474,25.5110916 C30.9130667,25.3787452 30.8855417,25.135428 31.0126808,24.9676074 C31.13982,24.7997867 31.3731268,24.7715892 31.5347814,24.9039356 C31.5885206,24.9475962 31.6326479,24.9848897 31.6667264,25.015816 C31.7855644,25.1195101 32.0490176,25.1613515 32.3347529,25.1258772 C32.5409717,25.1045017 32.7231608,25.2532208 32.7467536,25.4656117 C32.7703464,25.6780026 32.6239835,25.8699276 32.4203862,25.8940319 C32.320772,25.9063115 32.2233424,25.9122239 32.1285342,25.9122239 M19.5496255,26 C19.3639412,26 19.2035974,25.8553741 19.1813152,25.6589011 C19.1341296,25.2500372 19.0908761,24.846631 19.0581083,24.4532302 C19.0406321,24.2403845 19.1922378,24.0525527 19.396709,24.0343608 C19.6007433,24.0143497 19.7811847,24.1739839 19.7990978,24.3868296 C19.8305549,24.772044 19.8733715,25.1668091 19.9192464,25.5670318 C19.9437131,25.7789679 19.798224,25.9718025 19.5941897,25.9972712 C19.579335,25.9990904 19.5644802,26 19.5496255,26" id="Fill-21" fill="#FFFFFF" mask="url(#mask-2)"></path>
                    <path d="M36.3452683,22 C36.2790487,22 36.2120166,21.9768836 36.1527033,21.9286834 C35.9942638,21.8003134 35.9524195,21.5396388 36.0588584,21.3483134 L36.2575172,20.989271 L36.1027339,20.5997346 C36.0202641,20.3911949 36.0925776,20.1418326 36.2648298,20.0419893 C36.4366758,19.9406705 36.6434597,20.0292015 36.7259295,20.2377412 L36.9660264,20.842703 C37.0188395,20.9764832 37.0094957,21.132888 36.9420573,21.2558477 L36.6324908,21.8150686 C36.5658649,21.9350773 36.4565823,22 36.3452683,22" id="Fill-22" fill="#FFFFFF" mask="url(#mask-2)"></path>
                    <path d="M33.8573533,15.8055055 C33.7427146,15.8055055 33.6317608,15.7395663 33.5670718,15.6171754 C33.5617493,15.6072134 33.5511043,15.584443 33.5466007,15.574481 C33.4311432,15.3415589 33.2444459,14.982451 33.0507885,14.613381 C32.9508891,14.4231534 33.0028859,14.1745767 33.1670649,14.0588273 C33.3316532,13.9430778 33.5457818,14.0033245 33.6456812,14.1940264 C33.8430234,14.5692634 34.0334055,14.9359615 34.1603268,15.193077 C34.2549037,15.3842534 34.2024975,15.635202 34.038728,15.7476308 C33.9814087,15.7865302 33.9187668,15.8055055 33.8573533,15.8055055 M34.7711871,17.8980089 C34.6422186,17.8980089 34.5185726,17.8149919 34.4579779,17.6722026 C34.2999403,17.29744 34.1476347,16.9397553 34.0133437,16.6257137 C33.9273647,16.4264728 33.9977856,16.1840631 34.170153,16.0849171 C34.3425204,15.9862454 34.5517359,16.0668905 34.6368961,16.2666058 C34.7724153,16.5820705 34.924721,16.940704 35.0839868,17.3173641 C35.1683281,17.5170794 35.0966789,17.7590147 34.9239021,17.857212 C34.8747713,17.8852006 34.822365,17.8980089 34.7711871,17.8980089 M35.6518575,20 C35.5224796,20 35.3980148,19.9160342 35.3378295,19.7718218 L34.8989273,18.7210634 C34.8149954,18.5208738 34.8874634,18.2794129 35.0606496,18.1821643 C35.2338359,18.0858646 35.4422326,18.1684072 35.5261644,18.3690712 L35.9650667,19.4207784 C36.0489985,19.6214424 35.9765305,19.8629033 35.8029349,19.9596774 C35.7542135,19.9867173 35.7026261,20 35.6518575,20" id="Fill-23" fill="#FFFFFF" mask="url(#mask-2)"></path>
                    <path d="M33.6489242,15 C33.5312227,15 33.4164122,14.9319813 33.3499212,14.8087866 L33.053396,14.2584534 C33.0030115,14.1661763 32.987318,14.053446 33.0104453,13.9468992 C33.0108583,13.9445209 33.0604168,13.7109742 33.0959338,13.3580379 C33.1182351,13.1359069 33.2929289,12.977038 33.4853811,13.0027234 C33.6778334,13.0279332 33.8161842,13.2286597 33.7938829,13.4507907 C33.7719945,13.6691165 33.7451503,13.8484385 33.724501,13.9697306 L33.9471013,14.3821238 C34.0495222,14.5723859 33.9987248,14.8216293 33.8335297,14.9395918 C33.7761244,14.9804981 33.7121113,15 33.6489242,15" id="Fill-24" fill="#FFFFFF" mask="url(#mask-2)"></path>
                    <path d="M27.678094,5.94768157 C27.5220837,5.94768157 27.3752236,5.85177599 27.3152901,5.69488193 C27.1446396,5.24747778 27.0394127,4.82381725 27.0018971,4.43553935 C26.9808517,4.21765679 27.1373194,4.0239834 27.3514332,4.0025676 C27.5609719,3.9774273 27.7554128,4.1399081 27.7764582,4.35825622 C27.8071112,4.67530328 27.8958678,5.02819854 28.0408978,5.4085619 C28.1186742,5.61201207 28.019395,5.84153365 27.8190064,5.92067903 C27.7727981,5.93883591 27.7252173,5.94768157 27.678094,5.94768157 M29.0478731,7.83692821 C28.9618616,7.83692821 28.874935,7.80759787 28.8026488,7.74800606 C28.1808953,7.23402668 28.0235125,7.07527037 27.9507688,6.96213904 C27.9329259,6.9351365 27.9031879,6.8885804 27.8665873,6.82759191 C27.7549553,6.64043637 27.8130588,6.39694796 27.9969771,6.28335107 C28.1818103,6.17021974 28.420172,6.22934599 28.531804,6.4155704 C28.560627,6.46352318 28.5839599,6.5003025 28.5995152,6.52404612 C28.6255931,6.55756651 28.757813,6.6902514 29.2935549,7.1334655 C29.4605454,7.27127157 29.4857083,7.52081228 29.3502859,7.69074205 C29.2734246,7.78664762 29.1608776,7.83692821 29.0478731,7.83692821 M30.8829379,9.33277579 C30.7969264,9.33277579 30.7109149,9.30391101 30.6390861,9.24478476 C30.349941,9.0078142 30.0607959,8.77317144 29.7858336,8.55063327 L29.7226975,8.49895599 C29.554792,8.36254661 29.5273415,8.11347146 29.6609339,7.94261057 C29.7949837,7.77128411 30.0397506,7.74288489 30.2081135,7.87975983 L30.2707921,7.93097154 C30.547127,8.15490639 30.8371871,8.39048027 31.1272472,8.62838196 C31.2946952,8.7652569 31.3212306,9.01479761 31.1862657,9.18519295 C31.1094044,9.28202964 30.9963999,9.33277579 30.8829379,9.33277579 M32.6809446,10.8733172 C32.5866979,10.8733172 32.4924512,10.8393313 32.4178774,10.7694971 C32.164418,10.5339232 31.8647502,10.2713468 31.543122,9.9980625 C31.3779616,9.85792863 31.3560012,9.60792236 31.4937112,9.44032039 C31.6318786,9.27225286 31.8771029,9.25037149 32.0418058,9.3900398 C32.3734991,9.67123866 32.6823171,9.94172961 32.9435542,10.185218 C33.101852,10.3328009 33.1128322,10.5832727 32.9682596,10.7448224 C32.8913983,10.8300201 32.7861714,10.8733172 32.6809446,10.8733172 M33.6106009,13 C33.4102124,13 33.2400194,12.8440371 33.2230916,12.637328 C33.191066,12.2457911 33.1128322,11.8952237 32.991135,11.5958679 C32.9087836,11.3933489 33.0034877,11.1619651 33.2020462,11.0786296 C33.4019773,10.9957598 33.6284438,11.0911998 33.7103377,11.2927877 C33.8631454,11.6684955 33.9596796,12.0986739 33.9985678,12.5712183 C34.0168681,12.7891009 33.8576553,12.9804464 33.6435415,12.9990689 C33.6325613,12.9995344 33.6215811,13 33.6106009,13" id="Fill-25" fill="#FFFFFF" mask="url(#mask-2)"></path>
                    <path d="M28.3866208,3 C28.3394129,3 28.2914843,2.98914778 28.246799,2.96599638 C28.1995911,2.94175975 28.1617527,2.90703264 28.1340046,2.86651769 C28.1084186,2.84879239 28.0853552,2.82708795 28.0651748,2.80140436 C27.9606688,2.66756031 27.9844529,2.47439078 28.1177881,2.36948598 L28.5033792,2.06634728 C28.6349126,1.96216596 28.8248252,1.98278518 28.9307727,2.11337357 C29.0367201,2.24323848 29.0190622,2.4345993 28.8914928,2.54275977 C28.792032,2.62740709 28.7163552,2.72218315 28.6594175,2.8328758 C28.6050023,2.93922756 28.4979737,3 28.3866208,3" id="Fill-26" fill="#FFFFFF" mask="url(#mask-2)"></path>
                    <path d="M25.0766404,5.46450499 C24.966766,5.46450499 24.8577467,5.41412577 24.7863497,5.31771036 C24.6653596,5.15484651 24.6969966,4.92336268 24.8573191,4.80045476 C25.1535952,4.57287966 25.4691099,4.32836672 25.7923201,4.07690493 C25.9517876,3.95182549 26.1800868,3.98266105 26.3023595,4.1450906 C26.4246321,4.30665154 26.3947053,4.53856967 26.2352378,4.66278051 C25.910745,4.91597952 25.5930926,5.16179537 25.295534,5.38980476 C25.2301225,5.44018398 25.1531676,5.46450499 25.0766404,5.46450499 L25.0766404,5.46450499 Z M23.1771391,6.87468883 C22.991165,6.87468883 22.8325525,6.73093433 22.8150239,6.53940644 C22.7983504,6.3543931 22.9189129,6.18848912 23.0916337,6.14592736 C23.2237395,6.04690614 23.519588,5.82323977 23.9167603,5.52053015 C24.0779379,5.39762223 24.3053821,5.43106361 24.4263722,5.59436177 C24.5465072,5.75765993 24.5140152,5.98914376 24.3536927,6.11161738 C23.8889711,6.46557482 23.5623407,6.71182497 23.4734151,6.77870773 L23.4725601,6.77740482 C23.4148439,6.82908695 23.3421644,6.86122542 23.2643545,6.86817428 L23.2109137,6.87338592 C23.1993705,6.87425453 23.1882548,6.87468883 23.1771391,6.87468883 L23.1771391,6.87468883 Z M20.8407055,7.26295626 C20.673115,7.26295626 20.5221981,7.14439138 20.4854308,6.97110423 C20.4435332,6.77132457 20.5687985,6.57501933 20.7650333,6.53202328 C21.208806,6.43517357 21.6051233,6.36047335 21.9420144,6.30357957 C22.1416693,6.27144111 22.3276435,6.40520662 22.3609906,6.6067235 C22.3939101,6.80824038 22.2600942,6.99846536 22.0621494,7.03190674 C21.7346639,7.0874976 21.3490348,7.16046061 20.9176603,7.2547045 C20.8915812,7.26035044 20.8659296,7.26295626 20.8407055,7.26295626 L20.8407055,7.26295626 Z M18.5560026,7.86924411 C18.4003829,7.86924411 18.2563064,7.76718276 18.2084234,7.60822764 C18.1494247,7.41279101 18.257589,7.20649679 18.449976,7.14656289 C18.850141,7.02191776 19.2344876,6.91160464 19.6000229,6.81432063 C19.7949751,6.76437571 19.99292,6.88076908 20.0442232,7.07881153 C20.0946713,7.27598537 19.9783841,7.47793655 19.7842869,7.52961868 C19.4281572,7.62429687 19.0527887,7.73200417 18.6628843,7.85317488 C18.6273996,7.86403247 18.5914874,7.86924411 18.5560026,7.86924411 L18.5560026,7.86924411 Z M16.3341462,8.67531163 C16.1909248,8.67531163 16.0549713,8.5884509 15.9972551,8.44513071 C15.9211554,8.25664294 16.0105085,8.04079404 16.1964826,7.963488 C16.5756988,7.80627009 16.9493572,7.66208129 17.3140375,7.52961868 C17.5038594,7.46230162 17.7112098,7.56175715 17.778759,7.75371935 C17.8463083,7.94611585 17.7475496,8.15718741 17.5585828,8.22580738 C17.2033081,8.35392695 16.8403379,8.49507563 16.4718098,8.6479505 C16.426492,8.66662555 16.3798916,8.67531163 16.3341462,8.67531163 L16.3341462,8.67531163 Z M14.1982227,9.68854196 C14.067827,9.68854196 13.9417066,9.61731617 13.876295,9.49180243 C13.7826667,9.31113212 13.8502159,9.08790006 14.0276395,8.99235327 C14.3726536,8.80647132 14.7334861,8.6244981 15.0998765,8.45077666 C15.2820029,8.36608745 15.4983315,8.4442621 15.5829817,8.62970975 C15.6680596,8.81472309 15.5893946,9.03448072 15.4072683,9.12090714 C15.0519935,9.28898264 14.7027042,9.46574421 14.3679508,9.64554591 C14.3140824,9.67464425 14.2555112,9.68854196 14.1982227,9.68854196 L14.1982227,9.68854196 Z M12.1777313,10.920227 C12.0614441,10.920227 11.9472944,10.8637676 11.8767525,10.7582318 C11.7634579,10.589722 11.8066381,10.3599754 11.972946,10.2453192 C12.2944461,10.0229557 12.6343299,9.80232951 12.9836192,9.58952074 C13.1550574,9.48485357 13.3790814,9.54174734 13.4825429,9.7163374 C13.5860044,9.89136175 13.5299984,10.1185025 13.3577051,10.2231697 C13.0203865,10.4290296 12.692046,10.6418384 12.3820891,10.8559501 C12.3192427,10.8993804 12.2482732,10.920227 12.1777313,10.920227 L12.1777313,10.920227 Z M10.3128597,12.3794872 C10.2115359,12.3794872 10.1106396,12.3369254 10.0388151,12.2535391 C9.90670933,12.0993613 9.92167276,11.8661403 10.0730172,11.7319405 C10.3701483,11.4678839 10.6826703,11.207736 11.0007502,10.9584457 C11.1602177,10.8342349 11.3880895,10.8650705 11.5107896,11.0257628 C11.6334898,11.1877581 11.6039905,11.4196762 11.444523,11.543887 C11.1379863,11.7840569 10.8378625,12.0342158 10.5518472,12.2882834 C10.4830154,12.3495202 10.3979375,12.3794872 10.3128597,12.3794872 L10.3128597,12.3794872 Z M8.64807063,14.0689282 C8.56342034,14.0689282 8.47791499,14.0389613 8.40908319,13.9781588 C8.25773872,13.8435247 8.24234776,13.6103036 8.37445352,13.4565601 C8.63652741,13.151679 8.9131372,12.8520095 9.19573237,12.5653691 C9.33767125,12.4216146 9.56810816,12.4220489 9.71004703,12.5658034 C9.85198591,12.7104265 9.85155838,12.9445162 9.7096195,13.088705 C9.43856756,13.3631849 9.17392851,13.6506939 8.92211526,13.9425459 C8.85029077,14.0263665 8.74982199,14.0689282 8.64807063,14.0689282 L8.64807063,14.0689282 Z M7.22996446,15.9737839 C7.16198771,15.9737839 7.09315591,15.9546745 7.03201958,15.9142843 C6.86357405,15.8031026 6.81611858,15.5737903 6.9251379,15.403109 C7.14274901,15.0639178 7.37532355,14.7273325 7.61644862,14.4037763 C7.73743869,14.2409125 7.96573796,14.2092083 8.12563296,14.3321162 C8.28595549,14.4554585 8.31759247,14.6869423 8.19617487,14.8498061 C7.96573796,15.1594646 7.74342406,15.4808493 7.53521855,15.8061427 C7.46553169,15.9147186 7.34881689,15.9737839 7.22996446,15.9737839 L7.22996446,15.9737839 Z M6.09231583,18.06235 C6.04144014,18.06235 5.98928188,18.0510581 5.93968878,18.02804 C5.75756239,17.9420479 5.67804242,17.7227246 5.76269272,17.5377112 C5.92985567,17.1707247 6.11326464,16.8046067 6.30693425,16.4493464 C6.40398281,16.2712819 6.62586919,16.2065706 6.80115515,16.3051576 C6.97686863,16.4037445 7.04057012,16.6287138 6.94309402,16.8072125 C6.75797495,17.1472723 6.58268899,17.497321 6.42279399,17.8482383 C6.36123014,17.9828724 6.22955191,18.06235 6.09231583,18.06235 L6.09231583,18.06235 Z M5.25094322,20.2907619 C5.21503097,20.2907619 5.17911873,20.2855502 5.14320648,20.2742583 C4.95124698,20.2138901 4.84393777,20.0071616 4.90293646,19.8121593 C5.02136136,19.4230232 5.1530396,19.0351901 5.29455094,18.6603861 C5.36680296,18.4697268 5.57671859,18.3763515 5.76483035,18.4475773 C5.95208706,18.5205403 6.04571541,18.734652 5.97389092,18.924877 C5.83836495,19.2844804 5.71181703,19.6566786 5.59809492,20.0301797 C5.55021193,20.1887005 5.40613542,20.2907619 5.25094322,20.2907619 L5.25094322,20.2907619 Z M4.69986126,22.6108118 C4.67891245,22.6108118 4.65710859,22.6095089 4.63573225,22.6056001 C4.4382149,22.5699872 4.30610914,22.3775907 4.34116633,22.1769425 C4.41128072,21.7773831 4.49336585,21.3765209 4.58613915,20.986082 C4.63316709,20.7880395 4.83068444,20.6638287 5.02478158,20.7133393 C5.22016129,20.761547 5.3402963,20.9608923 5.29326836,21.1593691 C5.2043428,21.5350417 5.12482283,21.9211376 5.05770113,22.3059306 C5.02649168,22.485298 4.87300959,22.6108118 4.69986126,22.6108118 L4.69986126,22.6108118 Z M4.41769362,24.9812409 C4.40914308,24.9812409 4.40102007,24.9812409 4.39289707,24.9808066 C4.1919595,24.9669089 4.04061504,24.7905816 4.05429589,24.5868932 C4.08165761,24.1786478 4.11885243,23.7717054 4.16545285,23.3786606 C4.18939434,23.1767094 4.36767299,23.0355607 4.56989313,23.055973 C4.76954812,23.0807283 4.91148699,23.2640044 4.8875455,23.4668242 C4.84265519,23.8477085 4.80631542,24.2411876 4.77980876,24.6372725 C4.76698296,24.8322748 4.60751549,24.9812409 4.41769362,24.9812409 L4.41769362,24.9812409 Z M4.37280331,27.371648 C4.17656854,27.371648 4.01496344,27.2131272 4.00940559,27.0124789 C4.00299269,26.7684003 4,26.5204129 4,26.2698198 C4,26.1121675 4.00128258,25.9558182 4.00384774,25.7999032 C4.00726795,25.5962148 4.19281456,25.427705 4.37408589,25.4372597 C4.57502345,25.4411685 4.73491845,25.6096783 4.73149824,25.8133667 C4.72850555,25.9645043 4.72722297,26.1165106 4.72722297,26.2698198 C4.72722297,26.5138984 4.73021566,26.7545026 4.73662856,26.9920667 C4.74218641,27.1961894 4.58400152,27.3664364 4.38306395,27.371648 L4.37280331,27.371648 Z M4.54338648,29.7542377 C4.36211514,29.7542377 4.20521283,29.6165634 4.18255391,29.4293786 C4.13552597,29.0315565 4.09662104,28.6254826 4.06797675,28.2224488 C4.05344084,28.0191947 4.20435778,27.8419988 4.40444029,27.8272325 C4.60537785,27.8081232 4.77895371,27.9657754 4.79348961,28.1690295 C4.82127885,28.560337 4.8589012,28.9542504 4.90507409,29.3403463 C4.92944312,29.5427318 4.78707671,29.7268765 4.58784926,29.7516319 C4.57288582,29.7533691 4.55792239,29.7542377 4.54338648,29.7542377 L4.54338648,29.7542377 Z M4.95081945,32.1068604 C4.78579413,32.1068604 4.63615978,31.9917699 4.59725484,31.8215229 C4.50747423,31.429781 4.42709921,31.0289188 4.3582674,30.6306624 C4.32321021,30.4295798 4.4557435,30.2380519 4.65326085,30.2028733 C4.8524883,30.1694319 5.04017254,30.3018945 5.07437468,30.5025428 C5.14106885,30.8882044 5.21887871,31.2756032 5.30566664,31.6534474 C5.35098447,31.8523584 5.22956688,32.0508352 5.03375964,32.0968714 C5.0059704,32.1038202 4.97818116,32.1068604 4.95081945,32.1068604 L4.95081945,32.1068604 Z M5.62203642,34.3947718 C5.47325712,34.3947718 5.33431093,34.3018308 5.28001504,34.1524304 C5.14448906,33.7750206 5.01794115,33.3858845 4.90379151,32.9967485 C4.84693046,32.8008775 4.9563773,32.5954519 5.14919186,32.5372553 C5.33986878,32.4790586 5.54379903,32.5902403 5.60108761,32.7861112 C5.71096198,33.1609152 5.8328071,33.5357193 5.96363028,33.8987971 C6.03246208,34.090325 5.93541352,34.3022652 5.74687423,34.3726223 C5.70540413,34.387823 5.66350651,34.3947718 5.62203642,34.3947718 L5.62203642,34.3947718 Z M6.57200082,36.5788847 C6.44160517,36.5788847 6.31505725,36.5072246 6.24964566,36.3812766 C6.06709175,36.0268848 5.89137826,35.6577267 5.7289181,35.2824884 C5.64768802,35.0957379 5.73105574,34.8777174 5.91489223,34.7951998 C6.09787367,34.7131164 6.31334715,34.796937 6.3941497,34.9841218 C6.55062448,35.3437252 6.71864249,35.698117 6.89392845,36.0377424 C6.98712928,36.2184127 6.918725,36.4416448 6.74087388,36.536323 C6.68700551,36.564987 6.6292894,36.5788847 6.57200082,36.5788847 L6.57200082,36.5788847 Z M7.80199523,38.6144658 C7.68870064,38.6144658 7.57668864,38.5606121 7.5057192,38.4598537 C7.27485477,38.1306515 7.05168581,37.7884203 6.84262524,37.4422803 C6.73745366,37.2681246 6.79089451,37.0405495 6.96233273,36.9337108 C7.13377094,36.8273064 7.35736743,36.8815943 7.462539,37.0553158 C7.66304904,37.3871237 7.8768124,37.7154573 8.09827125,38.0303274 C8.21455852,38.1966657 8.17650864,38.4272809 8.01319343,38.5458458 C7.94906442,38.5923163 7.87552982,38.6144658 7.80199523,38.6144658 L7.80199523,38.6144658 Z M9.29449105,40.4619934 C9.19787001,40.4619934 9.10124896,40.422906 9.02942447,40.3456 C8.75537984,40.0494049 8.48817563,39.7410493 8.23593486,39.4292193 C8.10853189,39.2715671 8.13076328,39.0387804 8.28638301,38.9093579 C8.44157522,38.7795011 8.67072955,38.8025192 8.79813251,38.9601714 C9.04011264,39.2589723 9.29620115,39.5551674 9.55955762,39.839202 C9.6967937,39.9877338 9.68995327,40.2218235 9.54373913,40.3621035 C9.47362475,40.4289863 9.38384413,40.4619934 9.29449105,40.4619934 L9.29449105,40.4619934 Z M37.8036836,41.0296282 C37.7079176,41.0296282 37.6121517,40.9914095 37.5403272,40.914972 C37.4018085,40.7673088 37.4073664,40.5336534 37.5527254,40.3929391 C37.8267701,40.1271453 38.1003872,39.8491909 38.3731492,39.5590761 C38.5120954,39.4118472 38.7421048,39.4062013 38.8874639,39.5473499 C39.032823,39.6880643 39.0379533,39.922154 38.8994346,40.0698172 C38.6185496,40.3681838 38.337237,40.6535212 38.0546418,40.9271325 C37.9845274,40.9957525 37.8938918,41.0296282 37.8036836,41.0296282 L37.8036836,41.0296282 Z M11.0157137,42.0923691 C10.9344836,42.0923691 10.852826,42.065008 10.7852768,42.0089828 C10.4740373,41.7497036 10.1696383,41.4795667 9.88105772,41.2059554 C9.73398853,41.0669783 9.72586552,40.8333229 9.86267407,40.6839225 C9.99991016,40.5340878 10.2299195,40.5254017 10.3769887,40.6656817 C10.6544536,40.9284354 10.9473094,41.188149 11.2461506,41.437005 C11.4017703,41.5664274 11.4244292,41.7992142 11.2974538,41.9568664 C11.2252018,42.0458986 11.1208852,42.0923691 11.0157137,42.0923691 L11.0157137,42.0923691 Z M36.0247449,42.5948584 C35.9165806,42.5948584 35.809699,42.5462164 35.738302,42.4532754 C35.6143192,42.2925831 35.642536,42.0602307 35.8007209,41.9347169 C36.1038374,41.6936784 36.4048162,41.4417823 36.6951068,41.1855432 C36.8464513,41.0517777 37.0764607,41.0682812 37.2081389,41.222459 C37.3398171,41.3762025 37.3235711,41.6098578 37.1717991,41.7436233 C36.8725304,42.0081142 36.5617185,42.2678278 36.2487689,42.5162495 C36.1825023,42.5696688 36.1034098,42.5948584 36.0247449,42.5948584 L36.0247449,42.5948584 Z M12.9250481,43.4934326 C12.8583539,43.4934326 12.7908047,43.4747575 12.7305234,43.4356702 C12.3910672,43.2163469 12.0571688,42.9866003 11.7369513,42.7520763 C11.5740636,42.6326428 11.5372963,42.4020276 11.6544386,42.2365579 C11.772436,42.0706539 11.9998802,42.0337381 12.1623404,42.1527373 C12.4710147,42.3785752 12.7937973,42.6005044 13.1208553,42.8120102 C13.2901559,42.9214547 13.3401765,43.1498984 13.2324398,43.322317 C13.1631804,43.4330644 13.0451831,43.4934326 12.9250481,43.4934326 L12.9250481,43.4934326 Z M34.0974544,43.9672578 C33.9756093,43.9672578 33.8571844,43.906021 33.787925,43.7935364 C33.6818984,43.6198149 33.7340567,43.3922399 33.9046398,43.2840983 C34.2287051,43.0791069 34.5536254,42.8606522 34.8699952,42.635683 C35.034593,42.5179867 35.2607546,42.5588112 35.3766144,42.7260181 C35.4920466,42.893225 35.4522866,43.1234059 35.2876888,43.2402336 C34.9606309,43.4738889 34.6245949,43.6992925 34.2889864,43.911667 C34.2291326,43.9494514 34.162866,43.9672578 34.0974544,43.9672578 L34.0974544,43.9672578 Z M14.9818792,44.6634465 C14.9280108,44.6634465 14.8728598,44.651286 14.8215566,44.6256621 C14.4620067,44.4462947 14.1050218,44.2556354 13.7600078,44.0593302 C13.5847218,43.9598747 13.5223029,43.7349054 13.6202065,43.5568409 C13.7185377,43.3783421 13.9399965,43.3136309 14.1152825,43.4148236 C14.4491809,43.60418 14.7946225,43.7887591 15.1426292,43.9624805 C15.3230455,44.0528157 15.3970076,44.2738762 15.3085096,44.456718 C15.2452356,44.5878777 15.1161226,44.6634465 14.9818792,44.6634465 L14.9818792,44.6634465 Z M32.0320728,45.114688 C31.8956917,45.114688 31.7652961,45.0365133 31.7033047,44.9036164 C31.6169443,44.7190374 31.6943266,44.4988455 31.8760255,44.4115504 C32.219757,44.2456465 32.5664812,44.0658448 32.9059374,43.8769227 C33.0820784,43.7792044 33.3031097,43.8447842 33.3993032,44.023283 C33.4959243,44.2022161 33.4313677,44.4271854 33.2552267,44.5249037 C32.9033722,44.7212089 32.5442498,44.9070909 32.187265,45.0790751 C32.1372443,45.1033961 32.084231,45.114688 32.0320728,45.114688 L32.0320728,45.114688 Z M17.1494397,45.6089255 C17.1071145,45.6089255 17.0643619,45.6015424 17.0228918,45.5859074 C16.6509435,45.4456274 16.2764301,45.2936211 15.9104672,45.1342317 C15.7257757,45.0534512 15.6402703,44.8362994 15.7193628,44.6491145 C15.7988827,44.4610611 16.0130736,44.3750689 16.1969101,44.4545465 C16.5521848,44.6095929 16.915155,44.7572561 17.2755601,44.8927589 C17.4640994,44.9639846 17.5598654,45.1763591 17.4901785,45.367887 C17.4358826,45.5168531 17.2969364,45.6089255 17.1494397,45.6089255 L17.1494397,45.6089255 Z M29.8482662,46.0093534 C29.6964942,46.0093534 29.5545553,45.9125037 29.5036797,45.7574574 C29.4395507,45.5641922 29.5421571,45.3548579 29.7324065,45.2897124 C30.1000795,45.1641986 30.4647598,45.0278273 30.8166143,44.8827699 C31.0030159,44.8063324 31.2146416,44.8979705 31.2903139,45.0864583 C31.3655586,45.2758146 31.275778,45.4912292 31.0893763,45.568101 C30.7242685,45.71837 30.3454798,45.8603873 29.964126,45.9906784 C29.9256485,46.0037075 29.8867436,46.0093534 29.8482662,46.0093534 L29.8482662,46.0093534 Z M19.4003679,46.3333439 C19.369586,46.3333439 19.3383766,46.3294352 19.3071671,46.3207491 C18.9206829,46.2173849 18.5329162,46.103163 18.1558376,45.981558 C17.9643056,45.9198869 17.858279,45.7122898 17.9189878,45.5181561 C17.9792691,45.323588 18.1831993,45.2145778 18.3755864,45.2775519 C18.7415492,45.3952481 19.1177728,45.5059956 19.4927137,45.606754 C19.6872384,45.6584361 19.8030981,45.8608216 19.7517949,46.0579955 C19.7086147,46.2238994 19.5615455,46.3333439 19.4003679,46.3333439 L19.4003679,46.3333439 Z M27.573824,46.6291047 C27.4045234,46.6291047 27.2527514,46.5083683 27.2176942,46.3333439 C27.1779342,46.1335643 27.3053372,45.9381277 27.5019995,45.8977374 C27.8739478,45.8213 28.2527364,45.7305305 28.6272499,45.6284692 C28.8217745,45.576787 29.0205745,45.6927461 29.0723052,45.8903543 C29.1244635,46.0875281 29.0090312,46.2899136 28.8149341,46.3428986 C28.4263123,46.4484344 28.0334152,46.542244 27.6465035,46.6221559 C27.6221345,46.6269332 27.5977655,46.6291047 27.573824,46.6291047 L27.573824,46.6291047 Z M21.7188454,46.8110779 C21.704737,46.8110779 21.6906286,46.8102093 21.6760927,46.8084721 C21.5952902,46.7989174 21.1575028,46.7437609 20.4764527,46.6004407 C20.2797904,46.5591818 20.1532425,46.3637452 20.1938576,46.1635312 C20.2344726,45.9637516 20.4272871,45.8351977 20.6235219,45.8768908 C21.2755002,46.0136965 21.6854983,46.0653786 21.7611705,46.0749333 C21.960398,46.09882 22.1031919,46.2820961 22.0801055,46.4849159 C22.0578741,46.6729694 21.9009718,46.8110779 21.7188454,46.8110779 L21.7188454,46.8110779 Z M25.2412381,46.9543981 C25.0518438,46.9543981 24.8923763,46.8058663 24.8786955,46.6112983 C24.8641596,46.4076099 25.0150765,46.2308483 25.2155865,46.2165163 C25.5952303,46.1891551 25.9817144,46.1478963 26.3634958,46.094477 C26.5648609,46.0653786 26.7465598,46.2078302 26.773494,46.4097814 C26.8012832,46.6121669 26.6619095,46.7984831 26.4631095,46.8262786 C26.0655097,46.8818694 25.663207,46.9248655 25.2673173,46.9535295 C25.2587667,46.9543981 25.2497887,46.9543981 25.2412381,46.9543981 L25.2412381,46.9543981 Z M24.0642571,47 L24.0120988,47 C23.6179191,47 23.2305799,46.985668 22.8603418,46.9583069 C22.6598317,46.9435405 22.5097699,46.7663447 22.5243058,46.5626563 C22.5388417,46.3589679 22.7102799,46.2117389 22.9137826,46.2212936 C23.2664922,46.2473518 23.6358753,46.2612495 24.0120988,46.2612495 L24.0642571,46.2612495 C24.2651946,46.2612495 24.4276548,46.4262849 24.4276548,46.6304076 C24.4276548,46.8345303 24.2651946,47 24.0642571,47 L24.0642571,47 Z" id="Fill-27" fill="#FFFFFF" mask="url(#mask-2)"></path>
                    <path d="M40.811763,39 C40.675978,39 40.5395107,38.9585616 40.4289721,38.8732826 C40.1881073,38.6871102 40.1642255,38.3640109 40.3757499,38.1520145 C40.4132784,38.1141795 40.4508069,38.076945 40.4883354,38.0385094 L40.3300333,37.9718477 C40.0407226,37.8499347 39.9185843,37.5448521 40.0570987,37.2902163 C40.1962954,37.0355804 40.54224,36.9286814 40.8315508,37.0499938 L41.6735542,37.4067242 C41.8345856,37.4757882 41.9499005,37.6061089 41.987429,37.7598513 C42.0242752,37.9135937 41.979241,38.0745428 41.8639261,38.194654 C41.6592251,38.4096532 41.4538418,38.6198479 41.2484584,38.8264392 C41.1338259,38.9411455 40.9727944,39 40.811763,39" id="Fill-28" fill="#FFFFFF" mask="url(#mask-2)"></path>
                    <path d="M16.5474383,15.8528647 C16.4952884,15.8528647 16.4426851,15.843009 16.3923492,15.8206097 C16.1973542,15.7354921 16.1084727,15.5106026 16.1946333,15.3184162 C16.3583384,14.9510668 16.5406361,14.5765497 16.7365381,14.2051684 C16.8349426,14.0183578 17.0684832,13.9457839 17.256676,14.0434451 C17.4457759,14.1411063 17.5192391,14.3709236 17.4208347,14.5577342 C17.2326418,14.9143319 17.0575997,15.2736175 16.9006967,15.6252873 C16.83721,15.7681952 16.6957252,15.8528647 16.5474383,15.8528647 M15.7402495,18.1340147 C15.7089596,18.1340147 15.6767627,18.1304308 15.6445659,18.1219191 C15.4382339,18.0699526 15.3135278,17.8625346 15.3665846,17.6587005 C15.4672564,17.2671598 15.5906021,16.8675554 15.7320869,16.4692949 C15.8023758,16.2708366 16.023219,16.1642157 16.2241093,16.2358936 C16.4249995,16.3062276 16.5306596,16.5235013 16.4603707,16.7219596 C16.3256881,17.0991647 16.2091445,17.4777137 16.1139144,17.846855 C16.0694737,18.0193301 15.9125707,18.1340147 15.7402495,18.1340147 M15.3860841,20.5240256 L15.3738402,20.5240256 C15.1607061,20.5168578 14.9938266,20.3412469 15.0001753,20.130693 C15.0137796,19.7216808 15.0523251,19.301469 15.1158119,18.8830491 C15.1466483,18.6742871 15.3425503,18.5331712 15.554324,18.5618424 C15.7647372,18.5927535 15.9103033,18.7867319 15.8785599,18.9950458 C15.8200614,19.3852425 15.7837833,19.7754392 15.7719929,20.1553323 C15.7647372,20.3609583 15.5937765,20.5240256 15.3860841,20.5240256 M15.6205316,22.9229962 C15.4454896,22.9229962 15.2867727,22.8047276 15.2450528,22.6286687 C15.1493692,22.2232404 15.0804407,21.8052685 15.0396278,21.3872966 C15.0196748,21.1776387 15.1752174,20.9912761 15.386991,20.9715646 C15.602846,20.9505093 15.7878646,21.1050648 15.808271,21.3142747 C15.8450026,21.6990956 15.9084894,22.0825725 15.9969174,22.4552977 C16.0454394,22.6600278 15.9161985,22.8652059 15.7085061,22.9131405 C15.6790301,22.9198603 15.6500076,22.9229962 15.6205316,22.9229962 M16.4884863,25.175923 C16.3510828,25.175923 16.2182141,25.1029011 16.1483787,24.9752248 C15.9456745,24.6038436 15.7674581,24.2190227 15.6182642,23.8319619 C15.5420801,23.6352956 15.641845,23.414886 15.8413748,23.3400721 C16.0395442,23.2652583 16.2631083,23.3633674 16.3392924,23.5604817 C16.4766959,23.9170794 16.641308,24.2714372 16.827687,24.6141473 C16.9288123,24.7996139 16.8585234,25.0303272 16.670784,25.1302283 C16.6127389,25.1611394 16.5501591,25.175923 16.4884863,25.175923 M17.8888228,27.1542338 C17.7813488,27.1542338 17.6747817,27.1098831 17.5981441,27.0238695 C17.316535,26.7053508 17.0535184,26.3747363 16.81635,26.041882 C16.6939113,25.8694069 16.7360846,25.6319738 16.9102197,25.5110173 C17.0848083,25.3891648 17.3246976,25.4312756 17.4475898,25.6037506 C17.6688865,25.9146536 17.9151244,26.2233167 18.1795014,26.5221241 C18.3196258,26.6807115 18.3033006,26.9212805 18.1427698,27.0601565 C18.0693065,27.1228747 17.9790647,27.1542338 17.8888228,27.1542338 M19.6610103,28.8207456 C19.5762101,28.8207456 19.490503,28.7934184 19.4193071,28.736972 C19.0896294,28.4753476 18.7712887,28.2007315 18.4729009,27.9216356 C18.3178119,27.7769358 18.3114632,27.5354707 18.4579362,27.3827072 C18.6044092,27.2299436 18.8483798,27.2236718 19.0034688,27.3679236 C19.2868919,27.6331319 19.5893609,27.8938604 19.9027134,28.1429412 C20.0691394,28.2746494 20.0954411,28.5147704 19.9616654,28.6787337 C19.8854813,28.772363 19.773926,28.8207456 19.6610103,28.8207456 M21.67218,30.2009936 C21.604612,30.2009936 21.536137,30.1835221 21.4735572,30.1463392 C21.1121361,29.9317534 20.7588777,29.7064159 20.4233048,29.4765986 C20.2482628,29.356986 20.204729,29.1191049 20.3262608,28.9466299 C20.4473391,28.7737069 20.6881353,28.7302522 20.8627239,28.8503127 C21.1851459,29.0707223 21.5243466,29.2866521 21.8717098,29.4936221 C22.054461,29.602035 22.1129595,29.8363322 22.0032181,30.016423 C21.9311153,30.1355875 21.8032348,30.2009936 21.67218,30.2009936 M23.8397993,31.3326089 C23.7853821,31.3326089 23.7305114,31.3214092 23.6779081,31.2976659 C23.2978945,31.1238469 22.9219622,30.9406202 22.5605412,30.7520177 C22.3723483,30.6539085 22.3002455,30.4231952 22.3995569,30.2368326 C22.4993218,30.051366 22.7337693,29.980136 22.9206018,30.0782452 C23.2697789,30.2601279 23.6334674,30.4375308 24.0016906,30.6055259 C24.1948717,30.6937794 24.2792184,30.9200128 24.1903369,31.1113033 C24.1250363,31.2506273 23.9853654,31.3326089 23.8397993,31.3326089 M26.1153461,32.2353028 C26.0740797,32.2353028 26.0319064,32.229031 25.99064,32.2146954 C25.6038242,32.0843311 25.2102063,31.9396313 24.8215767,31.7846278 C24.6238608,31.7062301 24.5281772,31.4844765 24.6079891,31.2887062 C24.6873475,31.0938318 24.9122721,30.9988585 25.109988,31.0777043 C25.4859203,31.2273319 25.8663873,31.3675519 26.2405057,31.4938842 C26.4418494,31.5615303 26.5493234,31.778804 26.480395,31.9777102 C26.4255243,32.1362976 26.2758769,32.2353028 26.1153461,32.2353028 M28.4212758,33.0600469 C28.3736608,33.0600469 28.3260457,33.0519831 28.2793376,33.0336157 C27.8771036,32.8763722 27.4961831,32.7330164 27.1429246,32.6057881 C26.9429413,32.5336621 26.8395486,32.3150445 26.9125584,32.1174822 C26.9855682,31.9194719 27.2068649,31.8195708 27.4073016,31.8894568 C27.7664553,32.018925 28.1537245,32.1649688 28.5627606,32.3249002 C28.76093,32.401954 28.857974,32.6237075 28.779976,32.8190299 C28.7201171,32.9691055 28.574551,33.0600469 28.4212758,33.0600469 M30.6877531,33.9842442 C30.6369637,33.9842442 30.5857208,33.9743885 30.5367453,33.9533331 C30.1521969,33.7920577 29.7753577,33.6352623 29.4098553,33.4851866 C29.2130464,33.4045489 29.1196302,33.1814514 29.201256,32.987025 C29.2828818,32.7925987 29.5091668,32.7007613 29.7055222,32.780951 C30.0737454,32.9319226 30.4528521,33.0896141 30.8392143,33.2526813 C31.0351163,33.334663 31.1262652,33.5586565 31.0428254,33.7526349 C30.9802456,33.8973347 30.8374004,33.9842442 30.6877531,33.9842442 M32.9347308,34.9536881 C32.8821275,34.9536881 32.8290707,34.9429364 32.7778278,34.9205371 C32.4037094,34.7561258 32.029591,34.5930586 31.6591005,34.4335752 C31.463652,34.3489056 31.374317,34.1244641 31.4595707,33.9313817 C31.5448243,33.7382993 31.7724697,33.6509418 31.9674647,33.7342674 C32.3402227,33.8946468 32.7157015,34.059058 33.0916338,34.2243652 C33.2866288,34.3099308 33.3736964,34.5352682 33.2875358,34.7274547 C33.2231421,34.8694666 33.0821108,34.9536881 32.9347308,34.9536881 M35.1690112,35.9504593 C35.1155009,35.9504593 35.0610837,35.9397076 35.0089339,35.9159643 C34.6429781,35.7506571 34.2711271,35.5835579 33.8956482,35.4169067 C33.7011067,35.3304452 33.6144926,35.1046598 33.7020136,34.9129213 C33.7890812,34.7207349 34.0176335,34.6351693 34.2121751,34.7211829 C34.5890143,34.88873 34.9626792,35.0567252 35.3299955,35.2229283 C35.5236301,35.3107338 35.6088837,35.5365193 35.5200023,35.7282577 C35.4551551,35.8684777 35.3154842,35.9504593 35.1690112,35.9504593 M37.395129,36.9673899 C37.3402583,36.9673899 37.2849341,36.9557422 37.2318773,36.9315509 C36.875898,36.7675877 36.5045005,36.5969046 36.121766,36.4221896 C35.9281314,36.3343842 35.8437847,36.1077027 35.9331197,35.9164123 C36.0220011,35.7251218 36.2519139,35.6413482 36.4446416,35.7300497 C36.8287364,35.9047646 37.2010409,36.0763437 37.5583807,36.2412029 C37.7515618,36.3299043 37.8350015,36.5570337 37.7447597,36.7478762 C37.679459,36.8858562 37.5402416,36.9673899 37.395129,36.9673899 M39.6139912,38 C39.5582135,38 39.5019824,37.9879043 39.4484721,37.9628171 L38.3406282,37.4449441 C38.1479006,37.3553467 38.0658213,37.1277692 38.1565166,36.9373747 C38.2476655,36.7474282 38.4775782,36.6658946 38.6698524,36.755492 L39.7795102,37.274261 C39.9722379,37.3652024 40.0538637,37.5918838 39.9627149,37.7822783 C39.8965073,37.9198103 39.7581968,38 39.6139912,38" id="Fill-29" fill="#FFFFFF" mask="url(#mask-2)"></path>
                    <path d="M31.2015778,14 C31.1063047,14 31.0103745,13.9775439 30.922329,13.9288891 C30.6549072,13.7816771 30.5635765,13.4579353 30.7179846,13.2040569 C30.7317828,13.1816009 30.7442668,13.1578972 30.7560939,13.1323223 C30.6391379,13.1073711 30.5162684,13.0755583 30.3868284,13.0356364 C30.0931244,12.9451883 29.9321457,12.645774 30.0274188,12.3669444 C30.1220348,12.0887386 30.4374217,11.9359125 30.7317828,12.0257368 C31.097763,12.138641 31.2902804,12.1392648 31.3710982,12.1292843 C31.5386475,12.107452 31.7068538,12.1617208 31.8290663,12.2733774 C31.9506216,12.385034 32.0123849,12.5428503 31.9979296,12.702538 C31.9591633,13.11049 31.8546914,13.4585591 31.6864851,13.7348936 C31.5826703,13.9051855 31.3947523,14 31.2015778,14" id="Fill-30" fill="#FFFFFF" mask="url(#mask-2)"></path>
                    <path d="M30.494494,14 C30.4108329,14 30.325985,13.9780554 30.2476639,13.9322853 C29.8934389,13.7222441 29.5142936,13.3673687 29.120908,12.8795718 C28.9399388,12.6551099 28.9648592,12.3184171 29.1772755,12.1278127 C29.3890985,11.9359542 29.707723,11.9635417 29.8886922,12.1873766 C30.2826711,12.6758005 30.5698484,12.8996354 30.7419175,13.0012075 C30.9851876,13.1460418 31.0718155,13.4708218 30.9353469,13.7272601 C30.8427856,13.9021898 30.6713099,14 30.494494,14" id="Fill-31" fill="#FFFFFF" mask="url(#mask-2)"></path>
                    <path d="M30.5553991,12 C30.4576746,12 30.3617142,11.9528372 30.3038557,11.8654988 C30.2191847,11.7376353 30.1320441,11.5989418 30.0420812,11.449069 C29.9694053,11.3278432 29.9926898,11.1730795 30.0978229,11.0777059 C30.2029561,10.983031 30.3610086,10.9735985 30.47602,11.0563953 C30.4791952,11.0584914 30.6333669,11.1685379 30.8616258,11.312821 C31.001333,11.4012075 31.0419045,11.585317 30.9526471,11.7233118 C30.9205427,11.7736187 30.8753849,11.8106502 30.8245823,11.8337076 C30.8016505,11.8801716 30.766371,11.921046 30.7194491,11.9514398 C30.6686465,11.9842791 30.6118464,12 30.5553991,12" id="Fill-32" fill="#FFFFFF" mask="url(#mask-2)"></path>
                    <path d="M25.9038165,0.76682109 L25.890139,0.76682109 C25.594529,0.756232076 25.2975954,0.75049636 24.9997794,0.75049636 L24.7028458,0.752261196 L24.6979925,0.752261196 C24.4928304,0.752261196 24.325171,0.587690271 24.3229649,0.381645709 C24.3198765,0.17427752 24.485771,0.00397088021 24.6931392,0.00176483565 L24.9997794,0 C25.3068608,0 25.6126186,0.00529450695 25.9170527,0.0163247298 C26.1244209,0.0238252813 26.2863446,0.197661593 26.278844,0.405029782 C26.2713435,0.607544672 26.1050077,0.76682109 25.9038165,0.76682109 L25.9038165,0.76682109 Z M22.2911979,0.897860137 C22.1023605,0.897860137 21.9399956,0.755790867 21.9188176,0.563423781 C21.8963159,0.35693801 22.0450033,0.171630267 22.2510479,0.149569821 C22.6556364,0.105007721 23.0659607,0.070593426 23.4705493,0.0458857269 C23.6730642,0.0326494595 23.8552835,0.191043459 23.8676373,0.398411648 C23.8804324,0.605338628 23.7224796,0.78314582 23.5155526,0.795499669 C23.1233179,0.818883741 22.7253475,0.852415619 22.3326715,0.895654092 C22.318994,0.897418928 22.3048754,0.897860137 22.2911979,0.897860137 L22.2911979,0.897860137 Z M28.3057578,0.969777189 C28.289433,0.969777189 28.2726671,0.968894772 28.2559012,0.966688727 C27.8649901,0.914626075 27.4714317,0.871387602 27.0752261,0.837855725 C26.8687403,0.820648577 26.7151996,0.638870505 26.732848,0.432384734 C26.7504964,0.225457754 26.9309508,0.0741230973 27.138319,0.0900066181 C27.5464372,0.124420913 27.9523494,0.169424222 28.354732,0.222369292 C28.5603353,0.249724244 28.7046106,0.43812045 28.6772557,0.643723803 C28.652548,0.832561218 28.4910655,0.969777189 28.3057578,0.969777189 L28.3057578,0.969777189 Z M19.9108758,1.27685859 C19.7370395,1.27685859 19.5808515,1.15596735 19.54379,0.978601368 C19.5014339,0.776086477 19.6311493,0.576660049 19.8341054,0.534303993 C20.2298698,0.451356717 20.6348996,0.376351202 21.0377234,0.312817119 C21.2424443,0.275314361 21.4348114,0.419589676 21.4674608,0.624310611 C21.5001103,0.829031546 21.3606883,1.02139863 21.1559674,1.05360688 C20.7650563,1.11625855 20.3719391,1.18861681 19.9885286,1.26935804 C19.9624972,1.27421134 19.9364659,1.27685859 19.9108758,1.27685859 L19.9108758,1.27685859 Z M30.6759321,1.40789764 C30.6476947,1.40789764 30.6190161,1.40480918 30.5898963,1.39819104 C30.2060446,1.30774322 29.8186631,1.22611957 29.427752,1.15420251 C29.2239135,1.11625855 29.0893448,0.920803 29.1268476,0.716964483 C29.1647915,0.513125965 29.3615707,0.377674829 29.5640856,0.415618795 C29.9624972,0.489300684 30.365321,0.574012795 30.7619678,0.667107876 C30.9636003,0.714758438 31.0889036,0.91683212 31.041253,1.1189058 C31.0006618,1.29141849 30.8466799,1.40789764 30.6759321,1.40789764 L30.6759321,1.40789764 Z M17.5799691,1.88837415 C17.4202515,1.88837415 17.2724465,1.78645489 17.2217075,1.62585484 C17.159497,1.42819325 17.269358,1.21729539 17.4665784,1.15508493 C17.8552835,1.03287006 18.2510479,0.918596956 18.6432826,0.81535407 C18.8440326,0.763291418 19.0487536,0.883300243 19.1016987,1.08360909 C19.1537613,1.28435914 19.0337525,1.48952129 18.8334436,1.54202515 C18.4531216,1.64129715 18.0692698,1.75204059 17.6929186,1.871167 C17.6554158,1.88263843 17.6170307,1.88837415 17.5799691,1.88837415 L17.5799691,1.88837415 Z M32.9913964,2.07632914 C32.9512464,2.07632914 32.910214,2.06971101 32.870064,2.05603353 C32.4932716,1.92720053 32.1120671,1.8067505 31.7379219,1.69909552 C31.5384955,1.64173836 31.4237812,1.43392897 31.4811383,1.23494375 C31.5384955,1.03507611 31.7476285,0.922567836 31.9457313,0.978160159 C32.3317891,1.0889036 32.724465,1.2128833 33.1131701,1.34568718 C33.3090668,1.41275094 33.4136334,1.62629605 33.3470108,1.82263402 C33.2936245,1.97838076 33.1475844,2.07632914 32.9913964,2.07632914 L32.9913964,2.07632914 Z M15.3223031,2.72490624 C15.1767042,2.72490624 15.0381646,2.63975292 14.9768365,2.49724244 C14.8956541,2.30664019 14.9838959,2.08603574 15.1744981,2.0048533 C15.5486433,1.84469446 15.930289,1.6929186 16.3088462,1.55217295 C16.5038606,1.48157953 16.7196117,1.57996912 16.7915288,1.77365983 C16.8634458,1.96867417 16.7641738,2.18442533 16.5696007,2.25634238 C16.2025149,2.39267593 15.8323406,2.54003971 15.4696669,2.69490404 C15.4215751,2.71564086 15.3712773,2.72490624 15.3223031,2.72490624 L15.3223031,2.72490624 Z M35.2349437,2.97198323 C35.1828811,2.97198323 35.129936,2.96139422 35.079197,2.93801015 C34.7196117,2.77343922 34.3516435,2.61592764 33.9854401,2.46988749 C33.793073,2.39355835 33.6990955,2.17471873 33.7763071,1.98235164 C33.8530774,1.78954335 34.0705934,1.69600706 34.2638429,1.77277741 C34.6415178,1.92322965 35.0209574,2.08559453 35.3915729,2.25545996 C35.5799691,2.3414957 35.6629164,2.5643062 35.5764394,2.7527024 C35.5137878,2.89080079 35.3774542,2.97198323 35.2349437,2.97198323 L35.2349437,2.97198323 Z M13.159497,3.77895433 C13.0266931,3.77895433 12.8983013,3.70880212 12.829914,3.58482241 C12.7302008,3.40304434 12.7963821,3.17449812 12.9781602,3.07478491 C13.3377454,2.87712332 13.7030664,2.68784469 14.0639753,2.51268476 C14.2501655,2.42223693 14.4747408,2.4998897 14.5656298,2.68607986 C14.6560777,2.87227002 14.5784249,3.09684536 14.3922347,3.18729318 C14.0423561,3.35759982 13.6880653,3.54114273 13.3395103,3.7326274 C13.2825943,3.76439444 13.2203839,3.77895433 13.159497,3.77895433 L13.159497,3.77895433 Z M37.3778954,4.08338848 C37.3139201,4.08338848 37.2490624,4.06662255 37.1899404,4.03220825 C36.8475623,3.83322303 36.5003309,3.64262078 36.147805,3.45951908 C35.9638209,3.36421796 35.8919038,3.13743658 35.9876462,2.95345246 C36.0829473,2.76902713 36.3092874,2.69711008 36.4937128,2.79329362 C36.8559453,2.98124862 37.2168542,3.17979263 37.5671741,3.38363115 C37.7463049,3.48775645 37.8071917,3.71718509 37.7030664,3.89675711 C37.6329142,4.01632473 37.5071696,4.08338848 37.3778954,4.08338848 L37.3778954,4.08338848 Z M11.108758,5.04081182 C10.9887492,5.04081182 10.8713876,4.98389587 10.7985881,4.87712332 C10.6816678,4.70637547 10.7253475,4.47253475 10.8960953,4.35561438 C11.235385,4.12309729 11.5808515,3.89940437 11.9223472,3.68938893 C12.099272,3.58085153 12.3304655,3.63644386 12.4385617,3.81292742 C12.5470991,3.9898522 12.4919479,4.22104567 12.3150232,4.32958306 C11.9841165,4.53253916 11.6492389,4.74961394 11.3200971,4.9750717 C11.2552394,5.0196338 11.1815575,5.04081182 11.108758,5.04081182 L11.108758,5.04081182 Z M39.4008383,5.39863225 C39.3245092,5.39863225 39.2477388,5.37568939 39.1811163,5.32759762 C38.8607986,5.09640415 38.5312155,4.87050518 38.2016325,4.65607765 C38.0277962,4.54312817 37.9783808,4.31061107 38.0913302,4.13677476 C38.2042797,3.96337966 38.4367968,3.91440547 38.6101919,4.02647253 C38.950364,4.2475182 39.2900949,4.48047651 39.6205603,4.71917053 C39.7886609,4.84006177 39.8266049,5.07522612 39.7052724,5.24332672 C39.6320318,5.34480477 39.5173174,5.39863225 39.4008383,5.39863225 L39.4008383,5.39863225 Z M9.18905802,6.49636003 C9.08228546,6.49636003 8.97551291,6.45091551 8.90138981,6.36267373 C8.76814472,6.20339731 8.78888154,5.96690933 8.94771674,5.83366424 C9.26141628,5.57070373 9.58349879,5.31392014 9.90425767,5.07037282 C10.069711,4.9455107 10.3048754,4.97816016 10.4301787,5.14317229 C10.555482,5.30862563 10.5228326,5.54378998 10.3578204,5.66909332 C10.0467681,5.90469887 9.73439223,6.1535407 9.43039929,6.40855945 C9.35980587,6.46768145 9.27421134,6.49636003 9.18905802,6.49636003 L9.18905802,6.49636003 Z M41.2848004,6.90447827 C41.1969998,6.90447827 41.1083168,6.87359365 41.0368409,6.81050077 C40.7399073,6.54886389 40.4367968,6.29428634 40.1270682,6.04720935 C39.9651445,5.91749393 39.9391132,5.68144717 40.0683874,5.51908229 C40.1976616,5.35715861 40.4345908,5.3315685 40.5960732,5.4604015 C40.9137437,5.71409662 41.2287668,5.97882197 41.5336422,6.24795941 C41.6889477,6.38473417 41.7039488,6.62210457 41.5667328,6.7774101 C41.4926098,6.86168101 41.3889257,6.90447827 41.2848004,6.90447827 L41.2848004,6.90447827 Z M7.41892786,8.1336863 C7.32450916,8.1336863 7.22920803,8.09794838 7.15640856,8.02647253 C7.00816236,7.8813148 7.00595632,7.64394441 7.15111405,7.49569821 C7.4356938,7.20582396 7.73130377,6.91859696 8.02911979,6.64284139 C8.18177807,6.50253695 8.41914847,6.51180234 8.55989411,6.66401941 C8.70063975,6.81623649 8.69093316,7.05360688 8.53915729,7.19435253 C8.24972424,7.46172513 7.96293845,7.74012795 7.68718288,8.02117803 C7.61350099,8.09618354 7.51643503,8.1336863 7.41892786,8.1336863 L7.41892786,8.1336863 Z M43.0134569,8.58592544 C42.9128612,8.58592544 42.813148,8.54577542 42.7390249,8.46679903 C42.4685639,8.17736598 42.1919259,7.89410986 41.9077873,7.61835429 C41.7595411,7.47363777 41.7560115,7.23626737 41.900728,7.08757997 C42.0450033,6.93801015 42.2828149,6.93536289 42.4315023,7.08007942 C42.7187293,7.35936466 43.0068387,7.65320979 43.2874476,7.95411427 C43.4290757,8.10589014 43.4211339,8.34326053 43.269358,8.48488859 C43.1969998,8.55239356 43.1052283,8.58592544 43.0134569,8.58592544 L43.0134569,8.58592544 Z M5.81645709,9.93514229 C5.73350982,9.93514229 5.65056254,9.90822855 5.58085153,9.85219501 C5.41936907,9.72203839 5.39422016,9.48599162 5.52437679,9.32450916 C5.77807192,9.0099272 6.04412089,8.69534525 6.31590558,8.39002868 C6.45356276,8.23516435 6.69093316,8.22104567 6.84579749,8.35914405 C7.00066181,8.49724244 7.01433929,8.73461284 6.87668211,8.88903596 C6.6137216,9.18508714 6.35737922,9.48731524 6.1089786,9.79572027 C6.0344143,9.88749173 5.9258769,9.93514229 5.81645709,9.93514229 L5.81645709,9.93514229 Z M44.5691595,10.4262078 C44.4566512,10.4262078 44.3450254,10.3754688 44.2709023,10.2792852 C44.0304434,9.9651445 43.7820428,9.65629826 43.527024,9.35407015 C43.3933377,9.19567615 43.4131921,8.95874697 43.5715861,8.82506067 C43.7299801,8.69181557 43.9664681,8.71166998 44.1005956,8.86962277 C44.3635561,9.18067505 44.6190161,9.49878668 44.8669755,9.82219281 C44.9931613,9.98676373 44.9618354,10.2228105 44.7972645,10.3489962 C44.7293183,10.4010589 44.6490183,10.4262078 44.5691595,10.4262078 L44.5691595,10.4262078 Z M4.39576439,11.8848445 C4.32517097,11.8848445 4.25413633,11.8649901 4.19060225,11.8235164 C4.01720715,11.7096845 3.96867417,11.4767262 4.08250607,11.3037723 C4.3070814,10.960953 4.54180454,10.6221046 4.77961615,10.2964924 C4.90227223,10.128833 5.13743658,10.0926539 5.30421355,10.2139863 C5.47143172,10.3362012 5.50849327,10.5713655 5.3862784,10.7385837 C5.15552614,11.0544893 4.92830355,11.3831899 4.71034635,11.7154203 C4.63798809,11.8252813 4.51842047,11.8848445 4.39576439,11.8848445 L4.39576439,11.8848445 Z M45.9382308,12.407677 C45.8124862,12.407677 45.6898301,12.3445842 45.6187955,12.2303111 C45.4101037,11.8945511 45.1930289,11.5632032 44.9684536,11.2380322 C44.8506508,11.0677256 44.8938893,10.8338848 45.0641959,10.7160821 C45.2349437,10.5982793 45.4687845,10.6415178 45.5865872,10.8118244 C45.8164571,11.1444959 46.0419148,11.4886389 46.2563424,11.8341054 C46.3657622,12.0101478 46.3119347,12.2417825 46.1354511,12.3512023 C46.0741231,12.3895875 46.0057357,12.407677 45.9382308,12.407677 L45.9382308,12.407677 Z M3.17273329,13.9655857 C3.1140525,13.9655857 3.0544893,13.9519082 2.99889698,13.9227884 C2.81491286,13.8270461 2.74431944,13.5998235 2.84050298,13.4162806 C3.02889918,13.0562541 3.22920803,12.6953452 3.4356938,12.3445842 C3.54070152,12.1658946 3.77057137,12.1058901 3.94970218,12.2113391 C4.12839179,12.316788 4.187955,12.5466578 4.08250607,12.7253475 C3.88263843,13.0655195 3.68850651,13.414957 3.50540481,13.7643944 C3.43834105,13.892345 3.30774322,13.9655857 3.17273329,13.9655857 L3.17273329,13.9655857 Z M47.1056695,14.5126848 C46.9671299,14.5126848 46.8338848,14.4359144 46.7685859,14.3035517 C46.595632,13.9523494 46.4107655,13.5989411 46.2188396,13.2534745 C46.118244,13.0721377 46.1839841,12.8435914 46.365321,12.7429958 C46.5466578,12.6424002 46.7747629,12.7072579 46.8757997,12.889036 C47.0730201,13.2450916 47.2640635,13.6095301 47.4418707,13.9717626 C47.5336422,14.1579528 47.457313,14.3825281 47.2711229,14.4742996 C47.2177366,14.5007721 47.1612619,14.5126848 47.1056695,14.5126848 L47.1056695,14.5126848 Z M2.15883521,16.1570704 C2.11206706,16.1570704 2.0644165,16.1482462 2.01853077,16.1297154 C1.82616369,16.0520627 1.73350982,15.8327818 1.81116259,15.6408559 C1.96426208,15.2622987 2.12839179,14.8833002 2.29869843,14.5157732 C2.38561659,14.3278182 2.6088683,14.247077 2.7968233,14.3326715 C2.98477829,14.4195897 3.06684315,14.6428414 2.97948379,14.8312376 C2.81491286,15.1877344 2.65563644,15.5548202 2.50694904,15.9227884 C2.44782705,16.0688286 2.30752261,16.1570704 2.15883521,16.1570704 L2.15883521,16.1570704 Z M48.0608868,16.7200529 C47.909111,16.7200529 47.7661593,16.6273991 47.7092433,16.4765056 C47.5702625,16.1072138 47.4211339,15.7379219 47.2658284,15.3787779 C47.1833223,15.189058 47.2706817,14.9680124 47.4612839,14.8855063 C47.651445,14.8030002 47.8724906,14.8903596 47.9549967,15.0805206 C48.1151555,15.4506949 48.2686962,15.8318994 48.4120891,16.2131039 C48.4853298,16.4067946 48.3869402,16.622987 48.1928083,16.6962277 C48.1491286,16.7125524 48.1045665,16.7200529 48.0608868,16.7200529 L48.0608868,16.7200529 Z M1.36686521,18.4363556 C1.33200971,18.4363556 1.29671299,18.4315023 1.26097507,18.4213545 C1.06243106,18.3631149 0.948157953,18.1544231 1.00639753,17.9554379 C1.12155306,17.5623208 1.2472976,17.170086 1.38010148,16.7888815 C1.44804765,16.593426 1.66291639,16.4897419 1.85793073,16.5581293 C2.05382749,16.6265167 2.15707037,16.840503 2.08868299,17.0363997 C1.9602912,17.4052504 1.83851754,17.7855725 1.72689168,18.166777 C1.67924112,18.3304655 1.52923009,18.4363556 1.36686521,18.4363556 L1.36686521,18.4363556 Z M48.7959409,19.0156629 C48.6300463,19.0156629 48.4782705,18.9053607 48.4332672,18.7372601 C48.3309067,18.3542908 48.219722,17.9744099 48.099272,17.5984999 C48.0361791,17.4008383 48.1447165,17.1899404 48.3423781,17.1264064 C48.5400397,17.0637547 48.7513788,17.1722921 48.8144717,17.3695125 C48.9375689,17.7546878 49.0531657,18.1495698 49.1586146,18.5435694 C49.2124421,18.7438782 49.0933157,18.9494816 48.8930068,19.0033091 C48.8603574,19.0121332 48.8281491,19.0156629 48.7959409,19.0156629 L48.7959409,19.0156629 Z M0.803882638,20.7800574 C0.780939775,20.7800574 0.757114494,20.7778513 0.733730421,20.7738804 C0.529891904,20.7354953 0.396205603,20.5387161 0.434590779,20.33576 C0.510037503,19.9347011 0.59651445,19.5318773 0.690933157,19.138319 C0.739466137,18.9371277 0.943304655,18.8113832 1.14405471,18.8612398 C1.34524597,18.9097728 1.46966689,19.1122877 1.42113391,19.3139201 C1.32936245,19.6955659 1.24553276,20.0860357 1.17229208,20.4742996 C1.13831899,20.654754 0.980807412,20.7800574 0.803882638,20.7800574 L0.803882638,20.7800574 Z M49.3006839,21.3730421 C49.1202294,21.3730421 48.960953,21.2424443 48.9305096,21.0584602 C48.8669755,20.6671079 48.7928524,20.2748732 48.7103463,19.892345 C48.6671079,19.6893889 48.7963821,19.4899625 48.998897,19.4462828 C49.2014119,19.4039268 49.4008383,19.5318773 49.444518,19.7343922 C49.5292301,20.1297154 49.6060004,20.534304 49.6717406,20.9371277 C49.7052724,21.1418487 49.5662916,21.334657 49.3615707,21.3681888 C49.3412751,21.3717185 49.3209795,21.3730421 49.3006839,21.3730421 L49.3006839,21.3730421 Z M0.473417163,23.16788 C0.46238694,23.16788 0.451356717,23.1674388 0.439885286,23.1669976 C0.233399515,23.1484668 0.080741231,22.9658063 0.0992720053,22.7597617 C0.135451136,22.3542908 0.181778072,21.9452901 0.237370395,21.5433488 C0.265607765,21.3381866 0.452680344,21.1908229 0.660930951,21.2230311 C0.866093095,21.2517097 1.00948599,21.4409883 0.981248621,21.6465917 C0.926979925,22.0361791 0.881976616,22.4328259 0.847121112,22.8259431 C0.829472755,23.0209574 0.665784249,23.16788 0.473417163,23.16788 L0.473417163,23.16788 Z M49.5729098,23.7679241 C49.3765718,23.7679241 49.2111185,23.6152658 49.1983234,23.4167218 C49.1731745,23.020075 49.1378778,22.6256342 49.0937569,22.2342819 C49.0699316,22.0282374 49.2181778,21.8429296 49.4242224,21.8191043 C49.6311493,21.8027796 49.8164571,21.9439665 49.8394,22.150011 C49.8857269,22.555482 49.921906,22.9653651 49.9479373,23.36863 C49.9607324,23.5751158 49.8041032,23.7542466 49.5971763,23.7670417 C49.5892345,23.7679241 49.5808515,23.7679241 49.5729098,23.7679241 L49.5729098,23.7679241 Z M0.376351202,25.5759982 C0.169865431,25.5759982 0.00220604456,25.4101037 0.000882417825,25.2036179 L0,25.0028679 C0,24.6582837 0.00661813369,24.318994 0.02029561,23.9801456 C0.0286785793,23.7736598 0.197220384,23.6170307 0.410324289,23.6201191 C0.617251268,23.6285021 0.77873373,23.8032208 0.770350761,24.010589 C0.757114494,24.3388484 0.75049636,24.6688727 0.75049636,25.0002206 L0.751378778,25.1983234 C0.753143614,25.4061328 0.585925436,25.5751158 0.378557247,25.5759982 L0.376351202,25.5759982 Z M49.5958526,26.5801897 C49.5901169,26.5801897 49.5834988,26.5801897 49.5773219,26.5797485 C49.3703949,26.5696007 49.2106773,26.3935583 49.2208251,26.1866314 C49.239797,25.7943966 49.2495036,25.398191 49.2495036,25.0002206 C49.2495036,24.8678579 49.2486212,24.7354953 49.2464152,24.6035738 C49.2428855,24.3966468 49.4083388,24.225899 49.615707,24.2223693 C49.8341054,24.219722 49.9938231,24.384293 49.9969115,24.5916612 C49.9991176,24.7279947 50,24.8634458 50,25.0002206 C50,25.4092213 49.9902934,25.820428 49.970439,26.2228105 C49.9607324,26.4235606 49.7948379,26.5801897 49.5958526,26.5801897 L49.5958526,26.5801897 Z M0.511361129,27.9832341 C0.321641297,27.9832341 0.158394,27.8398412 0.138539598,27.6470329 C0.0961835429,27.2455328 0.0630928745,26.8347673 0.0397088021,26.4270902 C0.0282373704,26.2201632 0.18663137,26.0427973 0.39355835,26.0313258 C0.590337525,26.0150011 0.777851313,26.177366 0.789763953,26.3847342 C0.811824399,26.7822634 0.844032649,27.1767042 0.885065078,27.5684977 C0.906684315,27.7745422 0.757114494,27.9594088 0.551069932,27.981028 C0.537392455,27.9827929 0.524597397,27.9832341 0.511361129,27.9832341 L0.511361129,27.9832341 Z M49.3633355,28.9794838 C49.345246,28.9794838 49.3267152,28.9781602 49.3081844,28.9759541 C49.1034635,28.9455107 48.9613942,28.7553497 48.9913964,28.5501875 C49.0487536,28.1606 49.0964041,27.7674829 49.1347893,27.3717185 C49.1550849,27.1656739 49.3381866,27.0134569 49.5446724,27.0341937 C49.7511582,27.0540481 49.9020516,27.237591 49.8821972,27.4440768 C49.8429296,27.8477829 49.7935142,28.2567836 49.7343922,28.6587249 C49.7070373,28.8457975 49.5464372,28.9794838 49.3633355,28.9794838 L49.3633355,28.9794838 Z M0.880652989,30.365321 C0.706375469,30.365321 0.549746305,30.2435473 0.513125965,30.0657401 C0.431943525,29.6699757 0.358702846,29.264946 0.29605118,28.861681 C0.264284139,28.6565189 0.404588573,28.464593 0.609309508,28.4328259 C0.811824399,28.4019413 1.00595632,28.5413633 1.03816457,28.7460843 C1.09861019,29.1374366 1.16964483,29.5301125 1.24862122,29.9144055 C1.29053607,30.1169204 1.15949702,30.3159056 0.956982131,30.3573792 C0.930950805,30.3631149 0.905801897,30.365321 0.880652989,30.365321 L0.880652989,30.365321 Z M48.8965365,31.3443636 C48.8665343,31.3443636 48.8360909,31.3408339 48.8056475,31.3328921 C48.6044562,31.2830355 48.4818001,31.079197 48.5320979,30.8780057 C48.6269579,30.4994485 48.713876,30.109861 48.7906464,29.7198323 C48.8303552,29.516435 49.028458,29.3849548 49.2314141,29.4242224 C49.4348114,29.4643724 49.5671741,29.6615928 49.527024,29.8654313 C49.4480477,30.2669314 49.3584822,30.6688727 49.2605339,31.0597838 C49.2181778,31.2305317 49.0650783,31.3443636 48.8965365,31.3443636 L48.8965365,31.3443636 Z M1.48246195,32.6993161 C1.32274432,32.6993161 1.17449812,32.5965144 1.12420031,32.4354732 C1.00419148,32.0502978 0.891683212,31.6540922 0.789322744,31.2583278 C0.737260093,31.0575778 0.858151335,30.8528568 1.05890139,30.8007942 C1.25921024,30.7522612 1.46437238,30.870064 1.51643503,31.070814 C1.61526583,31.4546658 1.72468564,31.8389587 1.84116479,32.2122215 C1.90293404,32.4103243 1.7921906,32.6207809 1.5940878,32.6825502 C1.55702625,32.6940216 1.51952349,32.6993161 1.48246195,32.6993161 L1.48246195,32.6993161 Z M48.198544,33.6545334 C48.1566292,33.6545334 48.1138319,33.6474741 48.0719171,33.632473 C47.8769027,33.562762 47.7749835,33.3483344 47.8451357,33.1528789 C47.9774983,32.7822634 48.1028017,32.4019413 48.2170748,32.0229429 C48.2770792,31.8248401 48.4875358,31.7132142 48.6847562,31.771895 C48.8837415,31.8318994 48.9958085,32.0414736 48.9358041,32.2400176 C48.8180013,32.6309287 48.6887271,33.0231635 48.5519523,33.4056916 C48.4972424,33.5587911 48.3525259,33.6545334 48.198544,33.6545334 L48.198544,33.6545334 Z M2.31061107,34.9605118 C2.16412972,34.9605118 2.02514891,34.8749173 1.96470329,34.7310832 C1.80719171,34.3587028 1.65629826,33.9766159 1.51687624,33.5954114 C1.4454004,33.4008383 1.54555482,33.1855283 1.73968674,33.1136113 C1.93470108,33.0430179 2.15045224,33.1427311 2.22148687,33.336863 C2.35782043,33.7088021 2.50253695,34.0763291 2.65607765,34.4390029 C2.73681888,34.6300463 2.64769468,34.8502096 2.45665122,34.9309508 C2.40900066,34.9512464 2.35914405,34.9605118 2.31061107,34.9605118 L2.31061107,34.9605118 Z M47.2750938,35.8870505 C47.2208251,35.8870505 47.1661152,35.8751379 47.1144937,35.8508714 C46.9269799,35.7621884 46.8471211,35.5384955 46.9358041,35.3509817 C47.1034635,34.9971321 47.2653872,34.63137 47.4176042,34.2638429 C47.4965806,34.0719171 47.7163027,33.9805868 47.9077873,34.0604456 C48.0997132,34.1398632 48.1906023,34.3595853 48.1111846,34.5506287 C47.9545555,34.9300684 47.7873373,35.3068608 47.6143834,35.6721818 C47.5504081,35.8076329 47.4153982,35.8870505 47.2750938,35.8870505 L47.2750938,35.8870505 Z M3.35583499,37.12773 C3.2225899,37.12773 3.09331568,37.0571366 3.02536951,36.9318332 C2.83256122,36.5771013 2.64504743,36.2117803 2.46812266,35.8451357 C2.37767483,35.6580631 2.45621002,35.433929 2.64284139,35.3434811 C2.82991396,35.2525921 3.05404809,35.3315685 3.14405471,35.5186411 C3.31612619,35.8746967 3.49613942,36.2263402 3.68497684,36.5731304 C3.78380763,36.7549084 3.71674388,36.9830135 3.5345246,37.0822855 C3.47760865,37.1131701 3.41628061,37.12773 3.35583499,37.12773 L3.35583499,37.12773 Z M46.1367748,38.0163247 C46.0710346,38.0163247 46.0048533,37.9991176 45.9439665,37.9629385 C45.7666005,37.8561659 45.7088021,37.6258548 45.8151335,37.4480477 C46.0176484,37.1100816 46.2148687,36.7619678 46.4010589,36.4134128 C46.4990073,36.2307523 46.7262299,36.1614825 46.9088904,36.2594308 C47.0919921,36.356938 47.1608206,36.5846018 47.0633135,36.7677035 C46.8709464,37.1268476 46.6679903,37.4859916 46.4592985,37.8341054 C46.3887051,37.9510258 46.2642841,38.0163247 46.1367748,38.0163247 L46.1367748,38.0163247 Z M4.60842709,39.1837635 C4.48797706,39.1837635 4.36973307,39.1264064 4.29737481,39.0191926 C4.07015222,38.684315 3.84778293,38.3388484 3.63556144,37.991617 C3.52790646,37.8146923 3.58394,37.5834988 3.76086477,37.4754026 C3.93778954,37.3681888 4.1685418,37.42334 4.27663799,37.6002647 C4.48268255,37.9382308 4.69711008,38.2709023 4.91859696,38.5978381 C5.03507611,38.7694683 4.99051401,39.0028679 4.81844253,39.119347 C4.75402603,39.1630267 4.68078535,39.1837635 4.60842709,39.1837635 L4.60842709,39.1837635 Z M44.7968233,40.0225017 C44.7191705,40.0225017 44.6406353,39.9982352 44.5735716,39.9488198 C44.4072358,39.8248401 44.3719391,39.5896757 44.4954776,39.42334 C44.7288771,39.108758 44.9591882,38.7818222 45.1793514,38.4517979 C45.2949482,38.2797265 45.5274653,38.2320759 45.7004191,38.348555 C45.8724906,38.4632694 45.9188176,38.6966689 45.8041032,38.8687403 C45.5764394,39.2093536 45.3395103,39.5464372 45.0986102,39.8707258 C45.0249283,39.9699978 44.9119788,40.0225017 44.7968233,40.0225017 L44.7968233,40.0225017 Z M6.05647474,41.1096404 C5.94881977,41.1096404 5.84204721,41.0633135 5.7674829,40.9741893 C5.50716964,40.6604897 5.25391573,40.3406133 5.00860357,40.0150011 C4.88374145,39.8495478 4.91727333,39.6139422 5.08272667,39.4895213 C5.24818001,39.3646592 5.48378557,39.398191 5.60820649,39.5636444 C5.8464593,39.87955 6.09221266,40.190161 6.34502537,40.494154 C6.47738804,40.6534304 6.45576881,40.8899184 6.29649239,41.0227223 C6.22589896,41.0809618 6.14118685,41.1096404 6.05647474,41.1096404 L6.05647474,41.1096404 Z M43.2680344,41.8874917 C43.178469,41.8874917 43.0884624,41.8557247 43.0165453,41.7904258 C42.8630046,41.651445 42.851092,41.4140746 42.9900728,41.2605339 C43.2552394,40.9671299 43.5159938,40.6649018 43.7648356,40.3604677 C43.8967571,40.2003088 44.1332451,40.1764836 44.2934039,40.3079638 C44.4535628,40.4394441 44.477388,40.6759321 44.3459078,40.8360909 C44.0891242,41.1497904 43.8199868,41.4617251 43.5468784,41.7639532 C43.4727553,41.8460181 43.3708361,41.8874917 43.2680344,41.8874917 L43.2680344,41.8874917 Z M7.68541805,42.8850651 C7.59011692,42.8850651 7.4948158,42.8488859 7.42157512,42.7765277 C7.13170086,42.4897419 6.84888595,42.1958968 6.57313038,41.8954335 C6.43282594,41.7427752 6.44297375,41.5054048 6.59519082,41.3651004 C6.74784911,41.2256784 6.98566071,41.2349437 7.12552394,41.387602 C7.39377895,41.6792411 7.6682109,41.9642621 7.94970218,42.2431061 C8.09706596,42.3887051 8.09838959,42.6265167 7.95234944,42.7738804 C7.87910876,42.8480035 7.78248401,42.8850651 7.68541805,42.8850651 L7.68541805,42.8850651 Z M41.5667328,43.5949702 C41.4648136,43.5949702 41.3628943,43.5539378 41.2887712,43.4723141 C41.1493492,43.3192146 41.1603794,43.0818443 41.3139201,42.9424222 C41.6064417,42.6754908 41.8927862,42.4023825 42.1725127,42.1222149 C42.318994,41.9752923 42.5568056,41.9757335 42.703287,42.1213325 C42.8502096,42.268255 42.8502096,42.5060666 42.7041694,42.652548 C42.4178248,42.9388926 42.12045,43.2234723 41.8191043,43.497463 C41.7471873,43.562762 41.6567395,43.5949702 41.5667328,43.5949702 L41.5667328,43.5949702 Z M9.4802559,44.4950364 C9.39730863,44.4950364 9.31347893,44.4676814 9.24376792,44.4112067 C8.92697992,44.1535407 8.61636885,43.8883741 8.31281712,43.6165895 C8.158394,43.4784911 8.14515773,43.2411207 8.28369733,43.0866976 C8.42179572,42.9322744 8.65916612,42.9190382 8.81358923,43.0575778 C9.108758,43.3214207 9.41010368,43.5786455 9.71718509,43.8288109 C9.87822634,43.9594088 9.90249283,44.1958968 9.77189499,44.356938 C9.69777189,44.447827 9.5892345,44.4950364 9.4802559,44.4950364 L9.4802559,44.4950364 Z M39.7074785,45.1272888 C39.5927642,45.1272888 39.4798147,45.0752261 39.4061328,44.9759541 C39.2821531,44.8096184 39.3165674,44.574454 39.4833444,44.4509155 C39.7935142,44.219722 40.107655,43.9739687 40.4165012,43.7193911 C40.57666,43.5874697 40.813148,43.6099713 40.9446283,43.7701302 C41.076991,43.9298478 41.0540481,44.1663358 40.8943305,44.2982572 C40.5753364,44.5612177 40.2514891,44.8149129 39.9307302,45.0531657 C39.8636664,45.1030223 39.7851313,45.1272888 39.7074785,45.1272888 L39.7074785,45.1272888 Z M11.4242224,45.9236709 C11.3531877,45.9236709 11.2808295,45.9033752 11.2172954,45.8610192 C10.8766821,45.6355614 10.5387161,45.3999559 10.2126627,45.1603794 C10.0454445,45.0381646 10.0097066,44.8030002 10.1319215,44.635782 C10.25546,44.4694463 10.4897419,44.4337084 10.6569601,44.555482 C10.9763953,44.7893227 11.3011251,45.0161041 11.6315906,45.235385 C11.8045445,45.3496581 11.8517538,45.5826164 11.7374807,45.7555703 C11.6651224,45.8645489 11.545996,45.9236709 11.4242224,45.9236709 L11.4242224,45.9236709 Z M37.7088021,46.4716523 C37.581734,46.4716523 37.4577542,46.4067946 37.3871608,46.2903155 C37.2799471,46.1125083 37.3373042,45.8821972 37.5146702,45.7749835 C37.8535186,45.5702625 38.1870726,45.3575998 38.5148908,45.1374366 C38.6869623,45.0227223 38.9203618,45.0681668 39.0355173,45.239797 C39.1511141,45.4118685 39.1052283,45.645268 38.9335981,45.7608648 C38.5965144,45.9872049 38.249283,46.2082506 37.9024928,46.4178248 C37.8420472,46.4544452 37.7749835,46.4716523 37.7088021,46.4716523 L37.7088021,46.4716523 Z M13.4996691,47.1559674 C13.4405471,47.1559674 13.3805427,47.1418487 13.3245092,47.1122877 C12.9653651,46.9225678 12.6057798,46.7209354 12.25546,46.513126 C12.0772116,46.4072358 12.0180896,46.1769248 12.1244209,45.9986764 C12.2294286,45.820428 12.4597397,45.7608648 12.6384293,45.8676373 C12.9781602,46.0692698 13.3271564,46.2647253 13.6752702,46.4487095 C13.8588131,46.5457754 13.9285242,46.7725568 13.8318994,46.9560997 C13.7643944,47.0836091 13.6342378,47.1559674 13.4996691,47.1559674 L13.4996691,47.1559674 Z M35.5896757,47.613501 C35.4493713,47.613501 35.3148026,47.5345246 35.2508273,47.3995147 C35.1612619,47.2124421 35.2411207,46.988308 35.4281932,46.8991838 C35.7798368,46.7319656 36.1350099,46.5515111 36.4848886,46.3631149 C36.6671079,46.2642841 36.8947717,46.3331127 36.9931613,46.515332 C37.0915508,46.6979925 37.0236047,46.9256563 36.8409442,47.0240459 C36.4804765,47.2181778 36.1138319,47.404368 35.750717,47.5773219 C35.6986543,47.6015884 35.6439444,47.613501 35.5896757,47.613501 L35.5896757,47.613501 Z M15.6871829,48.1782484 C15.6399735,48.1782484 15.5918818,48.1694242 15.5451136,48.1508934 C15.170086,47.9973527 14.79197,47.8318994 14.4217957,47.6585043 C14.2338407,47.5707037 14.1530995,47.347452 14.2409001,47.159497 C14.3287006,46.9719832 14.5519523,46.8916832 14.7399073,46.9786014 C15.0990514,47.1462608 15.465696,47.3068608 15.8292522,47.455107 C16.021178,47.5336422 16.1133907,47.752923 16.0348555,47.9448489 C15.9752923,48.0904478 15.8349879,48.1782484 15.6871829,48.1782484 L15.6871829,48.1782484 Z M33.3703949,48.5404809 C33.216413,48.5404809 33.0721377,48.4451798 33.0174278,48.2925215 C32.9468343,48.097066 33.0478712,47.8821972 33.2433267,47.812045 C33.6086477,47.6805647 33.9797044,47.5362894 34.346349,47.3827487 C34.5378337,47.3028899 34.7571145,47.3933377 34.8374145,47.5843812 C34.9172733,47.7758659 34.8272667,47.9955879 34.635782,48.0758879 C34.257666,48.2338407 33.8746967,48.3825281 33.497463,48.5184205 C33.4555482,48.5338628 33.4127509,48.5404809 33.3703949,48.5404809 L33.3703949,48.5404809 Z M17.9638209,48.979925 C17.9280829,48.979925 17.892345,48.9755129 17.8566071,48.9644827 C17.4652548,48.8484447 17.0734613,48.7209354 16.6922568,48.5868079 C16.4968012,48.5179793 16.3939996,48.3031105 16.4628281,48.1080962 C16.5316567,47.9121994 16.7443194,47.8111626 16.9415398,47.8782263 C17.3112729,48.008383 17.6911538,48.1323627 18.0705934,48.2448709 C18.2695786,48.3039929 18.3825281,48.5135672 18.3234061,48.7121112 C18.2748732,48.8749173 18.1253033,48.979925 17.9638209,48.979925 L17.9638209,48.979925 Z M31.0655195,49.2472976 C30.8978601,49.2472976 30.7452019,49.1343481 30.7019634,48.9640415 C30.6507831,48.7632914 30.7725568,48.5590117 30.9737481,48.5082727 C31.3602471,48.4098831 31.74454,48.3022281 32.1164792,48.187955 C32.3141407,48.1283918 32.5245974,48.2382528 32.5859254,48.4367968 C32.6463711,48.6348996 32.5351864,48.8453563 32.3370836,48.9058019 C31.9532319,49.0236047 31.556585,49.1347893 31.1581734,49.235385 C31.1272888,49.2437679 31.0959629,49.2472976 31.0655195,49.2472976 L31.0655195,49.2472976 Z M20.3057578,49.5526142 C20.2819325,49.5526142 20.2581072,49.5504081 20.2338407,49.5464372 C19.833223,49.4687845 19.4308405,49.3809839 19.0381646,49.2848004 C18.8365321,49.235385 18.7134348,49.0324289 18.762409,48.8312376 C18.8118244,48.6291639 19.0143393,48.5043018 19.216413,48.555482 C19.5971763,48.6485771 19.9872049,48.7341716 20.3763512,48.8091771 C20.5797485,48.8484447 20.7129936,49.0447827 20.673726,49.2486212 C20.6388705,49.4281932 20.4818001,49.5526142 20.3057578,49.5526142 L20.3057578,49.5526142 Z M28.7024046,49.723362 C28.5197441,49.723362 28.3595853,49.5896757 28.3313479,49.4034856 C28.3009045,49.1987646 28.4420913,49.0077212 28.6468123,48.9768365 C29.0350761,48.918597 29.4281932,48.8493272 29.8155747,48.7712332 C30.0194132,48.7302008 30.2170748,48.861681 30.2581072,49.0650783 C30.2986984,49.2680344 30.1676594,49.4661372 29.9642621,49.5071696 C29.5645268,49.5874697 29.1590558,49.6589455 28.7584381,49.7193911 C28.7394661,49.7220384 28.7209354,49.723362 28.7024046,49.723362 L28.7024046,49.723362 Z M22.6913744,49.8936687 C22.6799029,49.8936687 22.6679903,49.8932274 22.6560777,49.8919038 C22.2484006,49.8539598 21.8429296,49.8063093 21.4409883,49.7498345 C21.2358262,49.7202735 21.0928745,49.5301125 21.1219943,49.3253916 C21.1511141,49.1197882 21.3377454,48.9816898 21.5464372,49.0059563 C21.9364659,49.0611074 22.3295831,49.1074344 22.7257887,49.1444959 C22.9322744,49.1634679 23.0840503,49.3465696 23.0646371,49.5530554 C23.0465475,49.7476285 22.882859,49.8936687 22.6913744,49.8936687 L22.6913744,49.8936687 Z M26.3044341,49.9660269 C26.1058901,49.9660269 25.9404368,49.8107214 25.9298478,49.6104125 C25.9192588,49.4030443 26.078094,49.2265608 26.285021,49.2159718 C26.6825502,49.1952349 27.076991,49.1647915 27.4687845,49.1250827 C27.6783587,49.1052283 27.8592544,49.2547981 27.8799912,49.4612839 C27.900728,49.6673285 27.750717,49.8517538 27.5442312,49.8724906 C27.140525,49.9130818 26.7337304,49.9439665 26.3242886,49.9655857 C26.3176704,49.9660269 26.3110523,49.9660269 26.3044341,49.9660269 L26.3044341,49.9660269 Z M25.0990514,50 L24.9997794,50 C24.6234282,50 24.249283,49.991617 23.8773439,49.9748511 C23.6704169,49.9660269 23.5098169,49.7904258 23.5190823,49.5834988 C23.5283477,49.3761306 23.6977719,49.2111185 23.9108758,49.2252371 C24.2717847,49.2411207 24.6348996,49.2495036 24.9997794,49.2495036 L25.0990514,49.2495036 C25.3064196,49.2495036 25.4745202,49.4176042 25.4745202,49.6245312 C25.4745202,49.8318994 25.3064196,50 25.0990514,50 L25.0990514,50 Z" id="Fill-33" fill="#FFFFFF" mask="url(#mask-2)"></path>
                </g>
            </g>
        </g>
    </g>
</svg>