<?xml version="1.0" encoding="UTF-8"?><svg id="a" xmlns="http://www.w3.org/2000/svg" viewBox="0 0 141 141"><defs><style>.b{fill:#fff;}.c{fill:none;stroke:#b88b2e;stroke-miterlimit:10;stroke-width:2px;}.d{fill:#b88b2e;}</style></defs><g><g><rect class="b" x="82.8" y="52.2" width="23.93" height="57.16"/><polygon class="b" points="106.73 52.2 34.27 52.2 69.77 18.69 106.73 52.2"/><rect class="b" x="34.34" y="52.2" width="1.03" height="57.16"/><rect class="b" x="34.27" y="108.32" width="57.16" height="1.03"/></g><path class="d" d="M75.86,88.17v13.9H40.73v-.96h4.03c4.69-1.2,7.34-4.21,7.34-7.58,0-4.81-3.61-7.7-6.74-11.31h-5.05v-1.08h4.15c-1.93-2.47-3.43-5.35-3.43-9.45,0-8.84,6.74-14.14,18.41-14.14,5.84,0,11.43,1.74,15.28,3.97l-4.82,13.24h-.06l-6.07-15.34c-1.09-.6-1.99-.72-3.19-.72-3.49,0-5.72,3.37-5.72,9.39,0,6.38,2.46,9.69,4.21,13.06h8.48v1.08h-7.94c.78,1.63,1.32,3.37,1.32,5.54,0,5.35-6.44,11.49-14.07,13.36h10.89c6.62,0,10.59-2.47,18.05-12.94h.06Z"/></g><circle class="c" cx="70.5" cy="70.5" r="69.5"/></svg>