<?xml version="1.0" encoding="UTF-8"?>
<svg width="139px" height="129px" viewBox="0 0 139 129" version="1.1" xmlns="http://www.w3.org/2000/svg" xmlns:xlink="http://www.w3.org/1999/xlink">
    <!-- Generator: Sketch 60.1 (88133) - https://sketch.com -->
    <title>PropertyProfessionals_icon1</title>
    <desc>Created with Sketch.</desc>
    <defs>
        <polygon id="path-1" points="4.46945338e-05 0.372167247 138.977653 0.372167247 138.977653 128.999955 4.46945338e-05 128.999955"></polygon>
    </defs>
    <g id="What-we-do" stroke="none" stroke-width="1" fill="none" fill-rule="evenodd">
        <g id="What-we-do---Property-Professionals" transform="translate(-172.000000, -877.000000)">
            <g id="PropertyProfessionals_icon1" transform="translate(172.000000, 877.000000)">
                <g id="Group-3">
                    <mask id="mask-2" fill="white">
                        <use xlink:href="#path-1"></use>
                    </mask>
                    <g id="Clip-2"></g>
                    <path d="M111.378823,3.74320244 C124.748746,3.74320244 135.625607,14.6816833 135.625607,28.1273488 C135.625607,41.5730143 124.748746,52.5114951 111.378823,52.5114951 C98.0084531,52.5114951 87.1320383,41.5730143 87.1320383,28.1273488 C87.1320383,14.6816833 98.0084531,3.74320244 111.378823,3.74320244 L111.378823,3.74320244 Z M111.378823,55.8825753 C126.597312,55.8825753 138.977697,43.4325021 138.977697,28.1273488 C138.977697,12.8239934 126.597312,0.3721223 111.378823,0.3721223 C96.1598871,0.3721223 83.7799482,12.8221955 83.7799482,28.1273488 C83.7799482,43.4325021 96.1616749,55.8825753 111.378823,55.8825753 L111.378823,55.8825753 Z M40.1223277,107.361666 L60.9763502,107.361666 L60.9763502,97.0394185 L40.1223277,97.0394185 L40.1223277,107.361666 Z M15.9157682,107.361666 L36.7702376,107.361666 L36.7702376,97.0394185 L15.9157682,97.0394185 L15.9157682,107.361666 Z M15.9157682,93.6683383 L36.7702376,93.6683383 L36.7702376,83.3465404 L15.9157682,83.3465404 L15.9157682,93.6683383 Z M40.1223277,93.6683383 L60.9763502,93.6683383 L60.9763502,83.3447425 L40.1223277,83.3447425 L40.1223277,93.6683383 Z M62.6523952,79.9754603 L14.2397232,79.9754603 C13.3140994,79.9754603 12.5636781,80.7283348 12.5636781,81.6610003 L12.5636781,109.047206 C12.5636781,109.978074 13.3140994,110.732746 14.2397232,110.732746 L62.6523952,110.732746 C63.578019,110.732746 64.3284402,109.978074 64.3284402,109.047206 L64.3284402,81.6610003 C64.3284402,80.7283348 63.578019,79.9754603 62.6523952,79.9754603 L62.6523952,79.9754603 Z M119.989225,125.628875 L119.989225,100.438816 C119.989225,91.1575578 112.481884,83.6081362 103.253357,83.6081362 L93.5233566,83.6081362 C84.2948293,83.6081362 76.7870415,91.1575578 76.7870415,100.438816 L76.7870415,125.628875 L3.35213473,125.628875 L3.35213473,70.236185 L53.1919032,70.236185 L53.2093341,70.236185 C53.226765,70.236185 53.242408,70.2343871 53.2598389,70.2343871 C53.2723534,70.2343871 53.2857617,70.2325892 53.2982762,70.2325892 C53.3107907,70.2325892 53.324646,70.2307913 53.3367135,70.2289934 C53.3541444,70.2289934 53.3697875,70.2253976 53.3876653,70.2253976 C53.3943695,70.2235997 53.4033084,70.2235997 53.4118003,70.2218017 C53.4328068,70.2186554 53.4520254,70.2168575 53.4712441,70.2132617 C53.4766074,70.2114638 53.4815238,70.2114638 53.4868871,70.2096659 C53.5092344,70.20607 53.5324756,70.2006763 53.5552698,70.19753 C53.5566106,70.19753 53.5566106,70.1957321 53.5583984,70.1957321 C53.6370608,70.1782024 53.7121476,70.1552791 53.7872344,70.126962 C53.8118164,70.116624 53.8359514,70.1076345 53.8605334,70.0972965 C53.8623212,70.0954986 53.8658968,70.0954986 53.8694723,70.0937007 C53.888691,70.0833627 53.9096974,70.0743732 53.9302569,70.0640352 C53.9391958,70.0604394 53.9463469,70.0568436 53.9530511,70.0532477 C53.9686942,70.0447077 53.9843373,70.037516 54.0004273,70.028976 C54.0120479,70.0217843 54.0227746,70.0145927 54.0352891,70.0078505 C54.0455688,70.0024568 54.0562955,69.9952652 54.0665752,69.9903209 C54.0822183,69.9795334 54.0996492,69.9691955 54.1152923,69.958408 C54.1206556,69.9552617 54.126019,69.9516659 54.1313823,69.9462721 C54.150601,69.9341362 54.1698196,69.9215509 54.1872505,69.9076171 C54.1903791,69.9058192 54.1921669,69.9022233 54.1957424,69.9008749 C54.2149611,69.8864916 54.232392,69.8725578 54.2498228,69.858624 C54.2533984,69.8550282 54.256974,69.8532303 54.2605495,69.8496345 C54.2761926,69.8357007 54.2936235,69.8217669 54.3092666,69.8073836 C54.3146299,69.8042373 54.3182055,69.8006415 54.3213341,69.7970456 C54.3356363,69.7831118 54.3512794,69.769178 54.3651347,69.7547948 C54.3704981,69.7498505 54.3754145,69.7444568 54.3807778,69.7390631 C54.3932923,69.7269272 54.4053598,69.7143418 54.4174273,69.700408 C54.4245785,69.6936659 54.4330704,69.6846763 54.4397746,69.6761362 C54.4491605,69.6653488 54.4576524,69.6568087 54.4665913,69.6442233 C54.4768711,69.6338854 54.4871508,69.6213 54.4956428,69.6073662 C54.5032408,69.600624 54.5081572,69.5934324 54.5135206,69.5862408 C54.5273759,69.5687111 54.5398904,69.5529794 54.5515109,69.5354498 C54.5537457,69.531854 54.5573212,69.5264603 54.5608968,69.5233139 C54.5747521,69.5021885 54.5903952,69.4810631 54.6024627,69.4581397 C54.6042505,69.4581397 54.6042505,69.4581397 54.6042505,69.4563418 L54.6096138,69.4495997 C54.6149772,69.4406101 54.6198936,69.4334185 54.6234691,69.4248784 L67.9040029,48.4239481 L81.181855,69.4230805 C81.1872183,69.4302721 81.1907939,69.4388122 81.1974981,69.4478017 L81.2028614,69.4545439 L81.2028614,69.4581397 C81.2185045,69.482861 81.2341476,69.5057843 81.2515785,69.5282582 C81.2564949,69.5354498 81.2605174,69.5426415 81.2658807,69.5493836 C81.2725849,69.5583732 81.2779482,69.5669132 81.2850994,69.5759028 C81.2935913,69.5880387 81.3038711,69.600624 81.3145977,69.6127599 C81.3181733,69.6181537 81.3217489,69.6213 81.3266653,69.6266937 C81.3423084,69.6460213 81.3583984,69.6653488 81.3758293,69.6828784 L81.3758293,69.6846763 C81.4857778,69.8060352 81.6095817,69.909415 81.7441122,69.9903209 C81.7459,69.9921188 81.7476878,69.9939167 81.7494756,69.9939167 C81.770035,70.0060526 81.7910415,70.0181885 81.8120479,70.0307739 C81.8138357,70.0307739 81.8151765,70.0321223 81.819199,70.0339202 C81.8384177,70.0447077 81.8576363,70.0550456 81.8786428,70.0640352 C81.8871347,70.0689794 81.8942859,70.0725753 81.9027778,70.0761711 C81.9170801,70.0833627 81.9309354,70.0901049 81.9447907,70.0954986 L81.9885913,70.1130282 C81.9988711,70.118422 82.0095977,70.1220178 82.0198775,70.1256136 C82.031945,70.1305578 82.0444595,70.1359516 82.056527,70.1395474 C82.0618904,70.1413453 82.0685945,70.1444916 82.0739579,70.1462895 C82.0985399,70.1534812 82.1213341,70.1624707 82.1454691,70.1692129 C82.1526203,70.1710108 82.1597714,70.1728087 82.1682633,70.1764045 C82.1892698,70.1813488 82.2102762,70.1867425 82.2312826,70.1921362 C82.2415624,70.1939341 82.2505013,70.19753 82.260781,70.1993279 C82.2728486,70.2006763 82.2835752,70.2024742 82.2956428,70.20607 C82.3130736,70.2078679 82.3305045,70.2114638 82.3497232,70.2150596 C82.3568743,70.2168575 82.3622376,70.2168575 82.3689418,70.2186554 C82.3899482,70.2218017 82.4127424,70.2235997 82.4355367,70.2271955 C82.4404531,70.2271955 82.4440286,70.2271955 82.4476042,70.2289934 C82.5034723,70.2343871 82.5593405,70.2379829 82.6152087,70.2379829 L132.454977,70.2379829 L132.454977,125.628875 L119.989225,125.628875 Z M100.156025,125.628875 C100.246755,122.981004 100.225749,117.589074 100.182395,106.178192 C100.15245,98.2530073 100.100157,90.3502965 100.075575,86.9774185 L103.253357,86.9774185 C110.633318,86.9774185 116.637135,93.0152477 116.637135,100.438816 L116.637135,125.628875 L100.156025,125.628875 Z M96.725273,86.9792164 C96.8249418,100.958411 96.9120961,120.212223 96.8039354,125.628875 L80.1391315,125.628875 L80.1391315,100.438816 C80.1391315,93.0170456 86.1438421,86.9792164 93.5233566,86.9792164 L96.725273,86.9792164 Z M28.1383823,29.8128889 L64.8527071,29.8128889 L41.4247264,66.8651049 L4.72783248,66.8651049 L28.1383823,29.8128889 Z M83.5372569,66.8651049 L69.3185849,44.3786519 C69.0115334,43.8923174 68.4787746,43.5974603 67.9040029,43.5974603 C67.3319129,43.5974603 66.7973662,43.8923174 66.4921026,44.3786519 L52.2734305,66.8651049 L45.3967296,66.8651049 L67.9040029,31.2682965 L90.4121701,66.8651049 L83.5372569,66.8651049 Z M135.807067,68.4782791 C135.805279,68.469739 135.805279,68.4607495 135.805279,68.4540073 C135.803045,68.431084 135.801704,68.4099585 135.799916,68.3870352 C135.798128,68.3748993 135.798128,68.3645613 135.796341,68.3537739 C135.794553,68.341638 135.793212,68.3308505 135.791424,68.3187146 C135.789636,68.3047808 135.787849,68.2903976 135.786061,68.2782617 C135.783826,68.2728679 135.783826,68.2697216 135.783826,68.2643279 C135.77891,68.2328645 135.772205,68.2027495 135.765054,68.1712861 C135.763267,68.1694882 135.763267,68.1658923 135.763267,68.1622965 C135.723041,67.9973383 135.660469,67.8395718 135.576443,67.6970875 L135.576443,67.6952895 C135.567951,67.6813557 135.559013,67.667422 135.550521,67.6534882 C135.548733,67.6516902 135.548733,67.6498923 135.546945,67.6480944 L128.622868,56.6884882 C128.126759,55.9037007 127.089845,55.6699725 126.309479,56.1706902 C125.527324,56.6691606 125.296701,57.7101502 125.79281,58.4967355 L131.081067,66.8669028 L94.3841733,66.8669028 L70.9561926,29.8128889 L78.4630865,29.8128889 C79.3887103,29.8128889 80.1391315,29.0577669 80.1391315,28.1273488 C80.1391315,27.1969307 79.3887103,26.4418087 78.4630865,26.4418087 L27.2185688,26.4418087 C26.6442441,26.4418087 26.1114852,26.7366659 25.8044338,27.2230003 L0.261954662,67.6480944 C0.260166881,67.6498923 0.260166881,67.6516902 0.2583791,67.6534882 C0.249887138,67.667422 0.240948232,67.6813557 0.23245627,67.6952895 L0.23245627,67.6970875 C0.148430547,67.8395718 0.0858581994,67.9973383 0.045633119,68.1622965 C0.045633119,68.1658923 0.0433983923,68.1694882 0.0433983923,68.1712861 C0.0366942122,68.2009516 0.0299900322,68.2328645 0.0241797428,68.2643279 C0.0241797428,68.2697216 0.0228389068,68.2728679 0.0228389068,68.2782617 C0.0210511254,68.2903976 0.0192633441,68.3047808 0.0156877814,68.3187146 C0.0156877814,68.3308505 0.012559164,68.3434359 0.012559164,68.3537739 C0.0107713826,68.3645613 0.00898360129,68.3766972 0.00719581994,68.3870352 C0.00540803859,68.4099585 0.00362025723,68.431084 0.00362025723,68.4540073 C0.00183247588,68.4607495 0.00183247588,68.469739 0.00183247588,68.4782791 C0.00183247588,68.4994045 4.46945338e-05,68.5223279 4.46945338e-05,68.5434533 L4.46945338e-05,127.314415 C4.46945338e-05,128.244833 0.750465916,128.999955 1.67608971,128.999955 L134.131022,128.999955 C135.05754,128.999955 135.807067,128.244833 135.807067,127.314415 L135.807067,68.5506449 L135.807067,68.5434533 L135.807067,68.4782791 Z" id="Fill-1" fill="#747474" mask="url(#mask-2)"></path>
                </g>
                <path d="M102,41 L102,38.7310508 C105.068221,37.1881114 107.220698,34.1927024 107.220698,30.7877033 C107.220698,29.6993639 107.173935,28.7919642 106.991422,27.6113545 L102.27604,27.6113545 L102.27604,24.7527756 L106.532868,24.7527756 C106.303591,23.390776 106.029822,21.6209866 106.029822,19.8507472 C106.029822,14.4941187 109.738656,11 114.819518,11 C117.199909,11 118.848885,11.5450699 119.809123,12.1346996 L118.893833,15.1296585 C118.069799,14.677309 116.743172,14.2222589 114.819518,14.2222589 C111.24825,14.2222589 109.783603,16.6743984 109.783603,19.8948569 C109.783603,21.8482866 110.059189,23.3003061 110.332959,24.7527756 L116.925685,24.7527756 L116.925685,27.6113545 L110.69844,27.6113545 C110.83646,29.3352338 110.927716,31.0609134 110.515926,32.6943228 C110.012426,34.645502 108.91326,36.2789114 107.356902,37.5963512 L107.356902,37.6872712 L121,37.6872712 L121,41 L102,41 Z" id="Fill-4" fill="#B49464"></path>
            </g>
        </g>
    </g>
</svg>