<?xml version="1.0" encoding="UTF-8"?>
<svg width="32px" height="32px" viewBox="0 0 32 32" version="1.1" xmlns="http://www.w3.org/2000/svg" xmlns:xlink="http://www.w3.org/1999/xlink">
    <title>26EAE2F5-EDB7-4054-914A-B577CC9F4785</title>
    <g id="Welcome" stroke="none" stroke-width="1" fill="none" fill-rule="evenodd">
        <g id="Desktop-HD" transform="translate(-177.000000, -19.000000)" fill="#FFCC00">
            <g id="social-icons" transform="translate(132.072825, 18.983955)">
                <path d="M67.843725,12.3082805 L67.843725,12.7292468 C67.843725,17.5668827 64.269225,23.1406302 57.733725,23.1406302 C55.691475,23.1406302 53.853225,22.5095671 52.321725,21.4583101 L53.138475,21.4583101 C54.772725,21.4583101 56.304225,20.8272469 57.529725,19.880266 C55.998225,19.880266 54.670725,18.829009 54.261975,17.3567858 C54.465975,17.3567858 54.670725,17.4618342 54.976725,17.4618342 C55.283475,17.4618342 55.589475,17.4618342 55.896225,17.3567858 C54.261975,17.040868 53.036475,15.5686448 53.036475,13.7805038 C53.547225,14.0964215 54.057975,14.20147 54.670725,14.20147 C53.751225,13.5704068 53.138475,12.413329 53.138475,11.1512027 C53.138475,10.5201395 53.343225,9.88907636 53.649225,9.36383408 C55.385475,11.5721689 58.040475,13.0443921 60.899475,13.1494406 C60.797475,12.8342952 60.797475,12.6234259 60.797475,12.3082805 C60.797475,10.3100426 62.431725,8.62695005 64.371975,8.62695005 C65.392725,8.62695005 66.312225,9.04791629 66.924975,9.7840279 C67.741725,9.57393099 68.456475,9.36383408 69.171225,8.94286783 C68.865225,9.7840279 68.354475,10.5201395 67.639725,10.9411058 C68.354475,10.8360573 69.069225,10.625188 69.681975,10.4150911 C69.069225,11.1512027 68.456475,11.7822658 67.843725,12.3082805 M61.001475,0.10875605 C52.525725,0.10875605 45.582225,7.25977528 45.582225,15.9888386 C45.582225,24.7186743 52.525725,31.8696936 61.001475,31.8696936 C69.477225,31.8696936 76.421475,24.7186743 76.421475,15.9888386 C76.319475,7.25977528 69.477225,0.10875605 61.001475,0.10875605" id="twitter"></path>
            </g>
        </g>
    </g>
</svg>