<?xml version="1.0" encoding="UTF-8"?>
<svg width="32px" height="32px" viewBox="0 0 32 32" version="1.1" xmlns="http://www.w3.org/2000/svg" xmlns:xlink="http://www.w3.org/1999/xlink">
    <title>Group 9</title>
    <defs>
        <polygon id="path-1" points="0 0 32 0 32 32 0 32"></polygon>
    </defs>
    <g id="Symbols" stroke="none" stroke-width="1" fill="none" fill-rule="evenodd">
        <g id="header-internal-moj" transform="translate(-223.000000, -19.000000)">
            <g id="Group-3" transform="translate(223.000000, 19.000000)">
                <mask id="mask-2" fill="white">
                    <use xlink:href="#path-1"></use>
                </mask>
                <g id="Clip-2"></g>
                <path d="M17.5183006,12.6071118 C17.5183006,11.9159042 17.4740799,11.2933986 17.5309658,10.6803397 C17.586027,10.0859591 17.9262688,9.8136196 18.537416,9.78087875 C19.0171891,9.75511546 19.5001822,9.75264648 19.9800626,9.77540405 C20.3438101,9.79268693 20.4996559,9.67707416 20.4907473,9.29459663 C20.4721789,8.49282153 20.4716423,7.68997296 20.4910693,6.88809052 C20.5002998,6.50958483 20.348962,6.3872092 19.9860732,6.39558227 C19.0064559,6.4180178 18.0254433,6.39518414 17.04647,6.43036271 C14.9558613,6.50507626 13.5290998,7.94406343 13.4524649,10.0447378 C13.4264906,10.7568781 13.4289592,11.470736 13.4462397,12.1831983 C13.4546115,12.5299293 13.3395519,12.6745258 12.9851423,12.65048 C12.6480131,12.6276151 12.3078787,12.6517682 11.9698908,12.6369543 C11.5910096,12.6202082 11.4221767,12.7577197 11.4343052,13.1653165 C11.4580255,13.9668769 11.4529809,14.7699401 11.4326952,15.5717152 C11.4228207,15.9588087 11.5926196,16.0716304 11.9478878,16.0583194 C12.4074826,16.0410365 12.8683653,16.0541329 13.37422,16.0541329 C13.3940764,16.3069351 13.424988,16.5146517 13.4244513,16.7223682 C13.4175821,19.4845151 13.4129668,22.246662 13.3901051,25.0087015 C13.3860265,25.5116224 13.5560401,25.7075308 14.0786386,25.6870275 C15.0038387,25.6507442 15.9315074,25.6744679 16.8582101,25.6772589 C17.4849204,25.6791912 17.5510368,25.6109184 17.5506075,24.9689831 C17.5485682,22.2056554 17.5481388,19.4422204 17.5500708,16.6788927 C17.5501781,16.4911427 17.5738985,16.3032853 17.5892469,16.07893 C18.3031107,16.07893 18.9604106,16.0608957 19.6162079,16.0858002 C19.998631,16.1003994 20.1672493,15.9642834 20.1970875,15.5808397 C20.2592326,14.781641 20.3317889,13.9825495 20.4324661,13.1875373 C20.4907473,12.7271258 20.3201971,12.5849983 19.8751995,12.6000269 C19.1109971,12.6256829 18.3452921,12.6071118 17.5183006,12.6071118 M17.0214617,32 L14.9887049,32 C14.3070407,31.8885738 13.6228005,31.7914247 12.9443562,31.6632523 C4.65372642,30.0981324 -1.49380943,22.0344369 0.318702582,12.8737619 C2.02205816,4.26506542 10.0285807,-1.18998949 18.6709367,0.221946227 C25.185762,1.28639955 30.4888113,6.47308684 31.6639871,12.935057 C31.7876333,13.6151006 31.8885252,14.2992233 32.0000429,14.9815212 L32.0000429,17.015211 C31.9507776,17.3088051 31.8875592,17.6008965 31.8542864,17.8963155 C31.08783,24.7127457 25.7815608,30.4028906 19.0067779,31.6645405 C18.3470094,31.7874528 17.6833769,31.8886811 17.0214617,32" id="Fill-1" fill="#FFCC00" mask="url(#mask-2)"></path>
            </g>
        </g>
    </g>
</svg>