<?xml version="1.0" encoding="UTF-8"?>
<svg width="139px" height="139px" viewBox="0 0 139 139" version="1.1" xmlns="http://www.w3.org/2000/svg" xmlns:xlink="http://www.w3.org/1999/xlink">
    <title>Group 13</title>
    <g id="Symbols" stroke="none" stroke-width="1" fill="none" fill-rule="evenodd">
        <g id="WHY-PMJ-v2" transform="translate(-1098.000000, -72.000000)">
            <g id="Group-13" transform="translate(1099.000000, 73.000000)">
                <path d="M137,68.5 C137,106.331355 106.331355,137 68.5,137 C30.6686446,137 0,106.331355 0,68.5 C0,30.6686446 30.6686446,0 68.5,0 C106.331355,0 137,30.6686446 137,68.5 Z" id="Stroke-1" stroke="#B88B2E" stroke-width="2"></path>
                <path d="M79.6391398,56.9855417 C76.8613674,59.5008062 70.7638014,54.1496186 66.1198687,55.8350871 C63.2758034,56.8673491 62.5146381,57.7971542 61.7088196,58.6570229 L49.6284119,71.6652027 C47.4345659,73.8986232 47.4345659,77.520632 49.6284119,79.7540526 C51.8232884,81.9892215 55.3811178,81.9892215 57.5756508,79.7551016 L64.9788077,72.8139089 C68.4978233,74.3969204 79.2410394,77.6363768 85.8706655,73.6580418 L95.2732552,83.2805981 C96.1673496,79.6141797 95.3797359,77.9206685 96.6801745,76.5960721 C99.0096975,74.2252265 103.789651,69.3356195 103.789651,69.3356195 L85.8998618,51.1238181 C85.8998618,51.1238181 82.4179428,54.4709766 79.6391398,56.9855417 L79.6391398,56.9855417 Z M47.5774561,49.3439354 C47.5774561,48.1158514 46.5995511,47.120306 45.3928842,47.120306 C44.1865609,47.120306 43.2086559,48.1158514 43.2086559,49.3439354 C43.2086559,50.5723692 44.1865609,51.5679146 45.3928842,51.5679146 C46.5995511,51.5679146 47.5774561,50.5716698 47.5774561,49.3439354 L47.5774561,49.3439354 Z M51.8782461,49.3764559 L32.0931007,68.9722997 L26,62.5958438 L45.7851454,43 L51.8782461,49.3764559 Z M94.7913441,49.3519781 C94.7913441,48.1235444 93.8127521,47.127999 92.6060853,47.127999 C91.4004489,47.127999 90.4225439,48.1235444 90.4225439,49.3519781 C90.4225439,50.5804119 91.4004489,51.5756076 92.6060853,51.5756076 C93.8137826,51.5756076 94.7913441,50.5811112 94.7913441,49.3519781 L94.7913441,49.3519781 Z M112,62.6045858 L105.906899,68.9810417 L86.1210669,49.3851979 L92.2148546,43.0087421 L112,62.6045858 Z M64.6174603,103.957659 C63.5028477,102.820493 61.8912107,102.501932 60.4928787,102.992886 C61.127641,101.342735 60.7920551,99.395355 59.4840598,98.0602682 C58.1856822,96.7356718 56.2916996,96.3852902 54.6776582,97.0098227 C55.1317469,95.4460437 54.7532252,93.6843445 53.5424365,92.4492668 C52.0630417,90.9396885 49.8118335,90.6945612 48.0813503,91.7135353 C48.6663072,90.0843657 48.3186992,88.1869898 47.0364654,86.8781291 C45.2726641,85.0790139 42.4097071,85.0755171 40.6414404,86.8721845 L39.1726937,88.1058635 C37.404427,89.9014819 37.4020226,92.8160834 39.1658239,94.615898 C40.3371117,95.8100629 41.9916844,96.2121975 43.4889405,95.8226514 C42.2489556,97.6172208 42.4141724,100.111504 43.9887129,101.718294 C45.7456445,103.510416 48.5931447,103.519857 50.3620983,101.74522 C50.1154752,103.172273 50.531437,104.69409 51.6134183,105.797338 C52.9842715,107.196416 55.0190835,107.508683 56.6873957,106.735885 C56.2779602,108.119228 56.6090808,109.680209 57.6814446,110.774365 C59.2364063,112.360874 61.7589686,112.362622 63.3163348,110.77961 L64.611621,109.693148 C66.1696742,108.112234 66.1724221,105.543468 64.6174603,103.957659 L64.6174603,103.957659 Z M96.8210038,88.3586838 C98.4669894,90.0081349 98.774066,93.4252299 96.5623587,95.7139003 C94.3503079,98.0015216 90.7639691,97.854655 89.1172965,96.2052038 L87.5211164,94.5809298 L89.6555393,97.2748818 C90.9302164,98.8851686 90.3813255,101.490651 88.4265459,103.095343 C86.4717662,104.700035 83.8540583,104.695839 82.5786943,103.085902 L81.9233227,102.258204 C83.1986868,103.86849 82.6491089,106.473973 80.6936423,108.078665 C78.7405801,109.682657 76.1218417,109.678461 74.8464777,108.069223 C74.8464777,108.069223 73.498638,106.36732 73.4979511,106.368019 C74.7406839,107.980754 74.1859538,110.561758 72.2449136,112.15596 C70.4103541,113.662041 67.2197113,112.963376 65.7794739,111.541568 C66.6591419,110.746391 69.9899271,106.844286 66.1971531,102.452627 C65.3082109,101.545551 64.117001,100.929411 62.9034644,100.705265 C62.76607,99.1589698 62.108981,97.6749183 60.9881857,96.5318071 C59.8780385,95.3988366 58.4436403,94.7159071 56.8965787,94.5732368 C56.6702213,93.2133225 56.0382068,91.930688 55.0465623,90.9197566 C53.7979902,89.6465635 52.1396391,88.9419538 50.3734333,88.9332117 C50.1378018,87.5995236 49.5123136,86.3406675 48.5399043,85.3486189 C46.3690719,83.3613747 44.2301836,83.1127506 42.5127529,83.4994992 C41.5702269,79.7575494 41.7113997,76.5093509 40.3896651,75.1637736 C38.060829,72.792928 34.6208153,69.3093933 34.6208153,69.3093933 L52.5095737,51.0975919 C52.5095737,51.0975919 54.6536142,53.0369297 57.4313866,55.5514948 C58.1691949,56.2193879 59.195188,56.7106915 60.3036178,57.0722629 L48.1019595,70.1577225 C46.6527914,71.6442218 43.8142219,76.9167308 48.1242861,81.2853111 C52.4346937,85.6542412 57.5852684,82.7878958 59.0447411,81.31958 L65.4301485,75.3326702 C67.9001574,76.2694689 77.5631096,79.7113913 85.139727,76.4684381 L96.8210038,88.3586838 Z" id="Fill-3" fill="#FFFFFF"></path>
                <path d="M46,50.0001572 C46,51.1046466 45.1046466,52 43.9998428,52 C42.8953534,52 42,51.1046466 42,50.0001572 C42,48.8956679 42.8953534,48 43.9998428,48 C45.1046466,48 46,48.8956679 46,50.0001572" id="Fill-5" fill="#B88B2E"></path>
                <path d="M95,50.0001572 C95,51.1046466 94.1046466,52 92.9998428,52 C91.8953534,52 91,51.1046466 91,50.0001572 C91,48.8956679 91.8953534,48 92.9998428,48 C94.1046466,48 95,48.8956679 95,50.0001572" id="Fill-7" fill="#B88B2E"></path>
                <path d="M84,37 C84,45.2841131 77.2843838,52 68.9998256,52 C60.7156162,52 54,45.2841131 54,37 C54,28.7158869 60.7156162,22 68.9998256,22 C77.2843838,22 84,28.7158869 84,37" id="Fill-9" fill="#FFFFFF"></path>
                <path d="M75,38.6930707 L75,44 L61.1660752,44 L61.1660752,43.6324622 L62.7533712,43.6324622 C64.6014904,43.1730399 65.6430092,42.0246564 65.6430092,40.7375858 C65.6430092,38.8998968 64.2214336,37.7969392 62.9886444,36.4183283 L61,36.4183283 L61,36.0050203 L62.6337828,36.0050203 C61.8757984,35.0631187 61.2835344,33.9605053 61.2835344,32.3984696 C61.2835344,29.0211138 63.9378992,27 68.5322924,27 C70.8317956,27 73.0344216,27.6659042 74.5507452,28.5159214 L72.6543648,33.5705986 L72.6312988,33.5705986 L70.2395316,27.7116743 C69.8112136,27.4824794 69.456352,27.4356768 68.9836764,27.4356768 C67.6085877,27.4356768 66.7327892,28.7227474 66.7327892,31.0198587 C66.7327892,33.4553129 67.7029808,34.7189822 68.3917672,36.0050203 L71.73066,36.0050203 L71.73066,36.4183283 L68.6036196,36.4183283 C68.9123492,37.0394947 69.1245564,37.7053989 69.1245564,38.532359 C69.1245564,40.576874 66.5901348,42.9207879 63.5826828,43.6324622 L67.8687012,43.6324622 C70.4748048,43.6324622 72.0390348,42.6905605 74.976934,38.6930707 L75,38.6930707 Z" id="Fill-11" fill="#B88B2E"></path>
            </g>
        </g>
    </g>
</svg>